<svg id="Group_5047" data-name="Group 5047" xmlns="http://www.w3.org/2000/svg" xmlns:xlink="http://www.w3.org/1999/xlink" width="414" height="296.891" viewBox="0 0 414 296.891">
  <defs>
    <clipPath id="clip-path">
      <rect id="Rectangle_481" data-name="Rectangle 481" width="414" height="296.891" fill="none"/>
    </clipPath>
  </defs>
  <g id="Group_5044" data-name="Group 5044">
    <g id="Group_5043" data-name="Group 5043" clip-path="url(#clip-path)">
      <path id="Path_2800" data-name="Path 2800" d="M293.934,258.926S396.787,298.9,422.841,229.59,365.817-12.688,223.384,10.991c-89.162,14.822-73.608,72.945-85.335,102.917-13.968,35.7-89.6,45.875-79.43,101.016,7.338,39.785,49.689,104.267,169.779,49.893,18.287-8.28,44.408-11.439,65.536-5.89" transform="translate(-32.976 -5.02)" fill="#edf1fb"/>
      <path id="Path_2801" data-name="Path 2801" d="M132.5,240.429a8.566,8.566,0,1,1-8.245-8.876,8.566,8.566,0,0,1,8.245,8.876" transform="translate(-65.958 -132.372)" fill="#edf1fb"/>
      <path id="Path_2802" data-name="Path 2802" d="M897.2,72.466a8.566,8.566,0,1,1-8.245-8.876,8.566,8.566,0,0,1,8.245,8.876" transform="translate(-503.128 -36.35)" fill="#edf1fb"/>
      <path id="Path_2803" data-name="Path 2803" d="M548.069,651.93a11.35,11.35,0,1,1-10.924-11.76,11.351,11.351,0,0,1,10.924,11.76" transform="translate(-300.35 -365.972)" fill="#edf1fb"/>
    </g>
  </g>
  <g id="Group_5046" data-name="Group 5046">
    <g id="Group_5045" data-name="Group 5045" clip-path="url(#clip-path)">
      <path id="Path_2804" data-name="Path 2804" d="M478.325,362.929q-11.48-.423-19.435-4.115a35.2,35.2,0,0,1-12.91-9.864,40.009,40.009,0,0,1-7.25-14.107A64.357,64.357,0,0,1,436.275,318q0-4.37.112-9.627t.39-10.588q.276-5.332.606-9.852a56.451,56.451,0,0,1,3.688-16.618,39.747,39.747,0,0,1,8.5-13.364,36.873,36.873,0,0,1,13.676-8.723,49.527,49.527,0,0,1,19.362-2.686q11.313.417,19.273,4.109a36.926,36.926,0,0,1,13,9.706,38.8,38.8,0,0,1,7.418,13.951,58.355,58.355,0,0,1,2.374,16.841q.155,4.539-.04,9.872t-.39,10.589q-.193,5.255-.678,9.606a60.275,60.275,0,0,1-3.526,16.624,40.1,40.1,0,0,1-8.269,13.536,35.136,35.136,0,0,1-13.682,8.884q-8.29,3.094-19.766,2.671m.685-18.59q10.506.387,15.691-6.3t5.78-18.483q.495-4.675.672-9.445t.354-9.618q.179-4.849.016-9.226.26-11.482-4.41-18.7t-15.179-7.6q-10.346-.38-15.535,6.469t-5.936,18.316q-.161,4.365-.42,9.211t-.354,9.618q-.1,4.772-.268,9.459-.112,11.814,4.647,18.867t14.942,7.43" transform="translate(-249.413 -140.916)" fill="#2e3154"/>
      <path id="Path_2805" data-name="Path 2805" d="M767.092,373.191a55.189,55.189,0,0,0,17.4,6.825c6.18,1.359,12.44,2.139,18.7,2.978,3.031.406,6.059.838,9.059,1.437l-1.451-.292a62.514,62.514,0,0,1,15.58,5.093l-1.279-.641a36.747,36.747,0,0,1,7.757,5.142l-1.059-.934a28.248,28.248,0,0,1,4.7,5.332l-.789-1.171a27.165,27.165,0,0,1,3.011,6.085l-.469-1.351a37.508,37.508,0,0,1,1.835,9.616l-.1-1.477a64.079,64.079,0,0,1,0,7.717,5.714,5.714,0,0,0,1.359,4A5.519,5.519,0,0,0,851,418.267c.35-6.27.107-12.818-1.933-18.809a35.1,35.1,0,0,0-2.1-5.117,35.792,35.792,0,0,0-2.734-4.295,33.79,33.79,0,0,0-5.811-5.988,46.026,46.026,0,0,0-14.149-7.678,86.588,86.588,0,0,0-16-3.785c-6.681-1.013-13.422-1.647-20.054-2.975l1.451.293a58.01,58.01,0,0,1-14.406-4.676l1.279.641q-1.68-.846-3.278-1.837a5.8,5.8,0,0,0-4.207-.832,5.63,5.63,0,0,0-3.456,2.316,5.519,5.519,0,0,0,1.485,7.664" transform="translate(-437.137 -207.582)" fill="#5a6793"/>
      <path id="Path_2806" data-name="Path 2806" d="M750.831,372.591q-11.363-1.69-18.86-6.24a35.208,35.208,0,0,1-11.74-11.233,40.01,40.01,0,0,1-5.645-14.822,64.368,64.368,0,0,1-.577-17.013q.481-4.344,1.176-9.556t1.559-10.48q.865-5.268,1.692-9.724a56.47,56.47,0,0,1,5.5-16.108,39.763,39.763,0,0,1,9.931-12.341,36.876,36.876,0,0,1,14.557-7.156,49.53,49.53,0,0,1,19.54-.528q11.2,1.666,18.7,6.216a36.928,36.928,0,0,1,11.843,11.084,38.8,38.8,0,0,1,5.829,14.686,58.356,58.356,0,0,1,.5,17q-.348,4.529-1.132,9.808l-1.56,10.48q-.774,5.2-1.736,9.473a60.283,60.283,0,0,1-5.344,16.132,40.1,40.1,0,0,1-9.715,12.537,35.146,35.146,0,0,1-14.581,7.316q-8.581,2.158-19.94.468m2.737-18.4q10.4,1.547,16.292-4.527t7.789-17.73q1.009-4.59,1.712-9.312l1.416-9.52q.714-4.8,1.036-9.168,1.528-11.383-2.315-19.069t-14.245-9.233q-10.242-1.524-16.156,4.711t-7.926,17.546q-.642,4.32-1.437,9.108t-1.416,9.52q-.623,4.732-1.312,9.371-1.419,11.729,2.531,19.266t14.029,9.038" transform="translate(-408.014 -146.743)" fill="#2e3154"/>
      <path id="Path_2807" data-name="Path 2807" d="M613.307,211.333l-33.249,51.333,26.859,17.4,0,0c.058.039.116.078.174.116a30.58,30.58,0,1,0,33.249-51.332l-.177-.112v0Z" transform="translate(-331.611 -120.816)" fill="#bbbed9"/>
      <path id="Path_2808" data-name="Path 2808" d="M622.621,211.959l-35.75,55.192a2.491,2.491,0,0,1-3.445.736l-6.085-3.941a2.491,2.491,0,0,1-.737-3.445l35.75-55.192a2.49,2.49,0,0,1,3.445-.736l6.085,3.941a2.491,2.491,0,0,1,.736,3.445" transform="translate(-329.408 -116.723)" fill="#9093af"/>
      <path id="Path_2809" data-name="Path 2809" d="M731.7,313.156,713.856,340.7a2.039,2.039,0,0,0,.6,2.82l1.9,1.229a2.039,2.039,0,0,0,2.82-.6l4.045-6.245,1.773,1.149-2.6,4.021a2.039,2.039,0,0,0,.6,2.82l1.9,1.229a2.039,2.039,0,0,0,2.82-.6l2.6-4.021,1.774,1.148-1.386,2.139a2.039,2.039,0,0,0,.6,2.819l1.9,1.229a2.039,2.039,0,0,0,2.82-.6L748.546,329.9a2.038,2.038,0,0,0-.6-2.819l-1.9-1.229a2.039,2.039,0,0,0-2.82.6l-1.385,2.139-1.774-1.148,2.6-4.021a2.039,2.039,0,0,0-.6-2.819l-1.9-1.229a2.038,2.038,0,0,0-2.819.6l-2.6,4.021-1.773-1.149,4.045-6.245a2.039,2.039,0,0,0-.6-2.82l-1.9-1.229a2.038,2.038,0,0,0-2.82.6" transform="translate(-407.914 -178.495)" fill="#9093af"/>
      <path id="Path_2810" data-name="Path 2810" d="M237.928,367.4q-13.832,1.507-23.817-2.044t-15.7-10.413a30.346,30.346,0,0,1-6.943-15.19,2.519,2.519,0,0,1,.631-2.428,3.758,3.758,0,0,1,2.4-1.156l14.955-1.629a5.724,5.724,0,0,1,3.054.4,4.626,4.626,0,0,1,2.121,2.291,20.346,20.346,0,0,0,5.441,7.381,18.475,18.475,0,0,0,7.406,3.749,23.951,23.951,0,0,0,8.439.545,23.678,23.678,0,0,0,10.279-3.479,18.537,18.537,0,0,0,6.877-7.827,21.376,21.376,0,0,0,1.651-11.734,19.034,19.034,0,0,0-3.855-9.993,19.337,19.337,0,0,0-8.222-6.02,23.14,23.14,0,0,0-11.126-1.311,20.809,20.809,0,0,0-7.274,1.931,22.189,22.189,0,0,0-4.624,3.108q-1.855,1.666-3.258,2.958a5.71,5.71,0,0,1-3.335,1.5l-14.794,1.611a3.59,3.59,0,0,1-3.923-3.152l-.362-55.611a4.406,4.406,0,0,1,4.03-4.832l60.465-6.586a3.866,3.866,0,0,1,4.28,3.439l1.174,10.774a3.867,3.867,0,0,1-3.439,4.28l-46.474,5.062.282,26.492a37.483,37.483,0,0,1,7.316-4.54q4.632-2.292,13.155-3.223a43.792,43.792,0,0,1,14.986.89,38.905,38.905,0,0,1,13.251,5.879,34.43,34.43,0,0,1,9.847,10.481,35.542,35.542,0,0,1,4.791,14.855,37.757,37.757,0,0,1-3.243,21.018,37,37,0,0,1-13.806,15.172q-9.286,5.893-22.631,7.346" transform="translate(-109.415 -142.608)" fill="#2e3154"/>
      <path id="Path_2811" data-name="Path 2811" d="M112.492,43.17c-11.467-9.36-21.649-20.2-33.676-28.889A86.41,86.41,0,0,0,60.425,4.068,54.158,54.158,0,0,0,40.416,0a48.727,48.727,0,0,0-9.757,1.04,45.131,45.131,0,0,0-9.374,3.14A38.9,38.9,0,0,0,13.16,9.239,34.219,34.219,0,0,0,1.783,26.23,42.591,42.591,0,0,0,.01,37.593a40.361,40.361,0,0,0,.443,6.621,23.328,23.328,0,0,0,1.193,4.949,25.61,25.61,0,0,0,2.848,5.685,38.072,38.072,0,0,0,3.979,4.865,67.017,67.017,0,0,0,8.359,7.114,65.908,65.908,0,0,0,8.157,5.15A71.392,71.392,0,0,0,44.459,79.05c1.981.4,3.979.678,5.983.937a5.654,5.654,0,0,0,4.02-1.666,5.685,5.685,0,0,0,0-8.04l-1.15-.889a5.661,5.661,0,0,0-2.87-.777l-.391-.051,1.512.2A66.209,66.209,0,0,1,34.885,64.21l1.358.573a66.805,66.805,0,0,1-14.771-8.607l1.15.889a47.216,47.216,0,0,1-8.366-7.974l.889,1.151a21.671,21.671,0,0,1-2.794-4.671l.574,1.358a22.781,22.781,0,0,1-1.506-5.738l.2,1.511a36.271,36.271,0,0,1,.09-9.266l-.2,1.512a34.748,34.748,0,0,1,2.3-8.625l-.574,1.358a29.123,29.123,0,0,1,3.735-6.439l-.889,1.15a29.913,29.913,0,0,1,5.252-5.216l-1.151.889a34.6,34.6,0,0,1,7.627-4.409l-1.358.573a40.006,40.006,0,0,1,9.96-2.691l-1.512.2a42.219,42.219,0,0,1,11.092.009l-1.512-.2a55.042,55.042,0,0,1,13.85,3.866l-1.358-.574A86.7,86.7,0,0,1,75.991,26.278l-1.151-.889C82.92,31.639,90.222,38.8,97.853,45.572c2.164,1.921,4.356,3.809,6.6,5.638a6.133,6.133,0,0,0,4.021,1.665,5.784,5.784,0,0,0,4.02-1.665,5.72,5.72,0,0,0,1.665-4.02,5.545,5.545,0,0,0-1.665-4.021" transform="translate(0 0.001)" fill="#5a6793"/>
      <path id="Path_2812" data-name="Path 2812" d="M432.822,143.911l1.935-4.929a4.284,4.284,0,0,1,5.552-2.423l16.464,6.462a4.283,4.283,0,0,1,2.422,5.552l-1.935,4.93a4.284,4.284,0,0,1-5.552,2.422l-16.465-6.462a4.283,4.283,0,0,1-2.422-5.552" transform="translate(-247.269 -77.899)" fill="#5a6793"/>
      <path id="Path_2813" data-name="Path 2813" d="M408.278,206.448l1.935-4.929a4.283,4.283,0,0,1,5.552-2.422l16.464,6.462a4.283,4.283,0,0,1,2.422,5.552l-1.935,4.93a4.283,4.283,0,0,1-5.552,2.422L410.7,212a4.283,4.283,0,0,1-2.422-5.552" transform="translate(-233.237 -113.651)" fill="#5a6793"/>
      <path id="Path_2814" data-name="Path 2814" d="M337.6,154.122l23.021-58.653-30.69-12.045v0c-.067-.027-.133-.055-.2-.081A31.5,31.5,0,0,0,306.712,142c.067.027.134.051.2.077v0Z" transform="translate(-163.908 -46.397)" fill="#bbbed9"/>
      <path id="Path_2815" data-name="Path 2815" d="M375.827,159.6l24.807-63.2a2.491,2.491,0,0,1,3.229-1.409l7.093,2.784A2.491,2.491,0,0,1,412.365,101l-24.807,63.2a2.491,2.491,0,0,1-3.229,1.409l-7.093-2.784a2.491,2.491,0,0,1-1.409-3.229" transform="translate(-214.756 -54.205)" fill="#9093af"/>
      <path id="Path_2816" data-name="Path 2816" d="M257.666,118.444,270.02,86.967a2.1,2.1,0,0,0-1.187-2.723l-2.169-.851a2.1,2.1,0,0,0-2.722,1.187l-2.8,7.137-2.026-.8,1.8-4.595A2.1,2.1,0,0,0,259.73,83.6l-2.169-.851a2.1,2.1,0,0,0-2.722,1.188l-1.8,4.595-2.026-.8.959-2.444a2.1,2.1,0,0,0-1.188-2.722l-2.169-.851a2.1,2.1,0,0,0-2.722,1.188L237.219,105a2.1,2.1,0,0,0,1.188,2.723l2.169.851a2.1,2.1,0,0,0,2.722-1.188l.959-2.444,2.026.8-1.8,4.594a2.1,2.1,0,0,0,1.188,2.723l2.168.851a2.1,2.1,0,0,0,2.722-1.188l1.8-4.595,2.026.8-2.8,7.136a2.1,2.1,0,0,0,1.188,2.722l2.169.851a2.1,2.1,0,0,0,2.722-1.187" transform="translate(-135.532 -46.637)" fill="#9093af"/>
      <path id="Path_2817" data-name="Path 2817" d="M690.017,257.844a38.316,38.316,0,0,1,5.076,3.224c1.566,1.291,3.125,2.6,4.647,3.943,2.93,2.589,5.8,5.462,7.146,9.219a17.3,17.3,0,0,1,.967,6.347,1.286,1.286,0,0,0,2.57,0,19.029,19.029,0,0,0-3.627-11.866c-2.6-3.505-6.046-6.22-9.356-9.012a43.17,43.17,0,0,0-6.127-4.074,1.286,1.286,0,0,0-1.3,2.22" transform="translate(-394.12 -146.03)" fill="#edf1fb"/>
      <path id="Path_2818" data-name="Path 2818" d="M338.555,101.029A16.326,16.326,0,0,1,347.39,98.2a36.486,36.486,0,0,1,10.45,1.728,55.857,55.857,0,0,1,5.75,1.989,1.293,1.293,0,0,0,1.581-.9,1.318,1.318,0,0,0-.9-1.58,55.545,55.545,0,0,0-10.685-3.154,23.7,23.7,0,0,0-11.043.064,18.8,18.8,0,0,0-5.286,2.46,1.317,1.317,0,0,0-.461,1.759,1.3,1.3,0,0,0,1.758.461" transform="translate(-192.444 -54.689)" fill="#edf1fb"/>
    </g>
  </g>
</svg>
