<svg id="Group_11402" data-name="Group 11402" xmlns="http://www.w3.org/2000/svg" xmlns:xlink="http://www.w3.org/1999/xlink" width="369.679" height="356.401" viewBox="0 0 369.679 356.401">
  <defs>
    <clipPath id="clip-path">
      <rect id="Rectangle_2371" data-name="Rectangle 2371" width="369.679" height="356.401" fill="none"/>
    </clipPath>
    <clipPath id="clip-path-3">
      <rect id="Rectangle_2356" data-name="Rectangle 2356" width="108.959" height="25.995" fill="none"/>
    </clipPath>
    <clipPath id="clip-path-4">
      <rect id="Rectangle_2357" data-name="Rectangle 2357" width="108.902" height="30.641" fill="none"/>
    </clipPath>
    <clipPath id="clip-path-5">
      <rect id="Rectangle_2358" data-name="Rectangle 2358" width="40.546" height="45.892" fill="none"/>
    </clipPath>
    <clipPath id="clip-path-6">
      <rect id="Rectangle_2359" data-name="Rectangle 2359" width="21.434" height="20.186" fill="none"/>
    </clipPath>
    <clipPath id="clip-path-7">
      <rect id="Rectangle_2362" data-name="Rectangle 2362" width="91.782" height="80.554" fill="none"/>
    </clipPath>
    <clipPath id="clip-path-8">
      <rect id="Rectangle_2364" data-name="Rectangle 2364" width="17.705" height="16.03" fill="none"/>
    </clipPath>
    <clipPath id="clip-path-9">
      <rect id="Rectangle_2366" data-name="Rectangle 2366" width="99.469" height="89.439" fill="none"/>
    </clipPath>
    <clipPath id="clip-path-10">
      <rect id="Rectangle_2365" data-name="Rectangle 2365" width="17.799" height="116.128" transform="matrix(0.654, -0.756, 0.756, 0.654, 0, 13.461)" fill="none"/>
    </clipPath>
    <clipPath id="clip-path-11">
      <path id="Path_7806" data-name="Path 7806" d="M745.317,309.312c-1.562,2.8-2.046,6.521-2.525,9.633-.16,1.041-.883,12.619-.609,12.573a64.047,64.047,0,0,1,14.4-.792l-1.141-13.861c-.288-3.475-.811-7.742-4.378-9.413-.113-.065-.229-.124-.348-.178a4.079,4.079,0,0,0-5.4,2.038" transform="translate(-742.122 -306.91)" fill="none"/>
    </clipPath>
    <clipPath id="clip-path-13">
      <rect id="Rectangle_2368" data-name="Rectangle 2368" width="1.005" height="8.837" fill="none"/>
    </clipPath>
    <clipPath id="clip-path-14">
      <rect id="Rectangle_2369" data-name="Rectangle 2369" width="12.79" height="1.063" fill="none"/>
    </clipPath>
  </defs>
  <g id="Group_11401" data-name="Group 11401" clip-path="url(#clip-path)">
    <g id="Group_11390" data-name="Group 11390">
      <g id="Group_11389" data-name="Group 11389" clip-path="url(#clip-path)">
        <g id="Group_11368" data-name="Group 11368" transform="translate(247.437 327.198)" opacity="0.19" style="isolation: isolate">
          <g id="Group_11367" data-name="Group 11367">
            <g id="Group_11366" data-name="Group 11366" clip-path="url(#clip-path-3)">
              <path id="Path_7741" data-name="Path 7741" d="M659.065,741.807c-11.385-3.464-29.585-1.754-41.3,3.786a14.592,14.592,0,0,0-7.792-4.689c-11.723-3.569-30.681-1.648-42.332,4.29s-11.6,13.647.125,17.213c11.385,3.464,29.583,1.754,41.3-3.785a14.587,14.587,0,0,0,7.791,4.689c11.726,3.569,30.681,1.647,42.335-4.29s11.6-13.643-.127-17.213" transform="translate(-558.937 -739.109)" fill="#3457b8"/>
            </g>
          </g>
        </g>
        <g id="Group_11371" data-name="Group 11371" transform="translate(0 325.761)" opacity="0.19" style="isolation: isolate">
          <g id="Group_11370" data-name="Group 11370">
            <g id="Group_11369" data-name="Group 11369" clip-path="url(#clip-path-4)">
              <path id="Path_7742" data-name="Path 7742" d="M100.969,746.084c-10.923-4.723-29.2-5.072-41.464-.886a14.6,14.6,0,0,0-7.215-5.536c-11.247-4.865-30.3-5.089-42.546-.5S-3.318,751.416,7.932,756.28c10.923,4.723,29.2,5.072,41.464.886A14.592,14.592,0,0,0,56.61,762.7c11.25,4.865,30.3,5.089,42.549.5s13.058-12.252,1.81-17.118" transform="translate(0 -735.862)" fill="#3457b8"/>
            </g>
          </g>
        </g>
        <path id="Path_7743" data-name="Path 7743" d="M246.861,96.852H361.412a34.338,34.338,0,0,1,34.337,34.337v170.4a34.337,34.337,0,0,1-34.337,34.335H246.861a34.337,34.337,0,0,1-34.337-34.335v-170.4a34.337,34.337,0,0,1,34.337-34.337" transform="translate(-118.441 -53.976)" fill="#5a6793"/>
        <path id="Path_7744" data-name="Path 7744" d="M222.06,409.988H386.212a9.564,9.564,0,0,0,9.536-9.536V358.427L212.524,229.738V400.452a9.564,9.564,0,0,0,9.536,9.536" transform="translate(-118.441 -128.035)" fill="#2e3154"/>
        <path id="Path_7745" data-name="Path 7745" d="M247.432,127.239H394.281a4.905,4.905,0,0,1,4.905,4.905v202.7a4.905,4.905,0,0,1-4.905,4.905H247.432a4.905,4.905,0,0,1-4.906-4.905v-202.7a4.905,4.905,0,0,1,4.906-4.905" transform="translate(-135.162 -70.911)" fill="#fff"/>
        <path id="Path_7746" data-name="Path 7746" d="M247.432,126.855H394.281a4.906,4.906,0,0,1,4.905,4.906V135.4a4.905,4.905,0,0,1-4.905,4.905H247.432a4.905,4.905,0,0,1-4.906-4.905v-3.641a4.906,4.906,0,0,1,4.906-4.906" transform="translate(-135.162 -70.697)" fill="#b7c6e7"/>
        <path id="Path_7747" data-name="Path 7747" d="M400.007,105.388H333.323a7.3,7.3,0,0,1-7.277-7.277l-1.324-8.439A7.3,7.3,0,0,1,332,82.394H401.33a7.3,7.3,0,0,1,7.278,7.277l-1.324,8.439a7.3,7.3,0,0,1-7.277,7.277" transform="translate(-180.97 -45.919)" fill="#2e3154"/>
        <path id="Path_7748" data-name="Path 7748" d="M404.1,28.893a12.239,12.239,0,0,0-12.2,12.2V56.843a12.2,12.2,0,0,0,24.407,0V41.1a12.24,12.24,0,0,0-12.2-12.2m0,18.221a5.858,5.858,0,1,1,.058,0Z" transform="translate(-218.409 -16.102)" fill="#2e3154"/>
        <path id="Path_7749" data-name="Path 7749" d="M403.631,46.8a5.877,5.877,0,0,1,10.121-4.074l1.46-1.46c-.027-.028-.049-.057-.077-.085A7.946,7.946,0,0,0,403.9,52.421c.028.027.057.05.085.077l1.46-1.46a5.856,5.856,0,0,1-1.812-4.234" transform="translate(-223.822 -21.678)" fill="#2e3154"/>
        <path id="Path_7750" data-name="Path 7750" d="M418.2,44.254l-1.46,1.46a5.876,5.876,0,0,1-8.308,8.308l-1.46,1.46a7.941,7.941,0,1,0,11.23-11.23Z" transform="translate(-226.809 -24.662)" fill="#2e3154"/>
        <path id="Path_7751" data-name="Path 7751" d="M408.86,85.414a7.209,7.209,0,0,1,1.343,4.178l-1.324,8.439a7.3,7.3,0,0,1-7.277,7.277H334.913a7.21,7.21,0,0,1-4.179-1.342,7.277,7.277,0,0,0,5.938,3.1h66.684a7.3,7.3,0,0,0,7.278-7.277l1.323-8.439a7.277,7.277,0,0,0-3.1-5.939" transform="translate(-184.321 -47.602)" fill="#2e2e2e"/>
        <path id="Path_7752" data-name="Path 7752" d="M292.416,223.478H275.564a2.256,2.256,0,0,1-2.255-2.255V204.373a2.257,2.257,0,0,1,2.255-2.256h16.852a2.257,2.257,0,0,1,2.255,2.256v16.851a2.256,2.256,0,0,1-2.255,2.255m-16.852-20a.9.9,0,0,0-.892.893v16.851a.9.9,0,0,0,.892.893h16.852a.9.9,0,0,0,.893-.893V204.373a.9.9,0,0,0-.893-.893Z" transform="translate(-152.317 -112.641)" fill="#c6c6c6"/>
        <path id="Path_7753" data-name="Path 7753" d="M466.615,206.4H390.554a1.362,1.362,0,1,1-.01-2.724h76.07a1.362,1.362,0,0,1,0,2.724Z" transform="translate(-216.897 -113.51)" fill="#dadada"/>
        <path id="Path_7754" data-name="Path 7754" d="M357.058,206.4H341.845a1.362,1.362,0,0,1,0-2.724h15.212a1.362,1.362,0,1,1,.009,2.724Z" transform="translate(-189.757 -113.51)" fill="#dadada"/>
        <path id="Path_7755" data-name="Path 7755" d="M536.934,245.38H516.726a1.362,1.362,0,1,1,0-2.725h20.207a1.362,1.362,0,0,1,0,2.725" transform="translate(-287.216 -135.233)" fill="#dadada"/>
        <path id="Path_7756" data-name="Path 7756" d="M477.358,245.38H457.492a1.362,1.362,0,1,1,0-2.725h19.866a1.362,1.362,0,0,1,0,2.725" transform="translate(-254.204 -135.233)" fill="#dadada"/>
        <path id="Path_7757" data-name="Path 7757" d="M386.793,245.38H341.838a1.362,1.362,0,0,1,0-2.725h44.955a1.362,1.362,0,1,1,0,2.725" transform="translate(-189.75 -135.233)" fill="#dadada"/>
        <path id="Path_7758" data-name="Path 7758" d="M439.468,225.892H341.839a1.363,1.363,0,0,1,0-2.725h97.629a1.363,1.363,0,0,1,0,2.725Z" transform="translate(-189.75 -124.373)" fill="#dadada"/>
        <path id="Path_7759" data-name="Path 7759" d="M292.416,315.027H275.564a2.258,2.258,0,0,1-2.255-2.256V295.921a2.257,2.257,0,0,1,2.255-2.255h16.852a2.257,2.257,0,0,1,2.255,2.255v16.851a2.258,2.258,0,0,1-2.255,2.256m-16.852-20a.9.9,0,0,0-.892.893v16.851a.9.9,0,0,0,.892.893h16.852a.9.9,0,0,0,.893-.893V295.921a.9.9,0,0,0-.893-.893Z" transform="translate(-152.317 -163.662)" fill="#c6c6c6"/>
        <path id="Path_7760" data-name="Path 7760" d="M291.384,308.235a2.724,2.724,0,0,1-1.927-.8l-6.648-6.648a2.724,2.724,0,1,1,3.853-3.853l4.312,4.313,8.3-12.282a2.725,2.725,0,1,1,4.514,3.055l-10.152,15.016a2.731,2.731,0,0,1-2,1.187c-.085.006-.171.01-.257.01" transform="translate(-157.167 -160.376)" fill="#2a2ab9"/>
        <path id="Path_7761" data-name="Path 7761" d="M466.615,297.945H390.554a1.362,1.362,0,1,1-.01-2.724h76.07a1.362,1.362,0,0,1,0,2.724Z" transform="translate(-216.897 -164.529)" fill="#dadada"/>
        <path id="Path_7762" data-name="Path 7762" d="M357.058,297.945H341.845a1.362,1.362,0,0,1,0-2.724h15.212a1.362,1.362,0,1,1,.009,2.724Z" transform="translate(-189.757 -164.529)" fill="#dadada"/>
        <path id="Path_7763" data-name="Path 7763" d="M536.929,336.926H516.722a1.362,1.362,0,0,1-.01-2.724h20.217a1.362,1.362,0,0,1,0,2.724" transform="translate(-287.211 -186.253)" fill="#dadada"/>
        <path id="Path_7764" data-name="Path 7764" d="M477.352,336.926H457.486a1.362,1.362,0,1,1-.009-2.724h19.876a1.362,1.362,0,0,1,0,2.724" transform="translate(-254.199 -186.253)" fill="#dadada"/>
        <path id="Path_7765" data-name="Path 7765" d="M386.8,336.926H341.845a1.362,1.362,0,0,1,0-2.724H386.8a1.362,1.362,0,0,1,.009,2.724Z" transform="translate(-189.757 -186.253)" fill="#dadada"/>
        <path id="Path_7766" data-name="Path 7766" d="M439.474,317.44H341.845a1.362,1.362,0,0,1,0-2.724h97.629a1.362,1.362,0,0,1,0,2.724Z" transform="translate(-189.757 -175.394)" fill="#dadada"/>
        <path id="Path_7767" data-name="Path 7767" d="M292.416,406.959H275.564a2.257,2.257,0,0,1-2.255-2.255V387.853a2.256,2.256,0,0,1,2.255-2.255h16.852a2.256,2.256,0,0,1,2.255,2.255V404.7a2.257,2.257,0,0,1-2.255,2.255m-16.852-20a.894.894,0,0,0-.892.893V404.7a.9.9,0,0,0,.892.893h16.852a.9.9,0,0,0,.893-.893V387.853a.893.893,0,0,0-.893-.893Z" transform="translate(-152.317 -214.897)" fill="#c6c6c6"/>
        <path id="Path_7768" data-name="Path 7768" d="M291.384,400.166a2.721,2.721,0,0,1-1.927-.8l-6.648-6.648a2.724,2.724,0,1,1,3.853-3.853l4.312,4.313,8.3-12.282a2.725,2.725,0,1,1,4.514,3.055l-10.152,15.017a2.731,2.731,0,0,1-2,1.187c-.085.007-.171.011-.257.011" transform="translate(-157.167 -211.609)" fill="#2a2ab9"/>
        <path id="Path_7769" data-name="Path 7769" d="M466.615,389.881H390.554a1.362,1.362,0,1,1-.01-2.724h76.07a1.362,1.362,0,0,1,0,2.724Z" transform="translate(-216.897 -215.766)" fill="#dadada"/>
        <path id="Path_7770" data-name="Path 7770" d="M357.058,389.881H341.845a1.362,1.362,0,0,1,0-2.724h15.212a1.362,1.362,0,1,1,.009,2.724Z" transform="translate(-189.757 -215.765)" fill="#dadada"/>
        <path id="Path_7771" data-name="Path 7771" d="M536.934,428.86H516.726a1.362,1.362,0,1,1,0-2.725h20.207a1.362,1.362,0,0,1,0,2.725" transform="translate(-287.216 -237.488)" fill="#dadada"/>
        <path id="Path_7772" data-name="Path 7772" d="M477.358,428.86H457.492a1.362,1.362,0,1,1,0-2.725h19.866a1.362,1.362,0,0,1,0,2.725" transform="translate(-254.204 -237.488)" fill="#dadada"/>
        <path id="Path_7773" data-name="Path 7773" d="M386.793,428.86H341.838a1.362,1.362,0,0,1,0-2.725h44.955a1.362,1.362,0,1,1,0,2.725" transform="translate(-189.75 -237.488)" fill="#dadada"/>
        <path id="Path_7774" data-name="Path 7774" d="M439.468,409.381H341.839a1.362,1.362,0,0,1,0-2.725h97.629a1.362,1.362,0,0,1,0,2.725Z" transform="translate(-189.75 -226.632)" fill="#dadada"/>
        <path id="Path_7775" data-name="Path 7775" d="M292.416,498.889H275.564a2.257,2.257,0,0,1-2.255-2.255V479.783a2.256,2.256,0,0,1,2.255-2.255h16.852a2.256,2.256,0,0,1,2.255,2.255v16.851a2.257,2.257,0,0,1-2.255,2.255m-16.852-20a.894.894,0,0,0-.892.893v16.851a.9.9,0,0,0,.892.893h16.852a.9.9,0,0,0,.893-.893V479.783a.894.894,0,0,0-.893-.893Z" transform="translate(-152.317 -266.13)" fill="#c6c6c6"/>
        <path id="Path_7776" data-name="Path 7776" d="M291.384,492.1a2.724,2.724,0,0,1-1.927-.8l-6.648-6.648a2.724,2.724,0,1,1,3.853-3.852l4.312,4.312,8.3-12.282a2.725,2.725,0,1,1,4.514,3.055L293.638,490.9a2.731,2.731,0,0,1-2,1.187c-.085.006-.171.01-.257.01" transform="translate(-157.167 -262.844)" fill="#2a2ab9"/>
        <path id="Path_7777" data-name="Path 7777" d="M466.615,481.814H390.554a1.362,1.362,0,1,1-.01-2.724h76.07a1.362,1.362,0,0,1,0,2.724Z" transform="translate(-216.897 -267)" fill="#dadada"/>
        <path id="Path_7778" data-name="Path 7778" d="M357.058,481.814H341.845a1.362,1.362,0,0,1,0-2.724h15.212a1.362,1.362,0,1,1,.009,2.724Z" transform="translate(-189.757 -267)" fill="#dadada"/>
        <path id="Path_7779" data-name="Path 7779" d="M536.934,520.792H516.726a1.362,1.362,0,1,1,0-2.725h20.207a1.362,1.362,0,0,1,0,2.725" transform="translate(-287.216 -288.723)" fill="#dadada"/>
        <path id="Path_7780" data-name="Path 7780" d="M477.358,520.792H457.492a1.362,1.362,0,1,1,0-2.725h19.866a1.362,1.362,0,0,1,0,2.725" transform="translate(-254.204 -288.723)" fill="#dadada"/>
        <path id="Path_7781" data-name="Path 7781" d="M386.793,520.792H341.838a1.362,1.362,0,0,1,0-2.725h44.955a1.362,1.362,0,1,1,0,2.725" transform="translate(-189.75 -288.723)" fill="#dadada"/>
        <path id="Path_7782" data-name="Path 7782" d="M439.474,501.3H341.845a1.362,1.362,0,0,1,0-2.724h97.629a1.362,1.362,0,0,1,0,2.724Z" transform="translate(-189.757 -277.863)" fill="#dadada"/>
        <path id="Path_7783" data-name="Path 7783" d="M268.209,230.762a2.724,2.724,0,0,1-1.927-.8l-6.312-6.312a2.724,2.724,0,1,1,3.853-3.853l3.978,3.978,7.789-11.521a2.725,2.725,0,1,1,4.514,3.055l-9.637,14.256a2.73,2.73,0,0,1-2,1.186c-.087.006-.174.009-.259.009" transform="translate(-144.438 -117.624)" fill="#2a2ab9"/>
        <path id="Path_7784" data-name="Path 7784" d="M731.467,737.389c-1.853,3.229-7.7,5.284-11.269,7.03-1.823.745-9.059,2.6-9.8,3.625-4.782,6.185,16.85,4.2,19.5,4.066,8.579-.559,15.7-.366,13.144-8.885-2.373-7.923-1.131-9.618-8.684-7.672" transform="translate(-395.524 -409.519)" fill="#2e2e2e"/>
        <path id="Path_7785" data-name="Path 7785" d="M600.473,745.027c-2.026,2.947-7.784,4.455-11.343,5.851-1.8.57-8.885,1.784-9.67,2.7-5.062,5.546,15.8,5.338,18.347,5.418,8.257.139,15.057.884,13.278-7.477-1.649-7.771-.327-9.295-7.708-8.018" transform="translate(-322.498 -414.135)" fill="#2e2e2e"/>
        <path id="Path_7786" data-name="Path 7786" d="M701.375,387.387a167.107,167.107,0,0,1,2.681,24.137c0,9.72-5.292,54.352-5.292,54.352l22.028,76.933L708.8,546.354l-28.476-80.871-6.772-52.624-.67-22.8Z" transform="translate(-375.004 -215.894)" fill="#414141"/>
        <path id="Path_7787" data-name="Path 7787" d="M676.229,394.034s-.936,20.822-3.32,30.245-20.33,51.066-20.33,51.066l-16.726,77.282-11.039-2.466,7.726-80.316L645.354,418.1l1.138-23.355Z" transform="translate(-348.214 -219.598)" fill="#414141"/>
        <path id="Path_7788" data-name="Path 7788" d="M638.837,351.93a7.667,7.667,0,0,1-3.863,4.024c-2.669.988-6.1-3.145-7.637-4.835a51.2,51.2,0,0,1-5.66-7.841c-1.332-2.168-2.982-4.183-4.164-6.427l-3.289-6.237a15.136,15.136,0,0,1-1.159-2.571,2.3,2.3,0,0,1,.585-2.145c.375-.55,1.03-1.1,1.637-.827a1.613,1.613,0,0,1,.649.719l1.842,3.167c.514.886,1.713,1.861,2.366,1.071.27-.327.24-.8.352-1.21s.574-.815.92-.571a.74.74,0,0,1,.247.417,14.686,14.686,0,0,1,.084,3.524c.1,2.371,1.575,4.447,3.154,6.219,2.239,2.516,5.667,4.6,7.393,7.44.587-4.892,2.4-9.542,4.192-14.131.242-.619.629-1.342,1.289-1.362a1.708,1.708,0,0,1,.738.207c1.648.746,3.539,1.156,4.407,2.775,1,1.866.487,4.051.3,6.02-.329,3.552-1.731,6.738-3.17,9.955-.383.833-.767,1.739-1.218,2.617" transform="translate(-341.629 -181.125)" fill="#f2c39c"/>
        <path id="Path_7789" data-name="Path 7789" d="M638.837,351.93a7.667,7.667,0,0,1-3.863,4.024c-2.669.988-6.1-3.145-7.637-4.835a51.2,51.2,0,0,1-5.66-7.841c-1.332-2.168-2.982-4.183-4.164-6.427l-3.289-6.237a15.136,15.136,0,0,1-1.159-2.571,2.3,2.3,0,0,1,.585-2.145c.375-.55,1.03-1.1,1.637-.827a1.613,1.613,0,0,1,.649.719l1.842,3.167c.514.886,1.713,1.861,2.366,1.071.27-.327.24-.8.352-1.21s.574-.815.92-.571a.74.74,0,0,1,.247.417,14.686,14.686,0,0,1,.084,3.524c.1,2.371,1.575,4.447,3.154,6.219,2.239,2.516,5.667,4.6,7.393,7.44.587-4.892,2.4-9.542,4.192-14.131.242-.619.629-1.342,1.289-1.362a1.708,1.708,0,0,1,.738.207c1.648.746,3.539,1.156,4.407,2.775,1,1.866.487,4.051.3,6.02-.329,3.552-1.731,6.738-3.17,9.955C639.673,350.146,639.288,351.052,638.837,351.93Z" transform="translate(-341.629 -181.125)" fill="none" stroke="#f2c39c" stroke-miterlimit="10" stroke-width="1"/>
        <path id="Path_7790" data-name="Path 7790" d="M699.047,302.761c-2.765-4.506-8.029-6.191-12.958-6.9a35.567,35.567,0,0,0-8.386-.022c-2.538.239-5.57-.106-7.942.726-4.322,1.518-6.308,6.389-7.5,10.353l-3.234,10.745a52.723,52.723,0,0,0,7.734,3.168c.083,3.364.613,6.76.942,10.12.5,5.112.413,10.632-2.217,14.979a.852.852,0,0,0,.256,1.177.835.835,0,0,0,.135.071,55.651,55.651,0,0,0,32.154,2.459,1.451,1.451,0,0,0,1.49-1.926,75.492,75.492,0,0,1-.9-8.247c-.221-6.262,1.12-12.458,1.88-18.677.649-5.343,1.523-13.177-1.455-18.03" transform="translate(-367.28 -164.742)" fill="#9093af"/>
        <g id="Group_11374" data-name="Group 11374" transform="translate(291.749 140.226)" opacity="0.3">
          <g id="Group_11373" data-name="Group 11373">
            <g id="Group_11372" data-name="Group 11372" clip-path="url(#clip-path-5)">
              <path id="Path_7791" data-name="Path 7791" d="M699.475,360.584a1.93,1.93,0,0,0,.048-1.078,75.445,75.445,0,0,1-.9-8.247,4.6,4.6,0,0,1,.042-1.162l-35.759-33.34c-.237.663-.449,1.321-.642,1.955l-3.234,10.745a52.663,52.663,0,0,0,7.734,3.168c.083,3.364.613,6.759.942,10.12q.09.907.148,1.828l20.894,18.076a54.584,54.584,0,0,0,9.286-1.217,1.919,1.919,0,0,0,1.438-.848" transform="translate(-659.032 -316.757)" fill="#b6b6b8"/>
            </g>
          </g>
        </g>
        <path id="Path_7792" data-name="Path 7792" d="M760.993,441.434l-5.211-4.506a8.453,8.453,0,1,1,11.061-12.785l5.211,4.506a8.453,8.453,0,1,1-11.061,12.785" transform="translate(-419.58 -235.236)" fill="#b7c6e7"/>
        <g id="Group_11377" data-name="Group 11377" transform="translate(333.291 188.062)" opacity="0.6">
          <g id="Group_11376" data-name="Group 11376">
            <g id="Group_11375" data-name="Group 11375" clip-path="url(#clip-path-6)">
              <path id="Path_7793" data-name="Path 7793" d="M764.487,438.909l-5.211-4.506a8.454,8.454,0,0,1-2.246-9.592,8.327,8.327,0,0,0-2.108,1.707,8.478,8.478,0,0,0,.861,11.923l5.211,4.506a8.478,8.478,0,0,0,11.924-.862,8.308,8.308,0,0,0,1.388-2.336,8.455,8.455,0,0,1-9.819-.84" transform="translate(-752.872 -424.812)" fill="#b7c6e7"/>
            </g>
          </g>
        </g>
        <rect id="Rectangle_2360" data-name="Rectangle 2360" width="17.799" height="116.128" transform="matrix(0.654, -0.756, 0.756, 0.654, 244.681, 123.103)" fill="#9093af"/>
        <g id="Group_11380" data-name="Group 11380" transform="translate(248.525 114.085)" opacity="0.6" style="isolation: isolate">
          <g id="Group_11379" data-name="Group 11379">
            <g id="Group_11378" data-name="Group 11378" clip-path="url(#clip-path-7)">
              <rect id="Rectangle_2361" data-name="Rectangle 2361" width="6.05" height="116.128" transform="matrix(0.654, -0.756, 0.756, 0.654, -0.002, 4.578)" fill="#bbbed9"/>
            </g>
          </g>
        </g>
        <path id="Path_7794" data-name="Path 7794" d="M530.06,233.071l10.053,19.054,11.6-13.412-20.3-7.207a1.143,1.143,0,0,0-1.352,1.565" transform="translate(-295.351 -128.996)" fill="#faeacd"/>
        <path id="Path_7795" data-name="Path 7795" d="M754.4,436.136l-7.8-6.752L758.866,415.2l7.806,6.753a2.123,2.123,0,0,1,.215,2.985l-9.5,10.979a2.122,2.122,0,0,1-2.986.216" transform="translate(-416.085 -231.396)" fill="#c6c6c7"/>
        <rect id="Rectangle_2363" data-name="Rectangle 2363" width="6.731" height="12.433" transform="matrix(0.654, -0.756, 0.756, 0.654, 334.445, 193.444)" fill="#e3e3e4"/>
        <g id="Group_11383" data-name="Group 11383" transform="translate(234.836 102.681)" opacity="0.7">
          <g id="Group_11382" data-name="Group 11382">
            <g id="Group_11381" data-name="Group 11381" clip-path="url(#clip-path-8)">
              <path id="Path_7796" data-name="Path 7796" d="M548.178,243.4l-16.823-11.454-.882,1.02,13.746,15.01Z" transform="translate(-530.473 -231.947)" fill="#fde9a7"/>
            </g>
          </g>
        </g>
        <path id="Path_7797" data-name="Path 7797" d="M531.415,231.5a1.144,1.144,0,0,0-1.355,1.566l2.756,5.222,4.164-4.814Z" transform="translate(-295.351 -128.995)" fill="#031f3a"/>
        <g id="Group_11388" data-name="Group 11388" transform="translate(244.681 109.642)" opacity="0.5">
          <g id="Group_11387" data-name="Group 11387">
            <g id="Group_11386" data-name="Group 11386" clip-path="url(#clip-path-9)">
              <g id="Group_11385" data-name="Group 11385" transform="translate(-0.001 0.001)">
                <g id="Group_11384" data-name="Group 11384" transform="translate(0 0)" clip-path="url(#clip-path-10)">
                  <path id="Path_7798" data-name="Path 7798" d="M718.312,361.878c.083,2.637,1.409,7.339-2.234,7.969a55.747,55.747,0,0,1-16.417.377c-2.346-.295-4.734-.738-7.05-.27-1.095.223-2.143.646-3.247.823a7.462,7.462,0,0,1-5.906-1.707c-1.063-.919-2.426-2.988-.829-4.072,1.269-.863,5.5.853,6.1-.2.194-.336-.059-.739-.225-1.091a.954.954,0,0,1-.008-.97c.7-.905,2.171.51,2.718.9,2.4,1.728,6.086,1.907,8.957,1.922a25.408,25.408,0,0,0,6.689-.857,10.035,10.035,0,0,0,3.079-1c.8-.622.316-1.4.167-2.323l-1.13-7.048a12.244,12.244,0,0,1-.1-5.063,5.743,5.743,0,0,1,6.673-3.631c1.7.539,2.161,2.815,2.445,4.33.745,3.956.188,7.927.312,11.906" transform="translate(-624.708 -302.19)" fill="#b6b6b8"/>
                  <path id="Path_7799" data-name="Path 7799" d="M610.476,330.964a5.237,5.237,0,0,1,1.4.86c1.3,1.2,2.2,3.376,3.032,4.915.567,1.05,1.11,2.111,1.662,3.169.522,1,1.245,1.934,1.843,2.908,1.636,2.658,4.419,4.154,7.111,5.558a6.421,6.421,0,0,0,1.058.474,3.237,3.237,0,0,0,2.019-.038.556.556,0,0,0,.443-.6,4.407,4.407,0,0,0-.773-2.584,15.41,15.41,0,0,0-1.75-2.106c-1.476-1.6-2.668-3.364-4.243-4.863a13.9,13.9,0,0,1-3.306-4.868c-.981-2.442-3.344-3.988-5.1-5.859a10.861,10.861,0,0,0-7.277-3.374,1.875,1.875,0,0,0-1.784.621,1.751,1.751,0,0,0,.141,1.651,7.72,7.72,0,0,0,2.741,2.875,21.32,21.32,0,0,0,2.787,1.266" transform="translate(-581.664 -290.498)" fill="#b6b6b8"/>
                </g>
              </g>
            </g>
          </g>
        </g>
        <path id="Path_7800" data-name="Path 7800" d="M721.366,366.1c.083,2.637,1.41,7.339-2.234,7.969a55.749,55.749,0,0,1-16.417.377c-2.345-.295-4.735-.738-7.05-.269-1.094.222-2.143.645-3.246.823a7.679,7.679,0,0,1-8.282-5.174c-.193-.636-.213-1.491.38-1.8a1.609,1.609,0,0,1,.968-.055l3.623.547c1.013.152,2.524-.172,2.317-1.175-.09-.416-.474-.688-.723-1.032s-.276-.958.132-1.078a.741.741,0,0,1,.479.069,14.493,14.493,0,0,1,2.8,2.14c1.91,1.407,4.456,1.557,6.828,1.437a39.026,39.026,0,0,0,7.561-1.142c.951-.241,4.5-.367,4.7-1.582a1.755,1.755,0,0,0-.03-.557q-.564-3.525-1.129-7.048a12.243,12.243,0,0,1-.1-5.062,5.742,5.742,0,0,1,6.673-3.631c1.7.538,2.162,2.815,2.446,4.33.739,3.96.182,7.932.306,11.912" transform="translate(-381.207 -194.899)" fill="#f2c39c"/>
        <path id="Path_7801" data-name="Path 7801" d="M721.366,366.1c.083,2.637,1.41,7.339-2.234,7.969a55.749,55.749,0,0,1-16.417.377c-2.345-.295-4.735-.738-7.05-.269-1.094.222-2.143.645-3.246.823a7.679,7.679,0,0,1-8.282-5.174c-.193-.636-.213-1.491.38-1.8a1.609,1.609,0,0,1,.968-.055l3.623.547c1.013.152,2.524-.172,2.317-1.175-.09-.416-.474-.688-.723-1.032s-.276-.958.132-1.078a.741.741,0,0,1,.479.069,14.493,14.493,0,0,1,2.8,2.14c1.91,1.407,4.456,1.557,6.828,1.437a39.026,39.026,0,0,0,7.561-1.142c.951-.241,4.5-.367,4.7-1.582a1.755,1.755,0,0,0-.03-.557q-.564-3.525-1.129-7.048a12.243,12.243,0,0,1-.1-5.062,5.742,5.742,0,0,1,6.673-3.631c1.7.538,2.162,2.815,2.446,4.33C721.8,358.151,721.242,362.122,721.366,366.1Z" transform="translate(-381.207 -194.899)" fill="none" stroke="#f2c39c" stroke-miterlimit="10" stroke-width="1"/>
        <path id="Path_7802" data-name="Path 7802" d="M755.446,316.865l1.141,13.86a64.051,64.051,0,0,0-14.4.792c-.274.046.449-11.531.609-12.573.479-3.111.963-6.834,2.525-9.633a4.083,4.083,0,0,1,5.4-2.038q.178.081.348.178c3.567,1.67,4.091,5.938,4.378,9.413" transform="translate(-413.591 -171.044)" fill="#faeacd"/>
      </g>
    </g>
    <g id="Group_11392" data-name="Group 11392" transform="translate(328.532 135.867)">
      <g id="Group_11391" data-name="Group 11391" clip-path="url(#clip-path-11)">
        <path id="Path_7803" data-name="Path 7803" d="M756.78,334.947a1.217,1.217,0,1,0-1.17-1.17,1.218,1.218,0,0,0,1.17,1.17" transform="translate(-749.639 -321.179)" fill="#f3d0e2"/>
        <path id="Path_7804" data-name="Path 7804" d="M771.4,357.257a1.217,1.217,0,1,0-1.17-1.17,1.217,1.217,0,0,0,1.17,1.17" transform="translate(-757.786 -333.613)" fill="#f3d0e2"/>
        <path id="Path_7805" data-name="Path 7805" d="M766.4,316.869a1.217,1.217,0,1,0-1.17-1.17,1.217,1.217,0,0,0,1.17,1.17" transform="translate(-754.999 -311.104)" fill="#f3d0e2"/>
      </g>
    </g>
    <g id="Group_11400" data-name="Group 11400">
      <g id="Group_11399" data-name="Group 11399" clip-path="url(#clip-path)">
        <path id="Path_7807" data-name="Path 7807" d="M610.5,331.193l.3.366a36.264,36.264,0,0,1,3.863,5.984c.567,1.049,1.112,2.111,1.662,3.168.523,1,1.244,1.934,1.843,2.907.158.257.323.511.483.767l2.074-6.416a15.257,15.257,0,0,1-1.527-2.152c-.6-1.071-.653-2.131-1.534-3.081-1.291-1.393-2.744-2.624-4.043-4.009a8.541,8.541,0,0,0-4.467-2.763c-.478-.111-1.817-.582-2.258-.22-.526.431.331,1.512.624,1.865Z" transform="translate(-338.14 -181.464)" fill="#f2c39c"/>
        <g id="Group_11395" data-name="Group 11395" transform="translate(329.335 151.14)" opacity="0.5" style="isolation: isolate">
          <g id="Group_11394" data-name="Group 11394">
            <g id="Group_11393" data-name="Group 11393" clip-path="url(#clip-path-13)">
              <path id="Path_7808" data-name="Path 7808" d="M744.763,350.248a.172.172,0,0,1-.168-.138,37.763,37.763,0,0,1-.629-8.536.186.186,0,0,1,.18-.163.172.172,0,0,1,.164.178v0a37.314,37.314,0,0,0,.629,8.455.171.171,0,0,1-.136.2l-.04,0" transform="translate(-743.937 -341.411)" fill="#f3cba6"/>
            </g>
          </g>
        </g>
        <g id="Group_11398" data-name="Group 11398" transform="translate(329.584 157.214)" opacity="0.5" style="isolation: isolate">
          <g id="Group_11397" data-name="Group 11397">
            <g id="Group_11396" data-name="Group 11396" clip-path="url(#clip-path-14)">
              <path id="Path_7809" data-name="Path 7809" d="M744.672,356.195a.17.17,0,0,1-.029-.338,49.058,49.058,0,0,1,12.488-.555.171.171,0,0,1,.155.185h0a.179.179,0,0,1-.18.155,48.773,48.773,0,0,0-12.4.55Z" transform="translate(-744.498 -355.132)" fill="#f3cba6"/>
            </g>
          </g>
        </g>
        <path id="Path_7810" data-name="Path 7810" d="M697.535,275c4.226,2.985,3.449,10.429,7.522,12.514,3.095,1.788,9.86.625,10.592-3.215s-13.864-18.511-16.831-8.715" transform="translate(-388.741 -151.738)" fill="#cca183"/>
        <path id="Path_7811" data-name="Path 7811" d="M678.258,242.05c-.111,4.046.137,13.781,3.206,16.9s11.98.986,13.67-6.079" transform="translate(-377.987 -134.896)" fill="#f2c39c"/>
        <path id="Path_7812" data-name="Path 7812" d="M674.506,217.984c1.275,11.636,9.66,14.351,17.574,17.168-2.674,6.033-2.493,12.5,2.045,17.294,2.8,2.769,6.033,2.674,7.554,6.124,1.072,3.527-2.209,8.738-.533,13.094,7.382,15.911,47.632,1.557,38.059-16.3,13.22-4.131,3.211-19.126-5.838-23.142-3.467-1.261-9.859-.627-12.424-2.041-3.016-1.339-3.636-4.947-7.71-7.032-3.544-1.711-3.683.169-7.011-2.972-3.4-3.594-3.651-7.73-9.073-9.585-6.482-2.6-15.814-2.853-19.315,3.787Z" transform="translate(-375.907 -116.418)" fill="#2e3154"/>
        <path id="Path_7813" data-name="Path 7813" d="M154.321,720.511s-1.751,9.339,6.421,13.425,15.175,5.837,15.175,8.756c0,1.825-21.411.8-30.751.26a4.53,4.53,0,0,1-4.27-4.525V720.511Z" transform="translate(-78.522 -401.546)" fill="#2e2e2e"/>
        <path id="Path_7814" data-name="Path 7814" d="M45.239,720.511s-1.751,9.339,6.42,13.425S64.5,739.189,64.5,742.107c0,2.228-21.1,1.054-31.076.374A4.8,4.8,0,0,1,29,737.048l2.235-16.537Z" transform="translate(-16.135 -401.546)" fill="#2e2e2e"/>
        <path id="Path_7815" data-name="Path 7815" d="M257.189,256.482s3.5-8.755,5.837-11.674,8.755-7,10.506-6.42-4.257,5.424-4.67,5.837c-.584.583,2.918,4.669,2.335,7.588s-8.756,9.922-8.756,9.922Z" transform="translate(-143.333 -132.824)" fill="#f2c39c"/>
        <path id="Path_7816" data-name="Path 7816" d="M104.636,275.074v5.837L92.379,279.16l.583-6.42Z" transform="translate(-51.484 -152)" fill="#cca183"/>
        <path id="Path_7817" data-name="Path 7817" d="M109.305,235.822c0,2.334-.583,16.343-.583,16.343a4.66,4.66,0,0,1-3.5,3.5c-2.918.583-7.588-1.751-7.588-1.751l-5.253-16.927Z" transform="translate(-51.484 -131.425)" fill="#f2c39c"/>
        <path id="Path_7818" data-name="Path 7818" d="M28.091,562.689a.741.741,0,0,0,.023-.152c.359-7.911,7.414-45.367,13.441-60.709,5.947-15.136,4.383-59.308,4.12-65.753a.808.808,0,0,1,.754-.841c5.627-.371,39.486-2.379,39.486,2.972,0,5.722,9.538,60.816,9.911,62.973a.784.784,0,0,1,.011.133l.288,63.03a.812.812,0,0,1-.812.816H75.345a.812.812,0,0,1-.812-.812V504.72a.8.8,0,0,0-.154-.475c-.571-.781-2.674-3.7-5.317-7.821l0,0c-3.754,20.628-18.452,61.6-20.312,66.736a.809.809,0,0,1-.763.534H28.878a.812.812,0,0,1-.788-1.009" transform="translate(-15.641 -242.182)" fill="#414141"/>
        <path id="Path_7819" data-name="Path 7819" d="M67.565,493.915c-5.5,20.356-26.043,64.568-28.383,69.577a.807.807,0,0,1-.734.464h-9.5a.812.812,0,0,1-.788-1.009.77.77,0,0,0,.023-.152c.359-7.911,7.414-45.367,13.441-60.71,6.42-16.343,4.085-66.54,4.085-66.54" transform="translate(-15.678 -242.733)" fill="#2e2e2e"/>
        <path id="Path_7820" data-name="Path 7820" d="M87.353,487.989c1.463,4.1,8.383,14.133,9.7,16.031a1.216,1.216,0,0,1,.218.7v59.088a1.228,1.228,0,0,0,1.228,1.228h6.3a1.228,1.228,0,0,0,1.228-1.228V500.421a1.218,1.218,0,0,0-.049-.342c-.965-3.318-15.979-55.025-17.36-64.693a1.223,1.223,0,0,0-1.267-1.046l-17.3.753a1.227,1.227,0,0,0-1.1,1.642c2.574,7.153,13.29,36.933,18.4,51.254" transform="translate(-38.384 -242.061)" fill="#2e2e2e"/>
        <path id="Path_7821" data-name="Path 7821" d="M64.18,451.277h43.552l-.584-1.751-35.384-9.339-8.392,3.5v6.769a.813.813,0,0,0,.808.819" transform="translate(-35.318 -245.319)" fill="#9093af"/>
        <path id="Path_7822" data-name="Path 7822" d="M48.428,352.274s-12.257-2.919-11.674-11.09,12.257-41.441,12.257-41.441Z" transform="translate(-20.472 -167.048)" fill="#9093af"/>
        <path id="Path_7823" data-name="Path 7823" d="M61.9,455.556v-3.5l-1.168.583v2.335Z" transform="translate(-33.847 -251.933)" fill="#2e2e2e"/>
        <path id="Path_7824" data-name="Path 7824" d="M102.006,318.879c30.647,24.03,48.922-28.775,51.107-35.537a1.47,1.47,0,0,0-.2-1.3c-1.433-2.04-6.1-8.554-6.6-7.567-.5,1.01-21.474,22.526-27.161,28.353a1.472,1.472,0,0,1-2.337-.325c-7.478-13.151-23.144-16.934-25.942-18.05a6.017,6.017,0,0,1-3.229-2.816,1.486,1.486,0,0,0-1.1-.8L73.384,278.9a1.468,1.468,0,0,0-1.683,1.375c-.047,1-.316,2.139-1.25,2.451-1.308.437-5.222,1.529-7.117,2.053a1.47,1.47,0,0,0-1.078,1.383L60.6,355.692s.581-2.335,11.671-2.346,33.859,5.219,33.859,5.219Z" transform="translate(-33.773 -152.911)" fill="#bbbed9"/>
        <path id="Path_7825" data-name="Path 7825" d="M85.779,229.69a1.449,1.449,0,0,1-1.757-.177,3.86,3.86,0,0,1-.839-1.094,1.312,1.312,0,0,0-2.335,1.168c.584,1.751,2.335,3.5,2.335,4.669s-1.167,5.253-3.5,5.253S69.759,235.424,66.84,229s-2.335-10.506-1.167-13.425,3.5-9.339,10.506-8.756,7.588,3.5,12.841,2.919,5.837-2.335,6.421-1.751,0,9.923-1.751,12.257-6.421,2.919-7,4.086.583,4.086,0,4.67a5.459,5.459,0,0,1-.907.687" transform="translate(-36.067 -115.243)" fill="#2e2e2e"/>
        <path id="Path_7826" data-name="Path 7826" d="M117.5,113.307a6.862,6.862,0,1,1-6.862-6.862,6.861,6.861,0,0,1,6.862,6.862" transform="translate(-57.837 -59.323)" fill="#edf1fb"/>
        <path id="Path_7827" data-name="Path 7827" d="M305.546,670.04A13.04,13.04,0,1,1,292.506,657a13.04,13.04,0,0,1,13.04,13.04" transform="translate(-155.749 -366.151)" fill="#edf1fb"/>
        <path id="Path_7828" data-name="Path 7828" d="M222.715,9.4a9.4,9.4,0,1,1-9.4-9.4,9.4,9.4,0,0,1,9.4,9.4" transform="translate(-113.645)" fill="#edf1fb"/>
        <path id="Path_7829" data-name="Path 7829" d="M713.531,83.03A10.815,10.815,0,1,1,703.35,71.615,10.815,10.815,0,0,1,713.531,83.03" transform="translate(-385.611 -39.902)" fill="#edf1fb"/>
      </g>
    </g>
  </g>
</svg>
