<svg id="Group_11771" data-name="Group 11771" xmlns="http://www.w3.org/2000/svg" width="79.23" height="78.594" viewBox="0 0 79.23 78.594">
  <path id="Path_3418" data-name="Path 3418" d="M73.437,78.44H7a6.021,6.021,0,0,1-6-6V6A6.021,6.021,0,0,1,7,0H73.437a6.021,6.021,0,0,1,6,6V72.437A6.021,6.021,0,0,1,73.437,78.44Z" transform="translate(-0.21)" fill="#ffa92b"/>
  <rect id="Rectangle_2159" data-name="Rectangle 2159" width="78.594" height="78.594" transform="translate(0)" fill="none"/>
  <rect id="Rectangle_2160" data-name="Rectangle 2160" width="78.594" height="78.594" transform="translate(0)" fill="none"/>
  <g id="Group_7426" data-name="Group 7426" transform="translate(36.645 23.38)">
    <path id="Path_3419" data-name="Path 3419" d="M100.651,85.472a2.391,2.391,0,0,1-1.7-.7L91.066,76.88a1.621,1.621,0,0,1-.476-1.145V60.92a2.467,2.467,0,0,1,2.325-2.5,2.4,2.4,0,0,1,2.477,2.4v13.6l6.956,6.956a2.4,2.4,0,0,1-1.7,4.1Z" transform="translate(-90.59 -58.417)" fill="#fff"/>
  </g>
  <path id="Path_3420" data-name="Path 3420" d="M74.464,55.455a25.381,25.381,0,0,0-50.278,4.526l-1.657-1.541a2.4,2.4,0,1,0-3.27,3.518l6.547,6.087a1.766,1.766,0,0,0,2.5-.092l6.019-6.475a2.47,2.47,0,0,0,.112-3.3,2.4,2.4,0,0,0-3.562-.044l-1.885,2.029a20.575,20.575,0,1,1,9.117,17.289,2.4,2.4,0,0,0-2.677,3.99A25.382,25.382,0,0,0,74.464,55.455Z" transform="translate(-10.702 -20.98)" fill="#fff"/>
</svg>
