<?xml version="1.0" encoding="utf-8"?>
<!-- Generator: Adobe Illustrator 24.3.0, SVG Export Plug-In . SVG Version: 6.00 Build 0)  -->
<svg version="1.1" id="Icon_Set" xmlns="http://www.w3.org/2000/svg" xmlns:xlink="http://www.w3.org/1999/xlink" x="0px" y="0px"
	 viewBox="0 0 196 196" style="enable-background:new 0 0 196 196;" xml:space="preserve">
<style type="text/css">
	.st0{fill:#2933C5;}
	.st1{fill:none;}
	.st2{fill:#2933C5;stroke:#2933C5;stroke-width:0.25;stroke-miterlimit:10;}
	.st3{fill:#2933BC;}
	.st4{fill:#1CB69A;}
	.st5{fill:#FFFFFF;}
	.st6{fill:#F64066;}
</style>
<g>
	<g>
		<g>
			<path class="st0" d="M98,48c6.59,0,13.9,3.34,19.56,8.94c6.09,6.03,9.44,13.64,9.44,21.45v25.36c0,2.43,0.53,4.84,1.53,7.05
				l4.51,12.2H62.96l4.51-12.2c1-2.21,1.53-4.62,1.53-7.05V78.39C69,61,84.31,48,98,48 M98,36c-21,0-41,18.98-41,42.39v25.36
				c0,0.82-0.2,1.63-0.59,2.35l-9.06,24.49c-1.07,2,0.38,4.41,2.65,4.41h96c2.26,0,3.71-2.41,2.65-4.41l-9.06-24.49
				c-0.39-0.72-0.59-1.53-0.59-2.35V78.39C139,54.98,118,36,98,36L98,36z"/>
		</g>
		<g>
			<path class="st0" d="M98,160c-10.71,0-19.48-7.44-19.98-18.12c-0.02-0.51,0.4-0.88,0.92-0.88h8.11c0.51,0,0.95,0.37,0.99,0.88
				c0.45,5.21,4.75,8.12,9.96,8.12s9.51-2.85,9.96-8.06c0.04-0.5,0.49-0.94,0.99-0.94h8.11c0.51,0,0.94,0.43,0.92,0.94
				C117.48,152.62,108.71,160,98,160z"/>
		</g>
	</g>
	<rect class="st1" width="196" height="196"/>
</g>
</svg>
