<svg xmlns="http://www.w3.org/2000/svg" width="21" height="21" viewBox="0 0 21 21">
  <g id="Icon_Set" transform="translate(0.244 0.244)">
    <rect id="Rectangle_2023" data-name="Rectangle 2023" width="21" height="21" transform="translate(-0.244 -0.244)" fill="none"/>
    <path id="Path_3467" data-name="Path 3467" d="M35.742,39.324a6.456,6.456,0,0,0-12.789,1.152l-.421-.392a.611.611,0,1,0-.832.9l1.666,1.548A.448.448,0,0,0,24,42.5l1.531-1.648a.627.627,0,0,0,.028-.839.612.612,0,0,0-.906-.011l-.479.516a5.235,5.235,0,1,1,9.583,2.967A5.24,5.24,0,0,1,26.5,44.922a.611.611,0,1,0-.681,1.015,6.455,6.455,0,0,0,9.927-6.612Z" transform="translate(-19.334 -30.645)" fill="#fff" stroke="#fff" stroke-width="0.25"/>
  </g>
</svg>
