<svg xmlns="http://www.w3.org/2000/svg" width="26" height="26" viewBox="0 0 26 26">
  <g id="Group_12024" data-name="Group 12024" transform="translate(15429 5596)">
    <rect id="Rectangle_2296" data-name="Rectangle 2296" width="26" height="26" transform="translate(-15429 -5596)" fill="none"/>
    <g id="Group_6920" data-name="Group 6920" transform="translate(-15901 -7784)">
      <g id="Union_7" data-name="Union 7" transform="translate(473 2193)" fill="none">
        <path d="M16.1,14.614H9.544a2.386,2.386,0,1,1-4.772,0H3.386a1,1,0,0,1-1-1V2.983H1a1,1,0,0,1-1-1V1A1,1,0,0,1,1,0H4.369a1,1,0,0,1,1,1v.983a1.01,1.01,0,0,1-.006.105h.006v9.544H22.262a1,1,0,0,1,1,1v.983a1,1,0,0,1-1,1H20.877a2.386,2.386,0,0,1-4.773,0Z" stroke="none"/>
        <path d="M 18.49139976501465 16.00010108947754 C 19.25559043884277 16.00010108947754 19.87730026245117 15.37839031219482 19.87730026245117 14.61420059204102 L 19.87730026245117 13.61420059204102 L 22.2632007598877 13.61430072784424 L 22.26239967346191 12.63160037994385 L 4.368500232696533 12.63160037994385 L 4.368500232696533 3.087086915969849 L 4.252710342407227 3.086980581283569 L 4.368500232696533 1.98270058631897 L 4.368600368499756 1.000000596046448 L 1.000000357627869 0.9999005198478699 L 0.9999004006385803 1.982600569725037 L 3.385900497436523 1.982600569725037 L 3.385800361633301 13.61420059204102 L 5.771800518035889 13.61420059204102 L 5.771800518035889 14.61420059204102 C 5.771800518035889 15.37839031219482 6.393510341644287 16.00010108947754 7.157700538635254 16.00010108947754 C 7.921890258789062 16.00010108947754 8.543600082397461 15.37839031219482 8.543600082397461 14.61420059204102 L 8.543600082397461 13.61420059204102 L 17.10460090637207 13.61420059204102 L 17.10460090637207 14.61420059204102 C 17.10460090637207 15.37839031219482 17.72672080993652 16.00010108947754 18.49139976501465 16.00010108947754 M 18.49139976501465 17.00010108947754 C 17.17290115356445 17.00010108947754 16.10460090637207 15.93180084228516 16.10460090637207 14.61420059204102 L 9.543600082397461 14.61420059204102 C 9.543600082397461 15.93180084228516 8.475300788879395 17.00010108947754 7.157700538635254 17.00010108947754 C 5.840100288391113 17.00010108947754 4.771800518035889 15.93180084228516 4.771800518035889 14.61420059204102 L 3.385800361633301 14.61420059204102 C 2.833200454711914 14.61420059204102 2.385900497436523 14.16600036621094 2.385900497436523 13.61430072784424 L 2.385900497436523 2.982600450515747 L 0.9999004006385803 2.982600450515747 C 0.4473003745079041 2.982600450515747 3.799438559326518e-07 2.535300493240356 3.799438559326518e-07 1.98270058631897 L 3.799438559326518e-07 0.9999005198478699 C 3.799438559326518e-07 0.4482005536556244 0.4473003745079041 5.447387820822769e-07 0.9999004006385803 5.447387820822769e-07 L 4.368600368499756 5.447387820822769e-07 C 4.920300483703613 5.447387820822769e-07 5.368500232696533 0.4482005536556244 5.368500232696533 0.9999005198478699 L 5.368500232696533 1.98270058631897 C 5.368500232696533 2.018280506134033 5.366610527038574 2.053380489349365 5.362980365753174 2.088000535964966 L 5.368500232696533 2.088000535964966 L 5.368500232696533 11.63160037994385 L 22.26239967346191 11.63160037994385 C 22.81500053405762 11.63160037994385 23.2632007598877 12.07980060577393 23.2632007598877 12.63150024414062 L 23.2632007598877 13.61430072784424 C 23.2632007598877 14.16600036621094 22.81500053405762 14.61420059204102 22.26239967346191 14.61420059204102 L 20.87730026245117 14.61420059204102 C 20.87730026245117 15.93180084228516 19.80900001525879 17.00010108947754 18.49139976501465 17.00010108947754 Z" stroke="none" fill="#2e2e2e"/>
      </g>
      <g id="Rectangle_1212" data-name="Rectangle 1212" transform="translate(480.158 2193.298)" fill="none" stroke="#2e2e2e" stroke-width="1">
        <rect width="14.368" height="9.544" rx="1" stroke="none"/>
        <rect x="0.5" y="0.5" width="13.368" height="8.544" rx="0.5" fill="none"/>
      </g>
    </g>
  </g>
</svg>
