<svg xmlns="http://www.w3.org/2000/svg" width="48.432" height="36.324" viewBox="0 0 48.432 36.324"><defs><style>.a{fill:#bbbed9;}</style></defs><path class="a" d="M4.238,13.186H18.354a12.854,12.854,0,0,1-1.339-2.357A4.543,4.543,0,0,1,21.189,4.5a4.032,4.032,0,0,1,3.784,2.752c1.147,2.676,7.44,6.085,10.172,7.314a4.54,4.54,0,0,1,2.692,4.147h0V34.939a2.267,2.267,0,0,1-1.917,2.242c-4.43.686-5.842,3.64-11.7,3.624-.258,0-1.254.018-1.513.018-4.792,0-7.716-2.093-6.867-6.741a4.333,4.333,0,0,1-1.556-5.895,4.653,4.653,0,0,1-.6-6.711H4.238A4.266,4.266,0,0,1,0,17.332a4.334,4.334,0,0,1,4.238-4.146Zm37.383,1.908h4.54a2.27,2.27,0,0,1,2.27,2.27V35.527a2.27,2.27,0,0,1-2.27,2.27h-4.54a2.27,2.27,0,0,1-2.27-2.27V17.365A2.27,2.27,0,0,1,41.621,15.094Zm2.27,20.054A1.892,1.892,0,1,0,42,33.256,1.892,1.892,0,0,0,43.891,35.148Z" transform="translate(0 -4.5)"/></svg>