<svg xmlns="http://www.w3.org/2000/svg" width="78" height="78" viewBox="0 0 78 78">
  <g id="Group_11799" data-name="Group 11799" transform="translate(-1662 -5408)">
    <g id="Group_7573" data-name="Group 7573" transform="translate(1712.231 5426) rotate(90)">
      <path id="Path_2558" data-name="Path 2558" d="M21.1,22.888.338,1.983A1.164,1.164,0,0,1,.343.338h0A1.164,1.164,0,0,1,1.989.344L21.9,20.393,40.65.391A1.163,1.163,0,0,1,42.294.338h0a1.162,1.162,0,0,1,.053,1.645L22.771,22.864A1.163,1.163,0,0,1,21.1,22.888Z" transform="translate(0 0)" fill="#414141" stroke="#414141" stroke-width="4"/>
    </g>
    <rect id="Rectangle_2407" data-name="Rectangle 2407" width="78" height="78" transform="translate(1662 5408)" fill="none"/>
  </g>
</svg>
