<?xml version="1.0" encoding="utf-8"?>
<!-- Generator: Adobe Illustrator 24.3.0, SVG Export Plug-In . SVG Version: 6.00 Build 0)  -->
<svg version="1.1" id="Icon_Set" xmlns="http://www.w3.org/2000/svg" xmlns:xlink="http://www.w3.org/1999/xlink" x="0px" y="0px"
	 viewBox="0 0 196 196" style="enable-background:new 0 0 196 196;" xml:space="preserve">
<style type="text/css">
	.st0{fill:#2933C5;}
	.st1{fill:none;}
	.st2{fill:#2933C5;stroke:#2933C5;stroke-width:0.25;stroke-miterlimit:10;}
	.st3{fill:#2933BC;}
	.st4{fill:#1CB69A;}
	.st5{fill:#FFFFFF;}
	.st6{fill:#F64066;}
</style>
<g>
	<rect class="st1" width="196" height="196"/>
	<path class="st0" d="M98,34c-35.07,0-63.5,28.43-63.5,63.5c0,35.07,28.43,63.5,63.5,63.5s63.5-28.43,63.5-63.5
		C161.5,62.43,133.07,34,98,34z M148.1,81.8c-6.97,0.23-18.13-1.05-28.03-9.49c-9.98-8.51-12.97-19.59-13.82-26.66
		C126.06,48.79,142.21,63.04,148.1,81.8z M45.53,98.73c33.81-5.86,41.56-0.08,43.32,2.7c0.41,0.64,0.89,1.7,1.41,2.82
		c1.79,3.89,4.5,9.76,10.92,14.63c3.34,2.53,6.16,3.63,8.42,4.51c0.92,0.36,1.72,0.67,2.5,1.05c5.41,2.64,9.71,8.72,12.81,18.12
		c-7.87,4.72-17.07,7.44-26.9,7.44C69.46,150,46.19,127.11,45.53,98.73z M134.06,135.6c-4.06-10.39-9.8-17.46-17.16-21.04
		c-1.18-0.57-2.27-1-3.32-1.41c-1.96-0.76-3.65-1.42-5.76-3.03c-4.23-3.21-6.01-7.07-7.58-10.47c-0.67-1.46-1.31-2.83-2.09-4.08
		c-6.43-10.2-22.9-12.81-51.67-8.15c4.54-23.23,24.43-41.02,48.64-42.34c0.74,8.94,4.17,23.98,17.81,35.6
		c11.76,10.02,24.91,12.11,33.82,12.11c1.27,0,2.44-0.04,3.52-0.11c0.15,1.59,0.23,3.19,0.23,4.82
		C150.5,112.49,144.17,126.02,134.06,135.6z"/>
</g>
</svg>
