<?xml version="1.0" encoding="utf-8"?>
<!-- Generator: Adobe Illustrator 24.3.0, SVG Export Plug-In . SVG Version: 6.00 Build 0)  -->
<svg version="1.1" id="Icon_Set" xmlns="http://www.w3.org/2000/svg" xmlns:xlink="http://www.w3.org/1999/xlink" x="0px" y="0px"
	 viewBox="0 0 197 198" style="enable-background:new 0 0 197 198;" xml:space="preserve">
<style type="text/css">
	.st0{fill:#2933C5;}
	.st1{fill:none;}
	.st2{fill:#2933C5;stroke:#2933C5;stroke-width:0.25;stroke-miterlimit:10;}
	.st3{fill:#2933BC;}
	.st4{fill:#1CB69A;}
	.st5{fill:#FFFFFF;}
	.st6{fill:#F64066;}
</style>
<g>
	<path class="st0" d="M151.96,71h-17.5c-0.79-19.16-16.61-34.5-35.96-34.5S63.33,51.84,62.54,71h-17.5c-3.52,0-6.28,3.01-5.98,6.51
		l6.97,81c0.27,3.1,2.86,5.49,5.98,5.49h92.99c3.11,0,5.71-2.38,5.98-5.49l6.97-81C158.24,74.01,155.48,71,151.96,71z M98.5,48.5
		c12.73,0,23.17,9.96,23.95,22.5h-47.9C75.33,58.46,85.77,48.5,98.5,48.5z M139.49,152H57.51l-5.94-69H62.5v3.5c0,3.31,2.69,6,6,6
		s6-2.69,6-6V83h48v3.5c0,3.31,2.69,6,6,6s6-2.69,6-6V83h10.92L139.49,152z"/>
	<rect class="st1" width="197" height="198"/>
</g>
</svg>
