<?xml version="1.0" encoding="utf-8"?>
<!-- Generator: Adobe Illustrator 24.3.0, SVG Export Plug-In . SVG Version: 6.00 Build 0)  -->
<svg version="1.1" id="Icon_Set" xmlns="http://www.w3.org/2000/svg" xmlns:xlink="http://www.w3.org/1999/xlink" x="0px" y="0px"
	 viewBox="0 0 196 197" style="enable-background:new 0 0 196 197;" xml:space="preserve">
<style type="text/css">
	.st0{fill:#2933C5;}
	.st1{fill:none;}
	.st2{fill:#2933C5;stroke:#2933C5;stroke-width:0.25;stroke-miterlimit:10;}
	.st3{fill:#2933BC;}
	.st4{fill:#1CB69A;}
	.st5{fill:#FFFFFF;}
	.st6{fill:#F64066;}
</style>
<g>
	<g>
		<path class="st0" d="M159.45,61.57l-59.03-30.21c-0.76-0.43-1.61-0.64-2.45-0.64c-0.83,0-1.65,0.2-2.4,0.61L36.6,61.58
			C35,62.45,34,64.14,34,65.96v66.11c0,1.81,0.97,3.47,2.55,4.36l59,33.19c0.76,0.43,1.61,0.64,2.45,0.64
			c0.85,0,1.69-0.21,2.45-0.64l59-33.19c1.57-0.89,2.55-2.55,2.55-4.36V65.92C162,64.12,161.03,62.45,159.45,61.57z M97.4,89.18
			l-14.6-7.3l43.21-22.83l14.18,7.26L97.4,89.18z M97.97,44.71l13.9,7.11L68.5,74.73l-14.72-7.36L97.97,44.71z M47,78.52l44.5,22.25
			v51.66L47,127.4V78.52z M104.5,152.43v-52.3L149,76.34v51.05L104.5,152.43z"/>
	</g>
	<rect class="st1" width="196" height="197"/>
</g>
</svg>
