<?xml version="1.0" encoding="utf-8"?>
<!-- Generator: Adobe Illustrator 24.3.0, SVG Export Plug-In . SVG Version: 6.00 Build 0)  -->
<svg version="1.1" id="Icon_Set" xmlns="http://www.w3.org/2000/svg" xmlns:xlink="http://www.w3.org/1999/xlink" x="0px" y="0px"
	 viewBox="0 0 196 196" style="enable-background:new 0 0 196 196;" xml:space="preserve">
<style type="text/css">
	.st0{fill:#2933C5;}
	.st1{fill:none;}
	.st2{fill:#2933C5;stroke:#2933C5;stroke-width:0.25;stroke-miterlimit:10;}
	.st3{fill:#2933BC;}
	.st4{fill:#1CB69A;}
	.st5{fill:#FFFFFF;}
	.st6{fill:#F64066;}
</style>
<g>
	<path class="st0" d="M154,70.57h-37.02l-0.03-26.5c0-5.55-4.45-10.07-9.91-10.07H44.41c-5.46,0-9.91,4.52-9.91,10.07v107.86
		c0,5.55,4.45,10.07,9.91,10.07h42.84H91h63c3.93,0,7.12-3.19,7.12-7.12V77.69C161.12,73.76,157.94,70.57,154,70.57z M45.5,45h60.45
		v25.57H87.25c-3.93,0-7.12,3.19-7.12,7.12V151H45.5V45z M150.12,151h-59V81.57h59V151z"/>
	<g>
		<rect x="104.12" y="93.5" class="st0" width="10" height="10"/>
	</g>
	<g>
		<rect x="127.12" y="93.5" class="st0" width="10" height="10"/>
	</g>
	<g>
		<rect x="104.12" y="111.5" class="st0" width="10" height="10"/>
	</g>
	<g>
		<rect x="127.12" y="111.5" class="st0" width="10" height="10"/>
	</g>
	<g>
		<rect x="104.12" y="129.5" class="st0" width="10" height="10"/>
	</g>
	<g>
		<rect x="127.12" y="129.5" class="st0" width="10" height="10"/>
	</g>
	<g>
		<rect x="57.5" y="93.5" class="st0" width="10" height="10"/>
	</g>
	<g>
		<rect x="57.5" y="111.5" class="st0" width="10" height="10"/>
	</g>
	<g>
		<rect x="57.5" y="129.5" class="st0" width="10" height="10"/>
	</g>
	<g>
		<rect x="57.5" y="56.5" class="st0" width="10" height="10"/>
	</g>
	<g>
		<rect x="82" y="56.5" class="st0" width="10" height="10"/>
	</g>
	<g>
		<rect x="57.5" y="74.5" class="st0" width="10" height="10"/>
	</g>
	<rect class="st1" width="196" height="196"/>
</g>
</svg>
