<?xml version="1.0" encoding="utf-8"?>
<!-- Generator: Adobe Illustrator 24.3.0, SVG Export Plug-In . SVG Version: 6.00 Build 0)  -->
<svg version="1.1" id="Icon_Set" xmlns="http://www.w3.org/2000/svg" xmlns:xlink="http://www.w3.org/1999/xlink" x="0px" y="0px"
	 viewBox="0 0 197 196" style="enable-background:new 0 0 197 196;" xml:space="preserve">
<style type="text/css">
	.st0{fill:#2933C5;}
	.st1{fill:none;}
	.st2{fill:#2933C5;stroke:#2933C5;stroke-width:0.25;stroke-miterlimit:10;}
	.st3{fill:#2933BC;}
	.st4{fill:#1CB69A;}
	.st5{fill:#FFFFFF;}
	.st6{fill:#F64066;}
</style>
<g>
	<g>
		<circle class="st0" cx="80.05" cy="149.65" r="12"/>
		<circle class="st0" cx="141.18" cy="149.09" r="12"/>
		<path class="st0" d="M153.71,60.05H73.97l-2.9-22.27c-0.34-2.62-2.57-4.57-5.21-4.57L43.73,33.2c-3.72,0-6.73,3.01-6.73,6.73
			c0,3.72,3.01,6.73,6.73,6.73l14,0.01c0.53,0,0.97,0.39,1.04,0.91l2.48,19.03l0.05-0.01l7.51,54.95c0.36,2.6,2.59,4.54,5.24,4.54
			h73.13c2.64,0,4.88-1.94,5.24-4.54L158.95,66C159.38,62.86,156.92,60.05,153.71,60.05z M140.32,113.09H80.78L75.3,73.05h69.73
			L140.32,113.09z"/>
	</g>
	<rect class="st1" width="197" height="196"/>
</g>
</svg>
