<svg id="Group_5047" data-name="Group 5047" xmlns="http://www.w3.org/2000/svg" width="28.123" height="29.61" viewBox="0 0 28.123 29.61">
  <circle id="Ellipse_277" data-name="Ellipse 277" cx="2.766" cy="2.766" r="2.766" transform="translate(7.158 24.078)" fill="#fff"/>
  <circle id="Ellipse_278" data-name="Ellipse 278" cx="2.766" cy="2.766" r="2.766" transform="translate(21.249 23.949)" fill="#fff"/>
  <path id="Path_374" data-name="Path 374" d="M62.9,39.389H44.522l-.669-5.134a1.209,1.209,0,0,0-1.2-1.053l-5.1,0a1.551,1.551,0,1,0,0,3.1l3.227,0a.241.241,0,0,1,.24.21L41.59,40.9l.012,0,1.731,12.667a1.216,1.216,0,0,0,1.208,1.047H61.4a1.218,1.218,0,0,0,1.208-1.047l1.505-12.805A1.213,1.213,0,0,0,62.9,39.389ZM59.817,51.616H46.092l-1.263-9.23H60.9Z" transform="translate(-36 -33.2)" fill="#fff"/>
</svg>
