<?xml version="1.0" encoding="utf-8"?>
<!-- Generator: Adobe Illustrator 24.3.0, SVG Export Plug-In . SVG Version: 6.00 Build 0)  -->
<svg version="1.1" id="Icon_Set" xmlns="http://www.w3.org/2000/svg" xmlns:xlink="http://www.w3.org/1999/xlink" x="0px" y="0px"
	 viewBox="0 0 196 196" style="enable-background:new 0 0 196 196;" xml:space="preserve">
<style type="text/css">
	.st0{fill:#2933C5;}
	.st1{fill:none;}
	.st2{fill:#2933C5;stroke:#2933C5;stroke-width:0.25;stroke-miterlimit:10;}
	.st3{fill:#2933BC;}
	.st4{fill:#1CB69A;}
	.st5{fill:#FFFFFF;}
	.st6{fill:#F64066;}
</style>
<g>
	<rect class="st1" width="196" height="196"/>
	<g>
		<path class="st0" d="M163,45v106h-21.74V45H163 M169,34h-33.74c-2.76,0-5,2.24-5,5v118c0,2.76,2.24,5,5,5H169c2.76,0,5-2.24,5-5
			V39C174,36.24,171.76,34,169,34L169,34z"/>
	</g>
	<g>
		<path class="st0" d="M108.32,79.34V151H86.58V79.34H108.32 M114.32,68.34H80.58c-2.76,0-5,2.24-5,5V157c0,2.76,2.24,5,5,5h33.74
			c2.76,0,5-2.24,5-5V73.34C119.32,70.58,117.09,68.34,114.32,68.34L114.32,68.34z"/>
	</g>
	<g>
		<path class="st0" d="M54.74,107.44V151H33v-43.56H54.74 M60.74,96.44H27c-2.76,0-5,2.24-5,5V157c0,2.76,2.24,5,5,5h33.74
			c2.76,0,5-2.24,5-5v-55.56C65.74,98.68,63.5,96.44,60.74,96.44L60.74,96.44z"/>
	</g>
</g>
</svg>
