<?xml version="1.0" encoding="utf-8"?>
<!-- Generator: Adobe Illustrator 24.3.0, SVG Export Plug-In . SVG Version: 6.00 Build 0)  -->
<svg version="1.1" id="Icon_Set" xmlns="http://www.w3.org/2000/svg" xmlns:xlink="http://www.w3.org/1999/xlink" x="0px" y="0px"
	 viewBox="0 0 196 196" style="enable-background:new 0 0 196 196;" xml:space="preserve">
<style type="text/css">
	.st0{fill:#2933C5;}
	.st1{fill:none;}
	.st2{fill:#2933C5;stroke:#2933C5;stroke-width:0.25;stroke-miterlimit:10;}
	.st3{fill:#2933BC;}
	.st4{fill:#1CB69A;}
	.st5{fill:#FFFFFF;}
	.st6{fill:#F64066;}
</style>
<g>
	<rect class="st1" width="196" height="196"/>
	<path class="st0" d="M159,74.92V146H42.53l43.82-49.2l17.1,18.34l4.04,4.33c2.07,2.22,5.59,2.27,7.72,0.1l4.14-4.22L159,74.92
		 M111.61,107.52c-0.06-0.07-0.17,0.06-0.23,0L90.15,84.76c-2.14-2.3-5.8-2.26-7.89,0.09l-53.95,60.58
		C24.32,149.91,27.5,157,33.5,157h131.16c2.95,0,5.34-2.39,5.34-5.34V60.35c0-4.49-5.46-6.71-8.59-3.48
		C145.25,73.55,111.91,107.88,111.61,107.52z"/>
	<g>
		<path class="st0" d="M37.58,104.12L37.58,104.12c-2.24-2.06-2.38-5.54-0.32-7.77l43.98-47.78c2.17-2.36,5.88-2.37,8.07-0.03
			l21.39,22.95l29.55-30.38c2.12-2.18,5.6-2.23,7.78-0.11v0c2.18,2.12,2.23,5.6,0.11,7.78L114.56,83.3
			c-2.19,2.25-5.82,2.21-7.97-0.08L85.31,60.39L45.35,103.8C43.3,106.04,39.82,106.18,37.58,104.12z"/>
	</g>
</g>
</svg>
