<svg xmlns="http://www.w3.org/2000/svg" width="78" height="78" viewBox="0 0 78 78">
  <g id="Group_11747" data-name="Group 11747" transform="translate(-0.155 -0.117)">
    <g id="Group_11746" data-name="Group 11746" transform="translate(13.87 13.871)">
      <path id="Path_2879" data-name="Path 2879" d="M84.662,48.692H69.122L69.11,38.046A4.11,4.11,0,0,0,64.95,34H38.66a4.11,4.11,0,0,0-4.16,4.046V81.377a4.11,4.11,0,0,0,4.16,4.046h46a2.928,2.928,0,0,0,2.989-2.86V51.552A2.925,2.925,0,0,0,84.662,48.692ZM39.117,38.419H64.492V48.692h-7.85a2.928,2.928,0,0,0-2.989,2.86V81H39.117ZM83.033,81H58.267V53.111H83.033Z" transform="translate(-34.5 -34)" fill="#414141"/>
      <g id="Group_5134" data-name="Group 5134" transform="translate(29.231 24.062)">
        <rect id="Rectangle_1875" data-name="Rectangle 1875" width="4.017" height="4.017" fill="#414141"/>
      </g>
      <g id="Group_5135" data-name="Group 5135" transform="translate(38.757 24.062)">
        <rect id="Rectangle_1876" data-name="Rectangle 1876" width="4.017" height="4.017" fill="#414141"/>
      </g>
      <g id="Group_5136" data-name="Group 5136" transform="translate(29.231 31.292)">
        <rect id="Rectangle_1877" data-name="Rectangle 1877" width="4.017" height="4.017" fill="#414141"/>
      </g>
      <g id="Group_5137" data-name="Group 5137" transform="translate(38.757 31.292)">
        <rect id="Rectangle_1878" data-name="Rectangle 1878" width="4.017" height="4.017" fill="#414141"/>
      </g>
      <g id="Group_5138" data-name="Group 5138" transform="translate(29.231 38.523)">
        <rect id="Rectangle_1879" data-name="Rectangle 1879" width="4.017" height="4.017" fill="#414141"/>
      </g>
      <g id="Group_5139" data-name="Group 5139" transform="translate(38.757 38.523)">
        <rect id="Rectangle_1880" data-name="Rectangle 1880" width="4.017" height="4.017" fill="#414141"/>
      </g>
      <g id="Group_5140" data-name="Group 5140" transform="translate(9.921 24.062)">
        <rect id="Rectangle_1881" data-name="Rectangle 1881" width="4.017" height="4.017" fill="#414141"/>
      </g>
      <g id="Group_5141" data-name="Group 5141" transform="translate(9.921 31.292)">
        <rect id="Rectangle_1882" data-name="Rectangle 1882" width="4.017" height="4.017" fill="#414141"/>
      </g>
      <g id="Group_5142" data-name="Group 5142" transform="translate(9.921 38.523)">
        <rect id="Rectangle_1883" data-name="Rectangle 1883" width="4.017" height="4.017" fill="#414141"/>
      </g>
      <g id="Group_5143" data-name="Group 5143" transform="translate(9.921 9.197)">
        <rect id="Rectangle_1884" data-name="Rectangle 1884" width="4.017" height="4.017" fill="#414141"/>
      </g>
      <g id="Group_5144" data-name="Group 5144" transform="translate(20.069 9.197)">
        <rect id="Rectangle_1885" data-name="Rectangle 1885" width="4.017" height="4.017" fill="#414141"/>
      </g>
      <g id="Group_5145" data-name="Group 5145" transform="translate(9.921 16.427)">
        <rect id="Rectangle_1886" data-name="Rectangle 1886" width="4.017" height="4.017" fill="#414141"/>
      </g>
    </g>
    <rect id="Rectangle_1887" data-name="Rectangle 1887" width="78" height="78" transform="translate(0.155 0.117)" fill="none"/>
  </g>
</svg>
