<svg xmlns="http://www.w3.org/2000/svg" width="10.149" height="10.148" viewBox="0 0 10.149 10.148">
  <g id="Cross" transform="translate(0.001 0)">
    <path id="Path_3354" data-name="Path 3354" d="M1367.368,1377.862h0a.87.87,0,0,0-1.23,0l-3.59,3.59-3.59-3.59a.87.87,0,0,0-1.23,0h0a.869.869,0,0,0,0,1.23l3.59,3.59-3.59,3.589a.87.87,0,0,0,0,1.23h0a.87.87,0,0,0,1.23,0l3.59-3.59,3.59,3.59a.87.87,0,0,0,1.23,0h0a.87.87,0,0,0,0-1.23l-3.59-3.589,3.59-3.59A.87.87,0,0,0,1367.368,1377.862Z" transform="translate(-1357.475 -1377.607)" fill="#414141"/>
  </g>
</svg>
