<svg xmlns="http://www.w3.org/2000/svg" width="81" height="81" viewBox="0 0 81 81">
  <g id="Group_11936" data-name="Group 11936" transform="translate(-0.099 -0.09)">
    <g id="Group_11935" data-name="Group 11935" transform="translate(14.702 15.519)">
      <g id="Subtraction_1" data-name="Subtraction 1" transform="translate(0.396 -0.429)" fill="none">
        <path d="M15.375,41H6a6.007,6.007,0,0,1-6-6V6A6.007,6.007,0,0,1,6,0H35a6.007,6.007,0,0,1,6,6v9.374H16.375a1,1,0,0,0-1,1V41Z" stroke="none"/>
        <path d="M 10.87470054626465 36.4995002746582 L 10.87470054626465 16.37459945678711 C 10.87470054626465 13.34193992614746 13.34193992614746 10.87470054626465 16.37459945678711 10.87470054626465 L 36.50040054321289 10.87470054626465 L 36.50040054321289 6.00029993057251 C 36.50040054321289 5.173029899597168 35.82736968994141 4.5 35.00009918212891 4.5 L 6.000300407409668 4.5 C 5.173030376434326 4.5 4.500000476837158 5.173029899597168 4.500000476837158 6.00029993057251 L 4.500000476837158 35.00009918212891 C 4.500000476837158 35.82686996459961 5.173030376434326 36.4995002746582 6.000300407409668 36.4995002746582 L 10.87470054626465 36.4995002746582 M 15.37470054626465 40.9995002746582 L 15.37370014190674 40.9995002746582 L 6.000300407409668 40.9995002746582 C 2.691720247268677 40.9995002746582 2.716064386731887e-07 38.30818176269531 2.716064386731887e-07 35.00009918212891 L 2.716064386731887e-07 6.00029993057251 C 2.716064386731887e-07 2.691720247268677 2.691720247268677 1.373290956507844e-07 6.000300407409668 1.373290956507844e-07 L 35.00009918212891 1.373290956507844e-07 C 38.30868148803711 1.373290956507844e-07 41.00040054321289 2.691720247268677 41.00040054321289 6.00029993057251 L 41.00040054321289 15.37470054626465 L 16.37459945678711 15.37470054626465 C 15.82324981689453 15.37470054626465 15.37470054626465 15.82324981689453 15.37470054626465 16.37459945678711 L 15.37470054626465 40.99850082397461 L 15.37470054626465 40.9995002746582 Z" stroke="none" fill="#414141"/>
      </g>
      <g id="Rectangle_2415" data-name="Rectangle 2415" transform="translate(11.396 10.571)" fill="none" stroke="#414141" stroke-width="4.5">
        <rect width="40" height="41" rx="6" stroke="none"/>
        <rect x="2.25" y="2.25" width="35.5" height="36.5" rx="3.75" fill="none"/>
      </g>
    </g>
    <rect id="Rectangle_2416" data-name="Rectangle 2416" width="81" height="81" transform="translate(0.099 0.09)" fill="none"/>
  </g>
</svg>
