<svg xmlns="http://www.w3.org/2000/svg" width="44.795" height="74.084" viewBox="0 0 44.795 74.084">
  <path id="ic_directions_walk_24px" d="M31.843,15.283a6.891,6.891,0,1,0-6.891-6.891A6.912,6.912,0,0,0,31.843,15.283ZM19.094,27,9.446,75.584h7.236l6.2-27.566,7.236,6.891V75.584h6.891V49.74l-7.236-6.891,2.067-10.337a25.231,25.231,0,0,0,18.952,8.614V34.235a16.95,16.95,0,0,1-14.817-8.27l-3.446-5.513a7.107,7.107,0,0,0-5.858-3.446c-1.034,0-1.723.345-2.757.345L6,24.931V41.126h6.891V29.411L19.094,27" transform="translate(-6 -1.5)" fill="#75be00"/>
</svg>
