<?xml version="1.0" encoding="utf-8"?>
<!-- Generator: Adobe Illustrator 24.3.0, SVG Export Plug-In . SVG Version: 6.00 Build 0)  -->
<svg version="1.1" id="Icon_Set" xmlns="http://www.w3.org/2000/svg" xmlns:xlink="http://www.w3.org/1999/xlink" x="0px" y="0px"
	 viewBox="0 0 196 196" style="enable-background:new 0 0 196 196;" xml:space="preserve">
<style type="text/css">
	.st0{fill:#2933C5;}
	.st1{fill:none;}
	.st2{fill:#2933C5;stroke:#2933C5;stroke-width:0.25;stroke-miterlimit:10;}
	.st3{fill:#2933BC;}
	.st4{fill:#1CB69A;}
	.st5{fill:#FFFFFF;}
	.st6{fill:#F64066;}
</style>
<g>
	<g>
		<path class="st0" d="M154.23,37H41.77C39.13,37,37,39.13,37,41.77v61.48v12.39v38.6c0,2.63,2.13,4.77,4.77,4.77h112.47
			c2.63,0,4.77-2.13,4.77-4.77V92.76V80.37v-38.6C159,39.13,156.87,37,154.23,37z M49.39,49.39H91.8v53.85H49.39V49.39z
			 M49.39,115.63H91.8v30.98H49.39V115.63z M146.61,146.61H104.2V92.76h42.41V146.61z M104.2,80.37V49.39h42.41v30.98H104.2z"/>
	</g>
	<rect class="st1" width="196" height="196"/>
</g>
</svg>
