<svg xmlns="http://www.w3.org/2000/svg" width="61.183" height="61.183" viewBox="0 0 61.183 61.183">
  <g id="Group_4982" data-name="Group 4982" transform="translate(0.502 0.502)">
    <rect id="Rectangle_1518" data-name="Rectangle 1518" width="60" height="60" transform="matrix(1, -0.003, 0.003, 1, 0, 0.181)" fill="#fff" stroke="#c7c7c7" stroke-width="1"/>
    <rect id="Rectangle_1519" data-name="Rectangle 1519" width="51.514" height="44.784" transform="translate(4.176 8.654) rotate(-0.172)" fill="#eaeaea"/>
    <path id="Path_3183" data-name="Path 3183" d="M6286.317-15.985l7.673-6.829a3.512,3.512,0,0,1,4.208-.348l11.274,7.107,11.863-17.125a3.512,3.512,0,0,1,5.3-.554l11.175,10.55.024,7.548.035,11.07-51.514.155Z" transform="translate(-6282.04 57.64)" fill="#c7c7c7"/>
    <path id="Path_3184" data-name="Path 3184" d="M6343.645-97.176a4.715,4.715,0,0,1-4.778,4.649,4.717,4.717,0,0,1-4.808-4.621,4.715,4.715,0,0,1,4.778-4.649A4.717,4.717,0,0,1,6343.645-97.176Z" transform="translate(-6322.943 115.13)" fill="#f8f9ff"/>
  </g>
</svg>
