<svg id="Group_11776" data-name="Group 11776" xmlns="http://www.w3.org/2000/svg" width="26" height="26" viewBox="0 0 26 26">
  <path id="Path_3370" data-name="Path 3370" d="M24.01,26H1.99A2,2,0,0,1,0,24.01V1.99A2,2,0,0,1,1.99,0H24.01A2,2,0,0,1,26,1.99V24.01A2,2,0,0,1,24.01,26Z" fill="#f4f4f4"/>
  <path id="Path_3371" data-name="Path 3371" d="M56.236,44.345H54.162V42.954a1.222,1.222,0,0,0-1.236-1.2H48.157a1.222,1.222,0,0,0-1.236,1.2v1.391H44.848a.628.628,0,0,0,0,1.256h.663c0,.008,0,.017,0,.026v7.734a1.905,1.905,0,0,0,1.838,1.962h6.39a1.905,1.905,0,0,0,1.838-1.962V45.626c0-.008,0-.017,0-.026h.663a.627.627,0,0,0,0-1.254Zm-8.079-1.339h4.769v1.339H48.157Zm6.182,2.62V53.36a.661.661,0,0,1-.6.707h-6.39a.661.661,0,0,1-.6-.707V45.626c0-.008,0-.017,0-.026h7.6A.231.231,0,0,0,54.339,45.626Z" transform="translate(-37.567 -35.461)" fill="#c7c7c7"/>
  <g id="Group_5587" data-name="Group 5587" transform="translate(10.695 10.601)">
    <path id="Path_3372" data-name="Path 3372" d="M82.041,91.207a.791.791,0,0,1-.791-.791V84.541a.791.791,0,1,1,1.582,0v5.875A.791.791,0,0,1,82.041,91.207Z" transform="translate(-81.25 -83.75)" fill="#c7c7c7"/>
  </g>
  <g id="Group_5588" data-name="Group 5588" transform="translate(13.591 10.601)">
    <path id="Path_3373" data-name="Path 3373" d="M104.041,91.207a.791.791,0,0,1-.791-.791V84.541a.791.791,0,1,1,1.582,0v5.875A.791.791,0,0,1,104.041,91.207Z" transform="translate(-103.25 -83.75)" fill="#c7c7c7"/>
  </g>
</svg>
