<?xml version="1.0" encoding="utf-8"?>
<!-- Generator: Adobe Illustrator 24.3.0, SVG Export Plug-In . SVG Version: 6.00 Build 0)  -->
<svg version="1.1" id="Icon_Set" xmlns="http://www.w3.org/2000/svg" xmlns:xlink="http://www.w3.org/1999/xlink" x="0px" y="0px"
	 viewBox="0 0 196 196" style="enable-background:new 0 0 196 196;" xml:space="preserve">
<style type="text/css">
	.st0{fill:#2933C5;}
	.st1{fill:none;}
	.st2{fill:#2933C5;stroke:#2933C5;stroke-width:0.25;stroke-miterlimit:10;}
	.st3{fill:#2933BC;}
	.st4{fill:#1CB69A;}
	.st5{fill:#FFFFFF;}
	.st6{fill:#F64066;}
</style>
<g>
	<g>
		<g>
			<path class="st2" d="M94.27,160.16c-0.53-0.56-0.79-1.36-0.79-2.38v-9.81c-5.68-0.56-10.58-2.08-14.68-4.56
				c-4.1-2.47-7.23-5.56-9.38-9.25c-2.15-3.69-3.31-7.64-3.47-11.84c0-0.75,0.24-1.4,0.73-1.96s1.1-0.84,1.83-0.84h5.85
				c1.54,0,2.6,0.93,3.17,2.8c0.73,3.92,2.82,7.31,6.27,10.16c3.45,2.85,8.38,4.27,14.8,4.27c6.9,0,12.06-1.4,15.47-4.2
				c3.41-2.8,5.12-6.68,5.12-11.63c0-3.18-0.83-5.79-2.5-7.85c-1.67-2.06-4.14-3.85-7.43-5.4c-3.29-1.54-8.22-3.43-14.8-5.67
				c-6.26-2.06-11.25-4.25-14.98-6.59c-3.74-2.33-6.54-5.21-8.41-8.62c-1.87-3.41-2.8-7.73-2.8-12.96c0-7.01,2.23-12.9,6.7-17.66
				c4.47-4.76,9.64-7.57,17.52-8.41v-9.67c0-1.03,0.26-1.82,0.79-2.38s2.2-0.84,3.01-0.84h4.39c0.81,0,1.46,0.3,1.95,0.91
				c0.49,0.61,0.73,1.38,0.73,2.31v9.81c5.2,0.75,9.66,2.43,13.4,5.05c3.74,2.62,6.56,5.67,8.47,9.18c1.91,3.5,2.94,7.03,3.1,10.58
				c0,0.84-0.24,1.54-0.73,2.1s-1.1,0.84-1.83,0.84h-6.09c-0.65,0-1.28-0.23-1.89-0.7c-0.61-0.47-1-1.17-1.16-2.1
				c-0.49-4.02-2.44-7.33-5.85-9.95c-3.41-2.61-7.68-3.93-12.79-3.93c-5.52,0-9.91,1.24-13.16,3.71c-3.25,2.48-4.87,6.15-4.87,11
				c0,3.27,0.75,5.93,2.25,7.99c1.5,2.06,3.82,3.88,6.95,5.47c3.12,1.59,7.65,3.41,13.58,5.46c6.9,2.24,12.34,4.49,16.32,6.73
				c3.98,2.24,6.95,5.02,8.89,8.34c1.95,3.32,2.92,7.59,2.92,12.83c0,7.94-2.46,14.34-7.37,19.2c-4.92,4.86-11.63,7.66-20.16,8.41
				v9.67c0,0.93-0.24,1.71-0.73,2.31c-0.49,0.61-1.14,0.91-1.95,0.91h-4.39C95.47,161,94.8,160.72,94.27,160.16z"/>
			<path class="st2" d="M96.14,158.41c0.02,0.02,0.03,0.03,0.03,0.03l4.5,0.01c0.07-0.09,0.12-0.33,0.12-0.67v-12.01l2.33-0.2
				c7.88-0.69,14.13-3.28,18.59-7.68c4.45-4.4,6.61-10.09,6.61-17.39c0-4.74-0.87-8.62-2.57-11.53c-1.71-2.91-4.38-5.4-7.94-7.41
				c-3.81-2.15-9.15-4.34-15.86-6.52c-6.04-2.09-10.72-3.98-13.95-5.62c-3.47-1.76-6.12-3.86-7.85-6.24
				c-1.82-2.49-2.75-5.69-2.75-9.5c0-5.68,1.98-10.06,5.88-13.04c3.69-2.81,8.64-4.24,14.71-4.24c5.66,0,10.49,1.5,14.35,4.45
				c3.96,3.04,6.26,6.97,6.83,11.67c0.02,0.12,0.1,0.32,0.18,0.38c0.14,0.11,0.27,0.17,0.33,0.17h6.08c-0.06,0,0.01-0.09,0.01-0.39
				c-0.14-3.02-1.08-6.21-2.79-9.36c-1.71-3.13-4.3-5.93-7.69-8.31c-3.39-2.37-7.53-3.92-12.3-4.61l-2.19-0.31V38.08
				c0-0.33-0.06-0.57-0.17-0.71l-4.34,0.04c-0.32,0-0.86,0.09-1.2,0.19c-0.02,0.1-0.04,0.26-0.04,0.48v11.97l-2.28,0.24
				c-6.84,0.73-11.6,3.01-15.92,7.62c-4.04,4.31-6.01,9.52-6.01,15.91c0,4.77,0.84,8.72,2.49,11.74c1.65,3.01,4.18,5.59,7.52,7.68
				c3.55,2.22,8.4,4.35,14.43,6.33c6.66,2.27,11.72,4.21,15.09,5.79c3.63,1.7,6.43,3.76,8.33,6.1c2.04,2.52,3.07,5.7,3.07,9.46
				c0,5.73-2.04,10.31-6.05,13.61c-3.87,3.18-9.62,4.79-17.09,4.79c-7,0-12.53-1.63-16.43-4.86c-3.87-3.19-6.27-7.06-7.13-11.51
				c-0.28-0.87-0.52-0.87-0.68-0.87h-5.85c0.03,0.05,0,0.1,0,0.25c0.14,3.66,1.19,7.25,3.12,10.55c1.92,3.3,4.78,6.11,8.5,8.35
				c3.75,2.27,8.33,3.68,13.61,4.2l2.31,0.23v12.13C96.04,158.18,96.11,158.37,96.14,158.41L96.14,158.41z M94.85,37.68L94.85,37.68
				L94.85,37.68z"/>
		</g>
	</g>
	<rect class="st1" width="196" height="196"/>
</g>
</svg>
