<svg xmlns="http://www.w3.org/2000/svg" width="79" height="78" viewBox="0 0 79 78">
  <g id="Line" transform="translate(-0.038 -0.176)">
    <g id="Group_5448" data-name="Group 5448" transform="translate(0 0)">
      <rect id="Rectangle_2024" data-name="Rectangle 2024" width="79" height="78" transform="translate(0.038 0.176)" fill="none"/>
      <g id="Group_5444" data-name="Group 5444" transform="translate(17.457 59.658)">
        <path id="Path_3337" data-name="Path 3337" d="M86.561,154.447H42.72a.721.721,0,0,1-.72-.72V150.72a.721.721,0,0,1,.72-.72H86.561a.721.721,0,0,1,.72.72v3.008A.721.721,0,0,1,86.561,154.447Z" transform="translate(-42 -150)" fill="#414141"/>
      </g>
      <g id="Group_5446" data-name="Group 5446" transform="translate(17.716 18.437)">
        <g id="Group_5445" data-name="Group 5445">
          <path id="Path_3338" data-name="Path 3338" d="M45.13,85.492l.008-8.518a1.1,1.1,0,0,1,.327-.784L70.847,50.808a1.313,1.313,0,0,1,1.718.166L80.78,59.29a1.109,1.109,0,0,1-.008,1.565L55.221,86.094a1.116,1.116,0,0,1-.752.319l-8.211.186A1.109,1.109,0,0,1,45.13,85.492Zm2.745-7.35-.105,4.427A1.1,1.1,0,0,0,48.89,83.7l4.427-.053a1.1,1.1,0,0,0,.764-.319l22.778-22.5a1.105,1.105,0,0,0,.008-1.565l-4.322-4.374a1.1,1.1,0,0,0-1.565-.008L48.2,77.382A1.118,1.118,0,0,0,47.875,78.142Z" transform="translate(-44.123 -49.539)" fill="#414141"/>
          <path id="Path_3339" data-name="Path 3339" d="M44.754,86.113a2.109,2.109,0,0,1-1.48-.6,2.086,2.086,0,0,1-.635-1.516l.008-8.522a2.128,2.128,0,0,1,.631-1.5L68.656,48.591a2.028,2.028,0,0,1,1.7-.53,2.5,2.5,0,0,1,1.451.7l8.211,8.32A2.118,2.118,0,0,1,80,60.073L54.453,85.313a2.118,2.118,0,0,1-1.439.61l-8.211.186A.2.2,0,0,1,44.754,86.113ZM70.039,50.066,44.7,75.4a.1.1,0,0,0-.032.073L44.661,84a.089.089,0,0,0,.028.069c.02.02.053.036.069.028l8.211-.186a.1.1,0,0,0,.065-.028l25.551-25.24a.1.1,0,0,0,0-.133L70.37,50.192A.5.5,0,0,0,70.039,50.066ZM47.394,83.214a2.12,2.12,0,0,1-2.114-2.167l.105-4.427a2.091,2.091,0,0,1,.631-1.455l22.778-22.5a2.1,2.1,0,0,1,1.488-.61h.012a2.093,2.093,0,0,1,1.492.631l4.322,4.374a2.113,2.113,0,0,1-.02,2.992l-22.782,22.5a2.1,2.1,0,0,1-1.464.61l-4.423.053ZM70.277,54.077a.1.1,0,0,0-.069.028L47.431,76.6a.1.1,0,0,0-.028.065h0L47.3,81.1a.089.089,0,0,0,.028.069.109.109,0,0,0,.069.028l4.427-.053a.1.1,0,0,0,.065-.028l22.778-22.5a.1.1,0,0,0,0-.133l-4.322-4.374a.08.08,0,0,0-.065-.028Z" transform="translate(-42.64 -48.042)" fill="#414141"/>
        </g>
      </g>
      <g id="Group_5447" data-name="Group 5447" transform="translate(47.464 12.805)">
        <path id="Path_3340" data-name="Path 3340" d="M126.389,47.707l-9.9-9.9a1.032,1.032,0,0,1,.065-1.455l1.908-1.908a1.032,1.032,0,0,1,1.456-.065l9.9,9.9a1.032,1.032,0,0,1-.065,1.455l-1.908,1.908A1.031,1.031,0,0,1,126.389,47.707Z" transform="translate(-116.221 -34.111)" fill="#414141"/>
      </g>
    </g>
  </g>
</svg>
