<svg xmlns="http://www.w3.org/2000/svg" width="26" height="26" viewBox="0 0 26 26">
  <g id="Group_11775" data-name="Group 11775" transform="translate(0)">
    <path id="Path_3374" data-name="Path 3374" d="M23.373,26H1.327A1.989,1.989,0,0,1-.65,24.01V1.99A1.989,1.989,0,0,1,1.327,0H23.373A1.989,1.989,0,0,1,25.35,1.99V24.01A1.989,1.989,0,0,1,23.373,26Z" transform="translate(0.65)" fill="#f4f4f4"/>
    <g id="Group_5593" data-name="Group 5593" transform="translate(5.095 4.285)">
      <g id="Group_5589" data-name="Group 5589" transform="translate(0 16.053)">
        <path id="Path_3375" data-name="Path 3375" d="M60.738,148.164H45.717a.247.247,0,0,1-.247-.247v-1.03a.247.247,0,0,1,.247-.247H60.736a.247.247,0,0,1,.247.247v1.03A.246.246,0,0,1,60.738,148.164Z" transform="translate(-45.47 -146.64)" fill="#c7c7c7"/>
      </g>
      <g id="Group_5591" data-name="Group 5591" transform="translate(0.089 1.932)">
        <g id="Group_5590" data-name="Group 5590">
          <path id="Path_3376" data-name="Path 3376" d="M48.34,67.708l0-2.918a.382.382,0,0,1,.112-.27l8.695-8.695a.452.452,0,0,1,.589.056l2.815,2.85a.38.38,0,0,1,0,.536L51.8,67.916a.373.373,0,0,1-.258.109l-2.814.064A.38.38,0,0,1,48.34,67.708Zm.939-2.518L49.243,66.7a.378.378,0,0,0,.383.388l1.517-.017a.384.384,0,0,0,.262-.109l7.8-7.708a.38.38,0,0,0,0-.536l-1.48-1.5a.38.38,0,0,0-.536,0l-7.8,7.708A.39.39,0,0,0,49.279,65.19Z" transform="translate(-47.995 -55.391)" fill="#c7c7c7"/>
          <path id="Path_3377" data-name="Path 3377" d="M46.784,66.489a.713.713,0,0,1-.506-.208.722.722,0,0,1-.218-.52l0-2.918a.73.73,0,0,1,.215-.515l8.693-8.693a.7.7,0,0,1,.583-.182.86.86,0,0,1,.5.239l2.815,2.85a.727.727,0,0,1-.006,1.026l-8.754,8.648a.725.725,0,0,1-.494.209l-2.812.064ZM55.447,54.14l-8.681,8.681a.035.035,0,0,0-.011.024l0,2.918a.027.027,0,0,0,.011.023c.006.006.018.012.023.009l2.814-.064a.031.031,0,0,0,.023-.009l8.754-8.648a.035.035,0,0,0,0-.047l-2.815-2.85A.193.193,0,0,0,55.447,54.14ZM47.689,65.495a.725.725,0,0,1-.724-.742L47,63.236a.717.717,0,0,1,.215-.5l7.8-7.708a.721.721,0,0,1,.509-.209h0a.723.723,0,0,1,.512.215l1.48,1.5a.726.726,0,0,1-.006,1.026l-7.8,7.708a.717.717,0,0,1-.5.209l-1.515.018Zm7.838-9.983a.031.031,0,0,0-.023.009L47.7,63.23a.031.031,0,0,0-.009.023h0l-.036,1.517a.037.037,0,0,0,.009.024.04.04,0,0,0,.024.009l1.517-.018a.031.031,0,0,0,.023-.009l7.8-7.708a.033.033,0,0,0,0-.045l-1.48-1.5a.05.05,0,0,0-.024-.011Z" transform="translate(-46.06 -53.447)" fill="#c7c7c7"/>
        </g>
      </g>
      <g id="Group_5592" data-name="Group 5592" transform="translate(10.28)">
        <path id="Path_3378" data-name="Path 3378" d="M116.8,45.354l-3.391-3.391a.353.353,0,0,1,.021-.5l.655-.655a.353.353,0,0,1,.5-.021l3.391,3.391a.353.353,0,0,1-.021.5l-.655.655A.353.353,0,0,1,116.8,45.354Z" transform="translate(-113.315 -40.695)" fill="#c7c7c7"/>
      </g>
    </g>
  </g>
</svg>
