<svg xmlns="http://www.w3.org/2000/svg" width="26" height="26" viewBox="0 0 26 26">
  <g id="Line" transform="translate(0)">
    <path id="Path_3374" data-name="Path 3374" d="M23.373,26H1.327A1.989,1.989,0,0,1-.65,24.01V1.99A1.989,1.989,0,0,1,1.327,0H23.373A1.989,1.989,0,0,1,25.35,1.99V24.01A1.989,1.989,0,0,1,23.373,26Z" transform="translate(0.65)" fill="#2933c5"/>
    <g id="Group_5593" data-name="Group 5593" transform="translate(5.91 5.252)">
      <g id="Group_5589" data-name="Group 5589" transform="translate(0 14.318)">
        <path id="Path_3375" data-name="Path 3375" d="M59.087,148H45.69a.22.22,0,0,1-.22-.22v-.919a.22.22,0,0,1,.22-.22h13.4a.22.22,0,0,1,.22.22v.919A.219.219,0,0,1,59.087,148Z" transform="translate(-45.47 -146.64)" fill="#fff"/>
      </g>
      <g id="Group_5591" data-name="Group 5591" transform="translate(0.08 1.723)">
        <g id="Group_5590" data-name="Group 5590">
          <path id="Path_3376" data-name="Path 3376" d="M48.34,66.414l0-2.6a.341.341,0,0,1,.1-.241L56.2,55.816a.4.4,0,0,1,.526.05l2.511,2.542a.339.339,0,0,1,0,.478L51.424,66.6a.333.333,0,0,1-.23.1l-2.51.057A.339.339,0,0,1,48.34,66.414Zm.838-2.246-.032,1.351a.337.337,0,0,0,.342.346l1.353-.015a.342.342,0,0,0,.234-.1l6.96-6.875a.339.339,0,0,0,0-.478l-1.32-1.337a.339.339,0,0,0-.478,0l-6.96,6.875A.348.348,0,0,0,49.178,64.168Z" transform="translate(-48.032 -55.429)" fill="#fff"/>
          <path id="Path_3377" data-name="Path 3377" d="M46.706,65.079a.636.636,0,0,1-.451-.185.644.644,0,0,1-.195-.464l0-2.6a.651.651,0,0,1,.192-.459l7.753-7.753a.62.62,0,0,1,.52-.162.767.767,0,0,1,.443.214l2.511,2.542a.648.648,0,0,1-.005.915L49.67,64.835a.647.647,0,0,1-.441.187l-2.508.057Zm7.726-11.014L46.69,61.807a.031.031,0,0,0-.009.022l0,2.6a.024.024,0,0,0,.009.02c.005.005.016.011.02.008l2.51-.057a.027.027,0,0,0,.02-.008l7.807-7.713a.031.031,0,0,0,0-.042L54.533,54.1A.172.172,0,0,0,54.432,54.065ZM47.513,64.192a.646.646,0,0,1-.646-.662l.032-1.353a.639.639,0,0,1,.192-.445l6.96-6.875a.643.643,0,0,1,.454-.186h0a.645.645,0,0,1,.457.192l1.32,1.337a.648.648,0,0,1-.005.915l-6.96,6.875a.639.639,0,0,1-.447.187l-1.351.016Zm6.991-8.9a.028.028,0,0,0-.02.008l-6.96,6.875a.027.027,0,0,0-.008.02h0l-.032,1.353a.033.033,0,0,0,.008.022.036.036,0,0,0,.022.008l1.353-.016a.028.028,0,0,0,.02-.008l6.96-6.875a.029.029,0,0,0,0-.041L54.525,55.3a.044.044,0,0,0-.022-.009Z" transform="translate(-46.06 -53.447)" fill="#fff"/>
        </g>
      </g>
      <g id="Group_5592" data-name="Group 5592" transform="translate(9.169)">
        <path id="Path_3378" data-name="Path 3378" d="M116.423,44.85,113.4,41.826a.315.315,0,0,1,.019-.445L114,40.8a.315.315,0,0,1,.445-.019L117.47,43.8a.315.315,0,0,1-.019.445l-.584.584A.315.315,0,0,1,116.423,44.85Z" transform="translate(-113.315 -40.695)" fill="#fff"/>
      </g>
    </g>
    <rect id="Rectangle_2052" data-name="Rectangle 2052" width="25.824" height="26" transform="translate(0.087)" fill="none"/>
  </g>
</svg>
