<?xml version="1.0" encoding="utf-8"?>
<!-- Generator: Adobe Illustrator 24.3.0, SVG Export Plug-In . SVG Version: 6.00 Build 0)  -->
<svg version="1.1" id="Icon_Set" xmlns="http://www.w3.org/2000/svg" xmlns:xlink="http://www.w3.org/1999/xlink" x="0px" y="0px"
	 viewBox="0 0 196 196" style="enable-background:new 0 0 196 196;" xml:space="preserve">
<style type="text/css">
	.st0{fill:#2933C5;}
	.st1{fill:none;}
	.st2{fill:#2933C5;stroke:#2933C5;stroke-width:0.25;stroke-miterlimit:10;}
	.st3{fill:#2933BC;}
	.st4{fill:#1CB69A;}
	.st5{fill:#FFFFFF;}
	.st6{fill:#F64066;}
</style>
<g>
	<g>
		<rect class="st1" width="196" height="196"/>
		<g>
			<path class="st0" d="M152.22,161H43.78c-0.98,0-1.78-0.8-1.78-1.78v-7.44c0-0.98,0.8-1.78,1.78-1.78h108.44
				c0.98,0,1.78,0.8,1.78,1.78v7.44C154,160.2,153.2,161,152.22,161z"/>
		</g>
		<g>
			<g>
				<path class="st0" d="M45.13,136.97l0.02-21.07c0-0.73,0.29-1.43,0.81-1.94l62.78-62.78c1.07-1.06,3.19-0.67,4.25,0.41
					l20.32,20.57c1.06,1.07,1.05,2.81-0.02,3.87l-63.2,62.43c-0.5,0.49-1.16,0.77-1.86,0.79l-20.31,0.46
					C46.4,139.74,45.13,138.51,45.13,136.97z M51.92,118.79l-0.26,10.95c-0.04,1.55,1.22,2.82,2.77,2.8l10.95-0.13
					c0.71-0.01,1.39-0.29,1.89-0.79l56.34-55.65c1.07-1.06,1.09-2.79,0.02-3.87l-10.69-10.82c-1.06-1.08-2.79-1.09-3.87-0.02
					l-56.34,55.65C52.23,117.41,51.94,118.08,51.92,118.79z"/>
				<path class="st0" d="M47.87,142.21c-1.38,0-2.67-0.53-3.66-1.49c-1.02-1-1.58-2.33-1.57-3.75l0.02-21.08
					c0-1.39,0.57-2.74,1.56-3.72l62.77-62.77c1.06-1.04,2.59-1.52,4.21-1.31c1.37,0.17,2.67,0.8,3.59,1.73L135.1,70.4
					c2.03,2.05,2.01,5.38-0.04,7.4l-63.2,62.43c-0.96,0.94-2.22,1.48-3.56,1.51l-20.31,0.46C47.95,142.21,47.91,142.21,47.87,142.21
					z M110.41,53.05l-62.67,62.67c-0.06,0.06-0.08,0.12-0.08,0.18l-0.02,21.08c0,0.07,0.02,0.12,0.07,0.17
					c0.05,0.05,0.13,0.09,0.17,0.07l20.31-0.46c0.06,0,0.12-0.03,0.16-0.07l63.2-62.43c0.09-0.09,0.09-0.24,0-0.33l-20.32-20.57
					C111.03,53.15,110.63,53.04,110.41,53.05z M54.4,135.04c-1.41,0-2.73-0.55-3.72-1.56c-1.01-1.02-1.54-2.37-1.51-3.8l0.26-10.95
					c0.03-1.36,0.58-2.64,1.56-3.6l56.34-55.65c0.99-0.98,2.29-1.51,3.68-1.51c0.01,0,0.02,0,0.03,0c1.4,0.01,2.71,0.56,3.69,1.56
					l10.69,10.82c0.98,0.99,1.52,2.31,1.51,3.71s-0.56,2.71-1.56,3.69L69.02,133.4c-0.97,0.96-2.26,1.5-3.62,1.51l-10.94,0.13
					C54.44,135.04,54.42,135.04,54.4,135.04z M111,62.97c-0.06,0-0.12,0.02-0.17,0.07l-56.34,55.65c-0.04,0.04-0.07,0.1-0.07,0.16v0
					l-0.26,10.95c0,0.07,0.02,0.12,0.07,0.17c0.05,0.05,0.13,0.07,0.17,0.07l10.95-0.13c0.06,0,0.12-0.03,0.16-0.07l56.34-55.65
					c0.09-0.09,0.09-0.24,0-0.33l-10.69-10.82C111.12,62.99,111.06,62.97,111,62.97C111,62.97,111,62.97,111,62.97z"/>
			</g>
		</g>
		<g>
			<path class="st0" d="M141.37,67.74l-24.48-24.48c-0.95-0.95-0.88-2.57,0.16-3.6l4.72-4.72c1.04-1.04,2.65-1.11,3.6-0.16
				l24.48,24.48c0.95,0.95,0.88,2.57-0.16,3.6l-4.72,4.72C143.94,68.62,142.33,68.69,141.37,67.74z"/>
		</g>
	</g>
</g>
</svg>
