<svg xmlns="http://www.w3.org/2000/svg" width="113" height="113" viewBox="0 0 113 113"><defs><style>.a{fill:rgba(246,64,102,0.25);}.b{fill:#f64066;}</style></defs><g transform="translate(12789.957 8300)"><circle class="a" cx="56.5" cy="56.5" r="56.5" transform="translate(-12789.957 -8300)"/><path class="b" d="M176.381-2118.179H145.169a5.326,5.326,0,0,1-5.17-5.459l.008-15.486,9.873,6.22,7.957-7.918,10.039,9.195,13.7-8.483v16.473A5.34,5.34,0,0,1,176.381-2118.179Zm-7.029-25.115,0,0-11.513-10.092-7.957,7.794-9.866-5.766.009-15.96a5.327,5.327,0,0,1,5.173-5.458h20.792l15.592,16.379v6.2l-12.226,6.9Z" transform="translate(-12894.247 -6098.221)"/></g></svg>