<svg id="Group_4948" data-name="Group 4948" xmlns="http://www.w3.org/2000/svg" width="74.155" height="59.324" viewBox="0 0 74.155 59.324">
  <path id="ic_folder_24px" d="M31.662,4H9.415a7.406,7.406,0,0,0-7.378,7.415L2,55.908a7.437,7.437,0,0,0,7.415,7.415H68.739a7.437,7.437,0,0,0,7.415-7.415V18.831a7.437,7.437,0,0,0-7.415-7.415H39.077Z" transform="translate(-2 -4)" fill="#edf1fb"/>
  <path id="ic_perm_media_24px" d="M2.746,7.493H0v6.866H.014L0,26.718a2.755,2.755,0,0,0,2.746,2.746H27.465V26.718H2.746ZM30.211,4.746H19.225L16.479,2H8.239A2.743,2.743,0,0,0,5.507,4.746L5.493,21.225a2.755,2.755,0,0,0,2.746,2.746H30.211a2.755,2.755,0,0,0,2.746-2.746V7.493A2.755,2.755,0,0,0,30.211,4.746ZM9.613,19.852l6.18-8.239L20.6,17.806l3.433-4.133,4.806,6.18Z" transform="translate(20.599 16.127)" fill="#fff"/>
</svg>
