<svg xmlns="http://www.w3.org/2000/svg" viewBox="0 0 79 78" width="79" height="78">
	<style>
		tspan { white-space:pre }
		.shp0 { fill: none } 
		.shp1 { fill: #2933c5 } 
	</style>
	<g id="Group_11556">
		<path id="Rectangle_2265" class="shp0" d="M0 0L79 0L79 78L0 78L0 0Z" />
		<path id="Path_7120" fill-rule="evenodd" class="shp1" d="M38.55 13.81C38.61 13.81 38.68 13.82 38.75 13.82C38.81 13.83 38.88 13.85 38.94 13.86C39.01 13.88 39.07 13.9 39.13 13.92C39.19 13.95 39.25 13.98 39.31 14.01L63.35 27.45C63.47 27.52 63.58 27.6 63.68 27.7C63.78 27.79 63.86 27.9 63.93 28.02C64 28.14 64.06 28.27 64.09 28.4C64.13 28.54 64.15 28.67 64.15 28.81L64.15 63.02C64.15 63.22 64.11 63.43 64.03 63.62C63.95 63.8 63.84 63.98 63.69 64.12C63.55 64.27 63.37 64.38 63.19 64.46C63 64.54 62.79 64.58 62.59 64.58L14.51 64.58C14.3 64.58 14.1 64.54 13.91 64.46C13.72 64.38 13.55 64.27 13.41 64.12C13.26 63.98 13.15 63.8 13.07 63.61C12.99 63.43 12.95 63.22 12.95 63.02L12.95 28.81C12.95 28.67 12.97 28.53 13 28.4C13.04 28.26 13.09 28.14 13.16 28.02C13.23 27.9 13.32 27.79 13.42 27.69C13.52 27.6 13.63 27.51 13.75 27.45L37.79 14.01C37.85 13.98 37.91 13.95 37.97 13.92C38.03 13.9 38.09 13.88 38.16 13.86C38.22 13.84 38.28 13.83 38.35 13.82C38.42 13.81 38.48 13.81 38.55 13.81L38.55 13.81ZM18.19 30.97L18.19 59.34L58.91 59.34L58.91 30.97L38.55 19.59L18.19 30.97Z" />
		<g id="Group_10965">
			<path id="Path_7121" class="shp1" d="M50.24 55.51L26.66 55.51C26.01 55.51 25.4 55.25 24.95 54.8C24.49 54.34 24.24 53.73 24.24 53.09C24.24 52.45 24.49 51.83 24.95 51.38C25.4 50.92 26.01 50.67 26.66 50.67L50.24 50.67C50.88 50.67 51.49 50.92 51.95 51.38C52.4 51.83 52.66 52.45 52.66 53.09C52.66 53.73 52.4 54.34 51.95 54.8C51.49 55.25 50.88 55.51 50.24 55.51L50.24 55.51Z" />
		</g>
		<g id="Group_10966">
			<path id="Path_7122" class="shp1" d="M50.24 46.34L26.66 46.34C26.01 46.34 25.4 46.08 24.95 45.63C24.49 45.17 24.24 44.56 24.24 43.92C24.24 43.28 24.49 42.66 24.95 42.21C25.4 41.75 26.01 41.5 26.66 41.5L50.24 41.5C50.88 41.5 51.49 41.75 51.95 42.21C52.4 42.66 52.66 43.28 52.66 43.92C52.66 44.56 52.4 45.17 51.95 45.63C51.49 46.08 50.88 46.34 50.24 46.34L50.24 46.34Z" />
		</g>
		<g id="Group_10967">
			<path id="Path_7123" class="shp1" d="M50.24 37.16L26.66 37.16C26.01 37.16 25.4 36.91 24.95 36.46C24.49 36 24.24 35.39 24.24 34.74C24.24 34.1 24.49 33.49 24.95 33.03C25.4 32.58 26.01 32.33 26.66 32.33L50.24 32.33C50.88 32.33 51.49 32.58 51.95 33.03C52.4 33.49 52.66 34.1 52.66 34.75C52.66 35.39 52.4 36 51.95 36.46C51.49 36.91 50.88 37.16 50.24 37.16L50.24 37.16Z" />
		</g>
	</g>
</svg>