<svg xmlns="http://www.w3.org/2000/svg" width="79" height="79" viewBox="0 0 79 79">
  <g id="Group_11744" data-name="Group 11744" transform="translate(-0.019 -0.059)">
    <g id="Group_11551" data-name="Group 11551" transform="translate(13.87 13.87)">
      <g id="Grid" transform="translate(0.438 0)">
        <g id="Group_5153" data-name="Group 5153" transform="translate(0 0)">
          <path id="Path_2880" data-name="Path 2880" d="M37.988,87.462a2.488,2.488,0,0,1-1.759-4.248L83.714,35.729a2.488,2.488,0,0,1,3.518,3.518L39.748,86.733A2.479,2.479,0,0,1,37.988,87.462Z" transform="translate(-35.5 -35)" fill="#414141"/>
        </g>
      </g>
      <g id="Line" transform="translate(0 7.949)">
        <path id="Path_2881" data-name="Path 2881" d="M60.94,59.144c9.253,0,17.961,9.628,21.218,13.686C78.9,76.887,70.193,86.515,60.94,86.515S42.979,76.887,39.723,72.829c3.257-4.058,11.965-13.686,21.218-13.686m0-4.977c-11.863,0-21.967,11.459-25.784,16.419a3.894,3.894,0,0,0,0,4.487c3.817,4.96,13.921,16.419,25.784,16.419S82.908,80.033,86.725,75.073a3.893,3.893,0,0,0,0-4.487C82.908,65.626,72.8,54.167,60.94,54.167Z" transform="translate(-34.445 -54.167)" fill="#414141"/>
        <g id="Group_5154" data-name="Group 5154" transform="translate(15.713 8.225)">
          <path id="Path_2882" data-name="Path 2882" d="M83.116,95.565A10.783,10.783,0,1,1,93.9,84.783,10.795,10.795,0,0,1,83.116,95.565Zm0-16.589a5.806,5.806,0,1,0,5.806,5.806A5.812,5.812,0,0,0,83.116,78.977Z" transform="translate(-72.333 -74)" fill="#414141"/>
        </g>
      </g>
    </g>
    <g id="Grid-2" data-name="Grid" transform="translate(0 0)">
      <rect id="Rectangle_1883" data-name="Rectangle 1883" width="79" height="79" transform="translate(0.019 0.059)" fill="none"/>
    </g>
  </g>
</svg>
