<?xml version="1.0" encoding="utf-8"?>
<!-- Generator: Adobe Illustrator 24.3.0, SVG Export Plug-In . SVG Version: 6.00 Build 0)  -->
<svg version="1.1" id="Icon_Set" xmlns="http://www.w3.org/2000/svg" xmlns:xlink="http://www.w3.org/1999/xlink" x="0px" y="0px"
	 viewBox="0 0 196 196" style="enable-background:new 0 0 196 196;" xml:space="preserve">
<style type="text/css">
	.st0{fill:#2933C5;}
	.st1{fill:none;}
	.st2{fill:#2933C5;stroke:#2933C5;stroke-width:0.25;stroke-miterlimit:10;}
	.st3{fill:#2933BC;}
	.st4{fill:#1CB69A;}
	.st5{fill:#FFFFFF;}
	.st6{fill:#F64066;}
</style>
<g>
	<rect class="st1" width="196" height="196"/>
	<g>
		<path class="st0" d="M41.5,161.5c-1.54,0-3.07-0.59-4.24-1.76c-2.34-2.34-2.34-6.14,0-8.48l114.5-114.5
			c2.34-2.34,6.14-2.34,8.48,0c2.34,2.34,2.34,6.14,0,8.48l-114.5,114.5C44.57,160.91,43.04,161.5,41.5,161.5z"/>
	</g>
	<path class="st0" d="M98.33,66.17c22.31,0,43.31,23.22,51.16,33c-7.85,9.78-28.85,33-51.16,33s-43.31-23.22-51.16-33
		C55.02,89.38,76.02,66.17,98.33,66.17 M98.33,54.17c-28.61,0-52.97,27.63-62.17,39.59c-2.29,2.97-2.29,7.85,0,10.82
		c9.2,11.96,33.57,39.59,62.17,39.59c28.61,0,52.97-27.63,62.17-39.59c2.29-2.97,2.29-7.85,0-10.82
		C151.3,81.8,126.94,54.17,98.33,54.17L98.33,54.17z"/>
	<g>
		<path class="st0" d="M98.33,126c-14.34,0-26-11.66-26-26s11.66-26,26-26s26,11.66,26,26S112.67,126,98.33,126z M98.33,86
			c-7.72,0-14,6.28-14,14s6.28,14,14,14s14-6.28,14-14S106.05,86,98.33,86z"/>
	</g>
</g>
</svg>
