<?xml version="1.0" encoding="utf-8"?>
<!-- Generator: Adobe Illustrator 24.3.0, SVG Export Plug-In . SVG Version: 6.00 Build 0)  -->
<svg version="1.1" id="Icon_Set" xmlns="http://www.w3.org/2000/svg" xmlns:xlink="http://www.w3.org/1999/xlink" x="0px" y="0px"
	 viewBox="0 0 197 197" style="enable-background:new 0 0 197 197;" xml:space="preserve">
<style type="text/css">
	.st0{fill:#74798C;}
	.st1{fill:none;}
	.st2{fill:#74798C;stroke:#74798C;stroke-width:0.25;stroke-miterlimit:10;}
	.st3{fill:#74798C;}
	.st4{fill:#1CB69A;}
	.st5{fill:#FFFFFF;}
	.st6{fill:#F64066;}
</style>
<g>
	<g>
		<path class="st0" d="M154,39H44c-2.76,0-5,2.24-5,5v94.99V154v0.18c0,2.66,2.16,4.82,4.82,4.82H44h110h0.18
			c2.66,0,4.82-2.16,4.82-4.82V154v-33.97V44C159,41.24,156.76,39,154,39z M147,51v56.94l-24.83-20.3c-1.79-1.84-4.2-2.8-6.63-2.8
			c-1.77,0-3.56,0.51-5.12,1.55c-12.2,8.14-42.47,29.55-59.43,41.58V51H147z M147,147H51v-4.31c12.78-9.08,49.07-34.84,64.34-45.14
			L147,123.44V147z"/>
		<circle class="st0" cx="70.86" cy="71.19" r="12"/>
	</g>
	<rect class="st1" width="197" height="197"/>
</g>
</svg>
