<svg xmlns="http://www.w3.org/2000/svg" width="113" height="113" viewBox="0 0 113 113">
  <g id="Group_11961" data-name="Group 11961" transform="translate(12789.957 8300)">
    <circle id="Ellipse_390" data-name="Ellipse 390" cx="56.5" cy="56.5" r="56.5" transform="translate(-12789.957 -8300)" fill="#edf1fb"/>
    <g id="Group_11957" data-name="Group 11957" transform="translate(-12746.13 -8203.703) rotate(-111)">
      <path id="Path_2777" data-name="Path 2777" d="M50.413,6.536l-8.162-6a2.768,2.768,0,0,0-3.869.591l-6,8.162a2.768,2.768,0,1,0,4.46,3.278l2.016-2.743a19.986,19.986,0,0,1-3.909,10.867,19.519,19.519,0,0,1-7.963,6.326A19.759,19.759,0,0,1,4.61,22.5a2.661,2.661,0,0,0-4.6,1.6,2.7,2.7,0,0,0,.733,2.072,25.225,25.225,0,0,0,18.229,7.849h0a25.394,25.394,0,0,0,6.562-.866A25.04,25.04,0,0,0,40.842,21.416,25.046,25.046,0,0,0,44.226,8.859L47.135,11A2.768,2.768,0,0,0,51,10.405h0A2.768,2.768,0,0,0,50.413,6.536Z" transform="translate(13.682 18.166)" fill="#2933c5" stroke="#2933c5" stroke-width="0.5"/>
      <path id="Path_2778" data-name="Path 2778" d="M51.757,8.711A25.419,25.419,0,0,0,26.427.772,25.231,25.231,0,0,0,7.467,25.3L4.426,23.163a2.809,2.809,0,1,0-3.232,4.6l8.489,5.971a2.809,2.809,0,0,0,3.914-.681l5.971-8.489a2.81,2.81,0,0,0-.682-3.914h0a2.809,2.809,0,0,0-3.914.682L12.816,24.39A19.894,19.894,0,0,1,27.749,5.937,20.035,20.035,0,0,1,47.725,12.2,2.66,2.66,0,0,0,52.4,10.824,2.71,2.71,0,0,0,51.757,8.711Z" transform="translate(0 0)" fill="#2933c5" stroke="#2933c5" stroke-width="0.5"/>
    </g>
  </g>
</svg>
