<?xml version="1.0" encoding="utf-8"?>
<!-- Generator: Adobe Illustrator 24.3.0, SVG Export Plug-In . SVG Version: 6.00 Build 0)  -->
<svg version="1.1" id="Icon_Set" xmlns="http://www.w3.org/2000/svg" xmlns:xlink="http://www.w3.org/1999/xlink" x="0px" y="0px"
	 viewBox="0 0 196 196" style="enable-background:new 0 0 196 196;" xml:space="preserve">
<style type="text/css">
	.st0{fill:#2933C5;}
	.st1{fill:none;}
	.st2{fill:#2933C5;stroke:#2933C5;stroke-width:0.25;stroke-miterlimit:10;}
	.st3{fill:#2933BC;}
	.st4{fill:#1CB69A;}
	.st5{fill:#FFFFFF;}
	.st6{fill:#F64066;}
</style>
<g>
	<g id="Group_5031_2_" transform="translate(-1415.5 -134.25)">
		<g id="Group_5029_2_" transform="translate(1415.5 135.844)">
			<g id="Path_2775_2_">
				<path class="st0" d="M89.71,126.97h-38.6c-14.15,0.17-25.96-10.75-26.91-24.87c-0.68-14.42,10.47-26.67,24.89-27.34
					c0.4-0.02,0.8-0.03,1.19-0.03h21.1c2.78,0,5.04,2.26,5.04,5.04l0,0c0,2.78-2.26,5.04-5.04,5.04H50.92
					c-8.64-0.12-15.9,6.43-16.67,15.03c-0.56,8.87,6.17,16.52,15.04,17.08c0.33,0.02,0.67,0.03,1,0.03h39.55
					c8.1,0.12,15.09-5.64,16.51-13.61c0.67-4.28-0.42-8.64-3.03-12.1c-1.4-1.77-1.4-4.28,0-6.05l0.23-0.29
					c1.54-2.14,4.52-2.63,6.66-1.09c0.48,0.35,0.9,0.78,1.22,1.28c8.67,11.6,6.29,28.03-5.31,36.7c-4.73,3.53-10.51,5.37-16.41,5.2
					V126.97z"/>
				<path class="st0" d="M90.42,128.17c-0.25,0-0.49,0-0.74-0.01l-1.11-0.03H51.11c-0.11,0-0.22,0-0.33,0
					c-14.59,0-26.75-11.33-27.73-25.95C22.34,87.12,34,74.32,49.04,73.61c0.41-0.02,0.83-0.03,1.24-0.03h21.1
					c3.42,0,6.2,2.78,6.2,6.2s-2.78,6.2-6.2,6.2H50.92c-0.07,0-0.15,0-0.22,0c-7.91,0-14.6,6.1-15.3,13.98
					c-0.25,3.95,1.06,7.8,3.7,10.79c2.64,3,6.28,4.78,10.27,5.04c0.31,0.02,0.62,0.03,0.93,0.03h39.55
					c7.55,0.09,14.05-5.21,15.38-12.66c0.62-3.92-0.41-8.01-2.81-11.2c-1.73-2.18-1.73-5.26,0.02-7.46l0.24-0.3
					c0.88-1.23,2.25-2.08,3.81-2.33c1.56-0.25,3.13,0.11,4.41,1.04c0.6,0.43,1.11,0.97,1.51,1.59c4.33,5.79,6.16,13.01,5.12,20.24
					c-1.05,7.24-4.85,13.63-10.71,18.01C102.1,126.25,96.3,128.17,90.42,128.17z M89.71,125.82l1.15,0.04
					c5.23-0.09,10.37-1.84,14.57-4.98c5.36-4.01,8.85-9.86,9.81-16.49c0.96-6.63-0.72-13.23-4.73-18.59
					c-0.29-0.44-0.6-0.77-0.97-1.03c-0.78-0.56-1.74-0.79-2.69-0.63c-0.95,0.16-1.79,0.67-2.35,1.46l-0.27,0.34
					c-1.07,1.35-1.07,3.25,0.01,4.61c2.8,3.71,3.98,8.44,3.26,13c-1.53,8.6-8.94,14.74-17.67,14.59H50.29
					c-0.36,0-0.71-0.01-1.07-0.03c-4.6-0.29-8.81-2.36-11.85-5.81c-3.05-3.46-4.56-7.89-4.27-12.49c0.81-9.1,8.51-16.12,17.59-16.12
					c0.08,0,0.17,0,0.25,0h20.45c2.14,0,3.89-1.74,3.89-3.89s-1.74-3.89-3.89-3.89h-21.1c-0.38,0-0.76,0.01-1.14,0.03
					c-13.76,0.65-24.44,12.37-23.79,26.14c0.9,13.37,12.05,23.77,25.44,23.77c0.1,0,0.2,0,0.3,0H89.71z"/>
			</g>
		</g>
		<g id="Group_5030_2_" transform="translate(1426.459 134.25)">
			<g id="Path_2776_2_">
				<path class="st0" d="M134.06,120.53h-17.35c-2.78,0-5.04-2.26-5.04-5.04l0,0c0-2.78,2.26-5.04,5.04-5.04h17.54
					c8.09,0.11,15.05-5.68,16.41-13.65c1.33-8.79-4.73-16.99-13.52-18.32c-0.79-0.12-1.58-0.18-2.38-0.18H95.02
					c-7.98-0.11-14.87,5.56-16.3,13.42c-0.52,3.12-0.1,6.32,1.19,9.21c0.97,2.1,0.39,4.6-1.42,6.05l0,0
					c-2.19,1.71-5.36,1.32-7.08-0.87c-0.23-0.3-0.43-0.62-0.59-0.96c-5.98-13.11-0.2-28.58,12.9-34.55
					c3.41-1.56,7.11-2.36,10.86-2.35h40.18c14.44,0.02,26.14,11.74,26.12,26.19c0,0.99-0.06,1.98-0.17,2.97
					C158.97,110.73,147.53,120.68,134.06,120.53z"/>
				<path class="st0" d="M134.35,121.69c-0.1,0-0.2,0-0.3,0h-17.35c-3.42,0-6.2-2.78-6.2-6.2c0-3.42,2.78-6.2,6.2-6.2h17.54
					c0.07,0,0.15,0,0.22,0c7.49,0,13.79-5.3,15.05-12.69c0.59-3.92-0.39-7.87-2.76-11.08c-2.37-3.21-5.85-5.31-9.8-5.9
					c-0.73-0.11-1.47-0.17-2.21-0.17H95.02c-7.42-0.1-13.84,5.14-15.17,12.47c-0.48,2.89-0.1,5.84,1.11,8.53
					c1.19,2.58,0.47,5.63-1.75,7.42c-1.32,1.03-2.94,1.48-4.58,1.28c-1.64-0.2-3.11-1.03-4.13-2.34c-0.28-0.37-0.53-0.76-0.73-1.18
					C66.75,99,66.49,91.6,69.03,84.78c2.55-6.81,7.59-12.23,14.21-15.25c3.57-1.63,7.37-2.46,11.3-2.46c0.01,0,0.03,0,0.04,0h40.18
					c7.3,0.01,14.15,2.86,19.3,8.02c5.15,5.16,7.98,12.03,7.97,19.32c0,1.04-0.06,2.08-0.18,3.1
					C160.06,111.35,148.26,121.68,134.35,121.69z M134.23,111.6h-17.53c-2.14,0-3.89,1.74-3.89,3.89c0,2.14,1.74,3.89,3.89,3.89
					h17.37c0.09,0,0.19,0,0.28,0c12.75,0,23.56-9.47,25.21-22.14c0.11-0.92,0.16-1.87,0.16-2.82c0.01-6.68-2.58-12.96-7.3-17.69
					c-4.72-4.73-10.99-7.34-17.67-7.34H94.59c-0.01,0-0.03,0-0.04,0c-3.6,0-7.08,0.76-10.35,2.25c-6.06,2.76-10.68,7.72-13.01,13.96
					c-2.33,6.24-2.09,13.01,0.67,19.07c0.12,0.25,0.27,0.5,0.45,0.73c0.64,0.82,1.56,1.34,2.59,1.47c1.03,0.13,2.05-0.15,2.87-0.79
					c1.39-1.11,1.84-3.03,1.09-4.66c-1.4-3.12-1.84-6.53-1.28-9.88c1.52-8.38,8.74-14.38,17.21-14.38c0.08,0,0.16,0,0.25,0h39.73
					c0.86,0,1.71,0.07,2.55,0.19c4.56,0.69,8.57,3.11,11.31,6.82c2.74,3.71,3.87,8.26,3.18,12.82c-1.46,8.52-8.71,14.63-17.31,14.63
					C134.4,111.6,134.32,111.6,134.23,111.6z"/>
			</g>
		</g>
	</g>
	<rect class="st1" width="196" height="196"/>
</g>
</svg>
