<svg xmlns="http://www.w3.org/2000/svg" width="79" height="78" viewBox="0 0 79 78">
  <g id="Group_11765" data-name="Group 11765" transform="translate(0.02 -0.293)">
    <rect id="Rectangle_2377" data-name="Rectangle 2377" width="79" height="78" rx="4" transform="translate(-0.02 0.293)" fill="#fff"/>
    <path id="ic_directions_run_24px" d="M28.855,11.278a4.9,4.9,0,1,0-4.9-4.9A4.914,4.914,0,0,0,28.855,11.278ZM20.037,45.327l2.45-10.778,5.144,4.9v14.7h4.9V35.774l-5.144-4.9,1.47-7.349A17.937,17.937,0,0,0,42.328,29.65v-4.9a12.05,12.05,0,0,1-10.533-5.879l-2.45-3.919a5.052,5.052,0,0,0-4.164-2.45c-.735,0-1.225.245-1.96.245L10.484,18.137V29.65h4.9V21.321l4.409-1.715L15.873,39.448,3.87,37l-.98,4.9Z" transform="translate(16.05 11.28)" fill="#1cb69a"/>
  </g>
</svg>
