<?xml version="1.0" encoding="utf-8"?>
<!-- Generator: Adobe Illustrator 24.3.0, SVG Export Plug-In . SVG Version: 6.00 Build 0)  -->
<svg version="1.1" id="Icon_Set" xmlns="http://www.w3.org/2000/svg" xmlns:xlink="http://www.w3.org/1999/xlink" x="0px" y="0px"
	 viewBox="0 0 196 196" style="enable-background:new 0 0 196 196;" xml:space="preserve">
<style type="text/css">
	.st0{fill:#2933C5;}
	.st1{fill:none;}
	.st2{fill:#2933C5;stroke:#2933C5;stroke-width:0.25;stroke-miterlimit:10;}
	.st3{fill:#2933BC;}
	.st4{fill:#1CB69A;}
	.st5{fill:#FFFFFF;}
	.st6{fill:#F64066;}
</style>
<g>
	<rect class="st1" width="196" height="196"/>
	<path class="st0" d="M152.02,69h-12.13c-3.21-19.82-20.43-35-41.14-35S60.82,49.18,57.61,69H45.48c-2.76,0-5,2.43-5,5.43v82.13
		c0,3,2.24,5.43,5,5.43h106.54c2.76,0,5-2.43,5-5.43V74.43C157.02,71.43,154.78,69,152.02,69z M98.75,46
		c14.07,0,25.87,9.84,28.91,23H69.84C72.88,55.84,84.68,46,98.75,46z M145.02,148.96H52.48V82.04h92.54V148.96z"/>
</g>
</svg>
