<?xml version="1.0" encoding="utf-8"?>
<!-- Generator: Adobe Illustrator 24.3.0, SVG Export Plug-In . SVG Version: 6.00 Build 0)  -->
<svg version="1.1" id="Icon_Set" xmlns="http://www.w3.org/2000/svg" xmlns:xlink="http://www.w3.org/1999/xlink" x="0px" y="0px"
	 viewBox="0 0 196 196" style="enable-background:new 0 0 196 196;" xml:space="preserve">
<style type="text/css">
	.st0{fill:#2933C5;}
	.st1{fill:none;}
	.st2{fill:#2933C5;stroke:#2933C5;stroke-width:0.25;stroke-miterlimit:10;}
	.st3{fill:#2933BC;}
	.st4{fill:#1CB69A;}
	.st5{fill:#FFFFFF;}
	.st6{fill:#F64066;}
</style>
<g>
	<g>
		<g>
			<path class="st0" d="M96.08,134.51c-0.31-0.33-0.46-0.79-0.46-1.4v-5.76c-3.33-0.33-6.21-1.22-8.61-2.67
				c-2.41-1.45-4.24-3.26-5.5-5.43c-1.26-2.16-1.94-4.48-2.04-6.95c0-0.44,0.14-0.82,0.43-1.15c0.29-0.33,0.64-0.49,1.07-0.49h3.43
				c0.9,0,1.52,0.55,1.86,1.64c0.43,2.3,1.66,4.29,3.68,5.96c2.02,1.67,4.92,2.51,8.68,2.51c4.05,0,7.07-0.82,9.08-2.47
				c2-1.64,3-3.92,3-6.82c0-1.86-0.49-3.4-1.46-4.6c-0.98-1.21-2.43-2.26-4.36-3.17c-1.93-0.9-4.82-2.01-8.68-3.33
				c-3.67-1.21-6.6-2.49-8.79-3.87c-2.19-1.37-3.84-3.05-4.93-5.06c-1.1-2-1.64-4.54-1.64-7.61c0-4.11,1.31-7.57,3.93-10.36
				c2.62-2.79,5.65-4.44,10.28-4.93v-5.67c0-0.6,0.15-1.07,0.46-1.4C95.8,61.16,96.78,61,97.26,61h2.57c0.48,0,0.86,0.18,1.14,0.53
				c0.29,0.36,0.43,0.81,0.43,1.36v5.76c3.05,0.44,5.67,1.43,7.86,2.96c2.19,1.54,3.85,3.33,4.97,5.38
				c1.12,2.06,1.73,4.13,1.82,6.21c0,0.49-0.14,0.9-0.43,1.23c-0.29,0.33-0.64,0.49-1.07,0.49h-3.57c-0.38,0-0.75-0.14-1.11-0.41
				c-0.36-0.27-0.58-0.68-0.68-1.23c-0.29-2.36-1.43-4.3-3.43-5.84c-2-1.53-4.5-2.3-7.5-2.3c-3.24,0-5.81,0.73-7.72,2.18
				c-1.91,1.45-2.86,3.61-2.86,6.45c0,1.92,0.44,3.48,1.32,4.69c0.88,1.21,2.24,2.28,4.07,3.21c1.83,0.93,4.49,2,7.97,3.21
				c4.05,1.32,7.24,2.63,9.58,3.95c2.33,1.32,4.07,2.95,5.22,4.89c1.14,1.95,1.72,4.45,1.72,7.52c0,4.66-1.44,8.41-4.32,11.27
				c-2.88,2.85-6.83,4.49-11.83,4.93v5.67c0,0.55-0.14,1-0.43,1.36c-0.29,0.36-0.67,0.53-1.14,0.53h-2.57
				C96.78,135,96.39,134.84,96.08,134.51z"/>
			<path class="st0" d="M99.83,136.5h-2.57c-0.89,0-1.68-0.33-2.27-0.96l0,0c-0.58-0.61-0.87-1.43-0.87-2.43v-4.43
				c-2.99-0.44-5.63-1.35-7.89-2.71c-2.62-1.58-4.64-3.58-6.02-5.96c-1.38-2.37-2.14-4.94-2.24-7.64c0-0.86,0.27-1.59,0.8-2.19
				c0.57-0.66,1.34-1.01,2.2-1.01h3.43c0.74,0,2.55,0.26,3.29,2.71l0.04,0.16c0.37,1.96,1.4,3.62,3.16,5.08
				c1.74,1.44,4.34,2.16,7.73,2.16c3.67,0,6.41-0.71,8.12-2.13c1.65-1.36,2.45-3.21,2.45-5.67c0-1.52-0.37-2.72-1.13-3.66
				c-0.83-1.02-2.12-1.95-3.83-2.75c-1.87-0.88-4.74-1.98-8.53-3.27c-3.75-1.23-6.82-2.58-9.1-4.01c-2.4-1.5-4.23-3.38-5.45-5.61
				c-1.21-2.21-1.83-5.02-1.83-8.33c0-4.49,1.46-8.32,4.34-11.39c2.73-2.91,5.82-4.55,9.87-5.22v-4.36c0-0.99,0.29-1.81,0.87-2.43
				c0.9-0.96,2.78-0.97,2.86-0.97h2.57c0.92,0,1.75,0.39,2.31,1.1c0.5,0.63,0.76,1.4,0.76,2.3v4.49c2.74,0.55,5.16,1.55,7.22,3
				c2.37,1.66,4.2,3.65,5.42,5.89c1.23,2.25,1.9,4.56,2,6.86c0,0.92-0.27,1.69-0.79,2.29c-0.57,0.66-1.34,1.01-2.2,1.01h-3.57
				c-0.72,0-1.4-0.24-2.02-0.72c-0.46-0.35-1.04-1.01-1.24-2.17c-0.25-2.04-1.18-3.62-2.86-4.91c-1.75-1.34-3.91-1.99-6.59-1.99
				c-2.89,0-5.18,0.63-6.81,1.87c-1.53,1.16-2.27,2.88-2.27,5.26c0,1.59,0.35,2.87,1.03,3.8c0.74,1.01,1.93,1.94,3.54,2.75
				c1.77,0.9,4.39,1.95,7.78,3.13c4.1,1.33,7.41,2.7,9.82,4.06c2.56,1.44,4.5,3.27,5.77,5.44c1.28,2.17,1.92,4.96,1.92,8.28
				c0,5.05-1.6,9.2-4.77,12.33c-2.85,2.82-6.68,4.57-11.38,5.21v4.33c0,0.9-0.25,1.67-0.76,2.3
				C101.58,136.11,100.75,136.5,99.83,136.5z M97.17,133.48c0.01,0.01,0.02,0.02,0.02,0.02l2.64,0c0.04-0.06,0.07-0.2,0.07-0.39
				v-7.05l1.37-0.12c4.62-0.41,8.29-1.92,10.9-4.51c2.61-2.58,3.88-5.92,3.88-10.2c0-2.78-0.51-5.06-1.51-6.76
				c-1-1.71-2.57-3.17-4.66-4.34c-2.24-1.26-5.37-2.55-9.3-3.83c-3.54-1.23-6.29-2.33-8.18-3.29c-2.04-1.03-3.59-2.27-4.61-3.66
				c-1.07-1.46-1.61-3.33-1.61-5.57c0-3.33,1.16-5.9,3.45-7.65c2.17-1.65,5.07-2.49,8.63-2.49c3.32,0,6.15,0.88,8.42,2.61
				c2.32,1.78,3.67,4.09,4.01,6.85c0.01,0.07,0.06,0.19,0.1,0.22c0.08,0.06,0.16,0.1,0.19,0.1h3.57c-0.04,0,0-0.05,0-0.23
				c-0.08-1.77-0.63-3.65-1.64-5.49c-1-1.84-2.52-3.48-4.51-4.87c-1.99-1.39-4.42-2.3-7.21-2.7l-1.29-0.18v-7.06
				c0-0.2-0.03-0.34-0.1-0.42l-2.55,0.03c-0.19,0-0.5,0.05-0.7,0.11c-0.01,0.06-0.03,0.15-0.03,0.28v7.02l-1.34,0.14
				c-4.01,0.43-6.81,1.77-9.34,4.47c-2.37,2.53-3.52,5.58-3.52,9.33c0,2.8,0.49,5.12,1.46,6.88c0.97,1.77,2.45,3.28,4.41,4.5
				c2.08,1.3,4.93,2.55,8.47,3.71c3.9,1.33,6.88,2.47,8.85,3.4c2.13,1,3.77,2.2,4.89,3.58c1.19,1.48,1.8,3.34,1.8,5.55
				c0,3.36-1.19,6.05-3.55,7.98c-2.27,1.86-5.64,2.81-10.03,2.81c-4.1,0-7.35-0.96-9.64-2.85c-2.27-1.87-3.68-4.14-4.18-6.75
				c-0.17-0.51-0.31-0.51-0.4-0.51h-3.43c0.02,0.03,0,0.06,0,0.14c0.08,2.15,0.7,4.25,1.83,6.19c1.13,1.93,2.8,3.58,4.98,4.9
				c2.2,1.33,4.89,2.16,7.98,2.46l1.35,0.13v7.12C97.11,133.35,97.16,133.46,97.17,133.48L97.17,133.48z M96.41,62.66L96.41,62.66
				L96.41,62.66z"/>
		</g>
	</g>
	<rect class="st1" width="196" height="196"/>
	<g>
		<path class="st0" d="M98,45c29.22,0,53,23.78,53,53s-23.78,53-53,53s-53-23.78-53-53S68.78,45,98,45 M98,34
			c-35.35,0-64,28.65-64,64s28.65,64,64,64s64-28.65,64-64S133.35,34,98,34L98,34z"/>
	</g>
</g>
</svg>
