<svg xmlns="http://www.w3.org/2000/svg" width="104.324" height="104.324" viewBox="0 0 104.324 104.324">
  <g id="Group_11773" data-name="Group 11773" transform="translate(0.501 0.501)">
    <rect id="Rectangle_1518" data-name="Rectangle 1518" width="103.012" height="103.012" transform="matrix(1, -0.003, 0.003, 1, 0, 0.31)" fill="#fff" stroke="#c7c7c7" stroke-width="1"/>
    <rect id="Rectangle_1519" data-name="Rectangle 1519" width="88.443" height="76.887" transform="translate(7.169 14.858) rotate(-0.172)" fill="#eaeaea"/>
    <path id="Path_3183" data-name="Path 3183" d="M6286.318-2.574,6299.49-14.3a6.03,6.03,0,0,1,7.225-.6l19.357,12.2,20.366-29.4a6.031,6.031,0,0,1,9.1-.951l19.186,18.113.042,12.958.061,19.006-88.442.265Z" transform="translate(-6278.975 74.09)" fill="#c7c7c7"/>
    <path id="Path_3184" data-name="Path 3184" d="M6350.518-93.863a8.1,8.1,0,0,1-8.2,7.982,8.1,8.1,0,0,1-8.254-7.933,8.1,8.1,0,0,1,8.2-7.982A8.1,8.1,0,0,1,6350.518-93.863Z" transform="translate(-6314.975 124.688)" fill="#f8f9ff"/>
  </g>
</svg>
