<svg id="Group_11937" data-name="Group 11937" xmlns="http://www.w3.org/2000/svg" width="81" height="81" viewBox="0 0 81 81">
  <g id="Group_11557" data-name="Group 11557" transform="translate(13.834 16.141)">
    <path id="Path_7124" data-name="Path 7124" d="M583.264,258.138a36.927,36.927,0,0,1-11.067-1.908,53.08,53.08,0,0,1-15.547-8.219c-11.462-8.7-14.389-19.549-13.56-24.721.8-4.964,6.336-10.712,7.721-11.5a5.292,5.292,0,0,1,4.862-.35h0c4.284,2.162,8.072,7.6,8.9,9.915a5.208,5.208,0,0,1,.269,3.213,3.115,3.115,0,0,1-1.128,1.611c-.688.525-1.878,1.266-2.746,1.807-.373.232-.674.419-.818.517-.073.05-.167.109-.277.178a3.555,3.555,0,0,0-2.025,2.684c-.035.714.953,2.768,7.964,8.506,3.641,2.98,8.54,5.519,9.887,5.124.95-.277,1.323-1.3,1.9-3.1.206-.637.439-1.359.737-2.09a6.426,6.426,0,0,1,2.368-2.927,4.5,4.5,0,0,1,3.746-.325c2.9,1.06,8.419,3.657,10.743,6.666a4.7,4.7,0,0,1,.277,4.766c-1.157,2.851-4.458,9.538-10.122,10.059C584.68,258.107,583.984,258.138,583.264,258.138Zm-29.62-45.321a3.872,3.872,0,0,0-1.936.541c-1.144.654-6.148,5.959-6.831,10.218-1.377,8.592,7.161,18.663,12.867,22.993,6.615,5.019,17.768,10.561,27.439,9.674,4.8-.443,7.8-6.953,8.61-8.938a3.068,3.068,0,0,0-.032-2.978c-1.925-2.493-7-5-9.933-6.073a2.7,2.7,0,0,0-2.115.128,4.562,4.562,0,0,0-1.7,2.108c-.272.668-.485,1.326-.69,1.963-.617,1.911-1.2,3.716-3.117,4.276-1.151.338-3.006-.156-5.512-1.466a37.661,37.661,0,0,1-6.029-3.994c-6.225-5.094-8.725-7.991-8.626-10a5.252,5.252,0,0,1,2.876-4.132c.084-.053.156-.1.212-.135.155-.106.479-.308.883-.56.79-.493,1.985-1.237,2.6-1.71a1.335,1.335,0,0,0,.486-.672,3.481,3.481,0,0,0-.233-2.1c-.723-2.017-4.207-6.99-8.011-8.91A2.973,2.973,0,0,0,553.643,212.817Z" transform="translate(-542.957 -211.009)" fill="#414141" stroke="#353535" stroke-width="3"/>
  </g>
  <rect id="Rectangle_2266" data-name="Rectangle 2266" width="81" height="81" fill="none"/>
</svg>
