<svg xmlns="http://www.w3.org/2000/svg" width="79" height="78" viewBox="0 0 79 78">
  <g id="Line" transform="translate(0.02 -0.174)">
    <rect id="Rectangle_2026" data-name="Rectangle 2026" width="79" height="78" transform="translate(-0.02 0.174)" fill="none"/>
    <path id="Path_3345" data-name="Path 3345" d="M60.061,34A25.561,25.561,0,1,0,85.622,59.561,25.561,25.561,0,0,0,60.061,34ZM80.228,53.241A16.054,16.054,0,0,1,63.382,38.69,21.194,21.194,0,0,1,80.228,53.241ZM38.94,60.056c13.61-2.359,16.729-.032,17.438,1.087a11.329,11.329,0,0,1,.568,1.135,14.255,14.255,0,0,0,4.4,5.889,12.8,12.8,0,0,0,3.389,1.815c.37.145.692.27,1.006.423,2.178,1.063,3.909,3.51,5.156,7.294A21.118,21.118,0,0,1,38.94,60.056ZM74.577,74.9c-1.634-4.182-3.945-7.028-6.908-8.469-.475-.229-.914-.4-1.336-.568a8.35,8.35,0,0,1-2.319-1.22,10,10,0,0,1-3.051-4.215,14.567,14.567,0,0,0-.841-1.642c-2.588-4.106-9.218-5.157-20.8-3.281A21.175,21.175,0,0,1,58.9,38.46,20.472,20.472,0,0,0,79.685,57.665c.511,0,.982-.016,1.417-.044.06.64.093,1.284.093,1.94A21.077,21.077,0,0,1,74.577,74.9Z" transform="translate(-20.297 -20.823)" fill="#414141"/>
  </g>
</svg>
