<svg xmlns="http://www.w3.org/2000/svg" width="79" height="78" viewBox="0 0 79 78">
  <g id="Line" transform="translate(-0.02 -0.116)">
    <rect id="Rectangle_2025" data-name="Rectangle 2025" width="79" height="78" transform="translate(0.019 0.116)" fill="none"/>
    <g id="Group_5451" data-name="Group 5451" transform="translate(13.869 13.87)">
      <g id="Group_5449" data-name="Group 5449" transform="translate(0 31.06)">
        <path id="Path_3341" data-name="Path 3341" d="M82.817,114.59h0a2.246,2.246,0,0,0-2.237,2.237l-.071,11.845H39.459l.071-11.845a2.222,2.222,0,0,0-2.21-2.237,2.246,2.246,0,0,0-2.237,2.237L35,130.922a2.2,2.2,0,0,0,2.21,2.21h45.5a2.223,2.223,0,0,0,2.237-2.21l.083-14.094A2.223,2.223,0,0,0,82.817,114.59Z" transform="translate(-34.803 -114.397)" fill="#414141"/>
        <path id="Path_3342" data-name="Path 3342" d="M82.419,133.031H36.907a2.408,2.408,0,0,1-1.706-.705,2.36,2.36,0,0,1-.7-1.7l.083-14.094a2.451,2.451,0,0,1,.717-1.717A2.385,2.385,0,0,1,37,114.1h.016a2.423,2.423,0,0,1,2.407,2.434l-.067,11.648h40.66l.067-11.652a2.451,2.451,0,0,1,.717-1.717,2.385,2.385,0,0,1,1.7-.713h.016a2.414,2.414,0,0,1,2.4,2.43l-.083,14.094a2.421,2.421,0,0,1-2.419,2.407Zm-.016-.394h.012a2.024,2.024,0,0,0,2.029-2.013l.083-14.094a2.024,2.024,0,0,0-2.013-2.04H82.5a2,2,0,0,0-1.422.595,2.054,2.054,0,0,0-.6,1.442l-.071,12.042H38.959l.071-12.038a2.024,2.024,0,0,0-2.013-2.037h-.012a2,2,0,0,0-1.422.595,2.054,2.054,0,0,0-.6,1.442L34.9,130.625a1.976,1.976,0,0,0,.583,1.422,2.028,2.028,0,0,0,1.43.591Z" transform="translate(-34.5 -114.1)" fill="#414141"/>
      </g>
      <g id="Group_5450" data-name="Group 5450" transform="translate(9.119)">
        <path id="Path_3343" data-name="Path 3343" d="M61.93,53.136l9.942-9.828-.161,27.109a2.224,2.224,0,0,0,4.447.028l.158-27.093,9.808,9.927a2.222,2.222,0,0,0,3.143.02h0a2.222,2.222,0,0,0,.02-3.143L75.7,36.4a2.222,2.222,0,0,0-3.143-.02L58.8,49.973a2.224,2.224,0,1,0,3.128,3.163Z" transform="translate(-57.947 -35.548)" fill="#414141"/>
        <path id="Path_3344" data-name="Path 3344" d="M73.638,72.553h-.016a2.414,2.414,0,0,1-2.4-2.43l.158-26.636L61.77,52.98a2.412,2.412,0,0,1-1.7.7h-.016a2.419,2.419,0,0,1-1.686-4.14l13.751-13.59a2.412,2.412,0,0,1,1.7-.7h.016a2.4,2.4,0,0,1,1.706.721l13.59,13.751a2.416,2.416,0,0,1-.024,3.419,2.324,2.324,0,0,1-1.714.7,2.41,2.41,0,0,1-1.706-.717l-9.474-9.588-.158,26.617A2.421,2.421,0,0,1,73.638,72.553ZM71.775,42.537l-.161,27.586a2.024,2.024,0,0,0,2.013,2.04h.012a2.029,2.029,0,0,0,2.025-2.013l.162-27.566L85.968,52.85a2.013,2.013,0,0,0,1.43.6h.012a2.023,2.023,0,0,0,1.438-3.447L75.257,36.254a2.013,2.013,0,0,0-1.43-.6h-.012a2.022,2.022,0,0,0-1.422.583L58.642,49.825A2.025,2.025,0,0,0,61.49,52.7Z" transform="translate(-57.649 -35.25)" fill="#414141"/>
      </g>
    </g>
  </g>
</svg>
