<svg xmlns="http://www.w3.org/2000/svg" width="26.062" height="26" viewBox="0 0 26.062 26">
  <g id="Group_11584" data-name="Group 11584" transform="translate(-428.461 -383.414)">
    <path id="Path_3374" data-name="Path 3374" d="M452.54,409.414h-22.1a1.991,1.991,0,0,1-1.981-1.99V385.4a1.992,1.992,0,0,1,1.981-1.99h22.1a1.992,1.992,0,0,1,1.981,1.99v22.02A1.991,1.991,0,0,1,452.54,409.414Z" fill="#1cb69a"/>
    <g id="Group_11583" data-name="Group 11583">
      <g id="Group_11581" data-name="Group 11581">
        <g id="Group_5591" data-name="Group 5591">
          <g id="Group_5590" data-name="Group 5590">
            <path id="Path_3376" data-name="Path 3376" d="M434.176,402.528V399.61a.382.382,0,0,1,.112-.27l8.715-8.7a.453.453,0,0,1,.591.056l2.822,2.85a.379.379,0,0,1,0,.536h0l-8.774,8.648a.376.376,0,0,1-.258.109l-2.82.064a.38.38,0,0,1-.387-.372Zm.942-2.518-.037,1.51a.379.379,0,0,0,.37.388h.014l1.52-.017a.388.388,0,0,0,.263-.109l7.822-7.708a.379.379,0,0,0,0-.536h0l-1.484-1.5a.381.381,0,0,0-.538,0l-7.822,7.708A.392.392,0,0,0,435.118,400.01Z" fill="#fff"/>
            <path id="Path_3377" data-name="Path 3377" d="M434.556,403.253a.729.729,0,0,1-.726-.727v-2.918a.731.731,0,0,1,.216-.515l8.713-8.693a.7.7,0,0,1,.585-.182.853.853,0,0,1,.5.239l2.822,2.85a.724.724,0,0,1,0,1.025h0l-8.774,8.648a.729.729,0,0,1-.5.209l-2.819.064Zm8.683-12.349-8.7,8.681a.038.038,0,0,0-.011.024v2.918a.03.03,0,0,0,.011.023c.006.006.018.012.023.009l2.82-.064a.032.032,0,0,0,.023-.009l8.765-8.647a.033.033,0,0,0,0-.047l-2.822-2.85A.185.185,0,0,0,443.239,390.9Zm-7.776,11.355a.726.726,0,0,1-.726-.724v-.018L434.77,400a.717.717,0,0,1,.216-.5l7.822-7.708a.719.719,0,0,1,.51-.209h0a.721.721,0,0,1,.513.215l1.484,1.5a.724.724,0,0,1-.005,1.025h0l-7.822,7.708a.72.72,0,0,1-.5.209l-1.519.018Zm7.857-9.983a.031.031,0,0,0-.023.009l-7.827,7.709a.032.032,0,0,0-.009.023h0l-.036,1.517a.045.045,0,0,0,.009.024.054.054,0,0,0,.024.009l1.52-.018a.032.032,0,0,0,.023-.009l7.822-7.708a.033.033,0,0,0,0-.045l-1.484-1.5a.041.041,0,0,0-.024-.011Z" fill="#fff"/>
          </g>
        </g>
        <g id="Group_5592" data-name="Group 5592">
          <path id="Path_3378" data-name="Path 3378" d="M447.537,392.938l-3.4-3.391a.352.352,0,0,1,.019-.5l0,0,.656-.655a.353.353,0,0,1,.5-.021l3.4,3.391a.35.35,0,0,1-.018.5l0,0-.656.655A.355.355,0,0,1,447.537,392.938Z" fill="#fff"/>
        </g>
      </g>
      <g id="Group_11582" data-name="Group 11582">
        <path id="Path_7836" data-name="Path 7836" d="M449.558,397.8a.763.763,0,0,0-.763.762v4.612H444.05a.762.762,0,0,0,0,1.524h5.508a.762.762,0,0,0,.761-.762V398.56A.762.762,0,0,0,449.558,397.8Z" fill="#fff"/>
        <path id="Path_7837" data-name="Path 7837" d="M433.081,393.733a.762.762,0,0,0,.762-.762v-4.612h4.746a.762.762,0,0,0,0-1.525h-5.508a.762.762,0,0,0-.761.762v5.375A.762.762,0,0,0,433.081,393.733Z" fill="#fff"/>
      </g>
    </g>
  </g>
</svg>