<svg id="Group_11507" data-name="Group 11507" xmlns="http://www.w3.org/2000/svg" width="78.594" height="78.594" viewBox="0 0 78.594 78.594">
  <circle id="Ellipse_262" data-name="Ellipse 262" cx="39.297" cy="39.297" r="39.297" fill="#1cb69a"/>
  <path id="Path_2745" data-name="Path 2745" d="M2691.8,1151.511a19.028,19.028,0,0,0-30.56-9.8l.146-3.16a2.037,2.037,0,0,0-1.94-2.129h0a2.038,2.038,0,0,0-2.13,1.941l-.41,8.843a2.036,2.036,0,0,0,1.94,2.129l8.844.411a2.037,2.037,0,0,0,.188-4.069l-4.742-.22a14.79,14.79,0,0,1,6.44-3.565,14.964,14.964,0,1,1-10.094,19.991,2.039,2.039,0,0,0-2.411-1.222h-.005a2.039,2.039,0,0,0-1.366,2.734,19.037,19.037,0,0,0,36.1-11.885Z" transform="translate(-2635.971 -1116.931)" fill="#fff"/>
</svg>
