<svg xmlns="http://www.w3.org/2000/svg" width="28" height="28" viewBox="0 0 28 28">
  <g id="Group_5601" data-name="Group 5601" transform="translate(-935 -560)">
    <circle id="Ellipse_262" data-name="Ellipse 262" cx="14" cy="14" r="14" transform="translate(935 560)" fill="#c7c7c7"/>
    <path id="Path_2745" data-name="Path 2745" d="M2668.571,1141.84a6.834,6.834,0,0,0-10.976-3.519l.053-1.135a.732.732,0,0,0-.7-.765h0a.732.732,0,0,0-.765.7l-.147,3.176a.732.732,0,0,0,.7.765l3.176.147a.731.731,0,0,0,.068-1.461l-1.7-.079a5.316,5.316,0,0,1,2.313-1.281,5.374,5.374,0,1,1-3.626,7.18.732.732,0,0,0-.866-.439h0a.733.733,0,0,0-.491.982,6.837,6.837,0,0,0,12.965-4.269Z" transform="translate(-1713.52 -569.421)" fill="#fff"/>
  </g>
</svg>
