<svg id="Group_11731" data-name="Group 11731" xmlns="http://www.w3.org/2000/svg" width="78.595" height="78.594" viewBox="0 0 78.595 78.594">
  <path id="Path_3374" data-name="Path 3374" d="M71.969,78.594H5.325A6.013,6.013,0,0,1-.65,72.579V6.015A6.013,6.013,0,0,1,5.325,0H71.969a6.013,6.013,0,0,1,5.975,6.015V72.579A6.013,6.013,0,0,1,71.969,78.594Z" transform="translate(0.651)" fill="#2933c5"/>
  <rect id="Rectangle_2052" data-name="Rectangle 2052" width="77.997" height="78.594" fill="none"/>
  <path id="Path_7836" data-name="Path 7836" d="M2704.423,1156.766a25.654,25.654,0,0,0-41.2-13.212l.2-4.26a2.748,2.748,0,0,0-2.617-2.871h0a2.748,2.748,0,0,0-2.873,2.617l-.553,11.923a2.747,2.747,0,0,0,2.619,2.87l11.919.554a2.746,2.746,0,0,0,.256-5.487l-6.394-.3a19.95,19.95,0,0,1,8.684-4.807,20.175,20.175,0,1,1-13.611,26.953,2.746,2.746,0,0,0-3.25-1.647l-.007,0a2.75,2.75,0,0,0-1.842,3.687,25.667,25.667,0,0,0,48.67-16.025Z" transform="translate(-2640.438 -1124.33)" fill="#fff"/>
</svg>
