<svg xmlns="http://www.w3.org/2000/svg" width="100" height="100" viewBox="0 0 100 100">
  <g id="CRM-IconSet-15" transform="translate(0 0)">
    <g id="Group_7386" data-name="Group 7386" transform="translate(38.73 30.643)">
      <g id="Group_7385" data-name="Group 7385">
        <path id="Path_3377" data-name="Path 3377" d="M87.883,98.233a.99.99,0,0,1-.233-.709V94.607a10.305,10.305,0,0,1-4.361-1.352A7.758,7.758,0,0,1,80.5,90.5a7.494,7.494,0,0,1-1.033-3.52.85.85,0,0,1,.218-.582.687.687,0,0,1,.542-.248h1.737c.456,0,.77.279.942.831A5.075,5.075,0,0,0,84.773,90a6.739,6.739,0,0,0,4.4,1.271,7.13,7.13,0,0,0,4.6-1.251,4.226,4.226,0,0,0,1.52-3.454,3.6,3.6,0,0,0-.74-2.33,6.157,6.157,0,0,0-2.208-1.606q-1.466-.684-4.4-1.687a20.574,20.574,0,0,1-4.452-1.96,6.936,6.936,0,0,1-2.5-2.563,7.943,7.943,0,0,1-.831-3.855,7.378,7.378,0,0,1,1.991-5.247,7.716,7.716,0,0,1,5.207-2.5V61.952a1,1,0,0,1,.233-.709A1.581,1.581,0,0,1,88.481,61h1.3a.7.7,0,0,1,.577.268,1.058,1.058,0,0,1,.218.689v2.917a9.114,9.114,0,0,1,3.981,1.5A8.1,8.1,0,0,1,97.076,69.1,7.2,7.2,0,0,1,98,72.244a.908.908,0,0,1-.218.623.686.686,0,0,1-.542.248H95.43a.931.931,0,0,1-.562-.208.95.95,0,0,1-.344-.623,4.277,4.277,0,0,0-1.737-2.958,6.071,6.071,0,0,0-3.8-1.165,6.311,6.311,0,0,0-3.91,1.1,3.85,3.85,0,0,0-1.449,3.267,3.937,3.937,0,0,0,.669,2.376,5.653,5.653,0,0,0,2.062,1.626A34.275,34.275,0,0,0,90.4,78.161a27.511,27.511,0,0,1,4.852,2,6.965,6.965,0,0,1,2.644,2.477,7.464,7.464,0,0,1,.871,3.809,7.684,7.684,0,0,1-2.188,5.708,9.38,9.38,0,0,1-5.992,2.5v2.872a1.058,1.058,0,0,1-.218.689.7.7,0,0,1-.577.268h-1.3A.783.783,0,0,1,87.883,98.233Z" transform="translate(-78.71 -60.23)" fill="#414141"/>
        <path id="Path_3378" data-name="Path 3378" d="M89.042,98.491h-1.3a1.537,1.537,0,0,1-1.15-.486h0a1.721,1.721,0,0,1-.441-1.231V94.53a10.7,10.7,0,0,1-4-1.373A8.539,8.539,0,0,1,79.1,90.139a8.226,8.226,0,0,1-1.135-3.87,1.619,1.619,0,0,1,.405-1.109,1.441,1.441,0,0,1,1.114-.512h1.737a1.706,1.706,0,0,1,1.666,1.373l.02.081a4.315,4.315,0,0,0,1.6,2.573,6.044,6.044,0,0,0,3.915,1.094,6.425,6.425,0,0,0,4.113-1.079,3.481,3.481,0,0,0,1.241-2.872,2.835,2.835,0,0,0-.572-1.854,5.444,5.444,0,0,0-1.94-1.393,45.136,45.136,0,0,0-4.32-1.656,21.4,21.4,0,0,1-4.609-2.031,7.745,7.745,0,0,1-2.76-2.841,8.753,8.753,0,0,1-.927-4.219,8.147,8.147,0,0,1,2.2-5.769,8.35,8.35,0,0,1,5-2.644V61.2a1.737,1.737,0,0,1,.441-1.231,2.282,2.282,0,0,1,1.449-.491h1.3a1.464,1.464,0,0,1,1.17.557A1.822,1.822,0,0,1,90.6,61.2v2.274A9.548,9.548,0,0,1,94.254,65,8.839,8.839,0,0,1,97,67.979a7.943,7.943,0,0,1,1.013,3.475,1.716,1.716,0,0,1-.4,1.16,1.441,1.441,0,0,1-1.114.512H94.69a1.644,1.644,0,0,1-1.023-.365,1.694,1.694,0,0,1-.628-1.1,3.532,3.532,0,0,0-1.449-2.487,5.289,5.289,0,0,0-3.338-1.008,5.6,5.6,0,0,0-3.449.947,3.1,3.1,0,0,0-1.15,2.664,3.213,3.213,0,0,0,.522,1.925A4.928,4.928,0,0,0,85.968,75.1a33.75,33.75,0,0,0,3.941,1.585,28.034,28.034,0,0,1,4.974,2.056A7.62,7.62,0,0,1,97.8,81.493a8.2,8.2,0,0,1,.973,4.194,8.423,8.423,0,0,1-2.416,6.245A9.851,9.851,0,0,1,90.6,94.571v2.193a1.794,1.794,0,0,1-.385,1.165A1.454,1.454,0,0,1,89.042,98.491ZM87.7,96.962l.01.01h1.337a.41.41,0,0,0,.035-.2V93.2l.694-.061a8.673,8.673,0,0,0,5.521-2.284,6.882,6.882,0,0,0,1.965-5.166,6.749,6.749,0,0,0-.765-3.424,6.11,6.11,0,0,0-2.36-2.2,27.012,27.012,0,0,0-4.711-1.94,35.287,35.287,0,0,1-4.143-1.666,6.439,6.439,0,0,1-2.335-1.854,4.664,4.664,0,0,1-.815-2.821,4.6,4.6,0,0,1,1.747-3.875,7.064,7.064,0,0,1,4.371-1.261,6.858,6.858,0,0,1,4.265,1.322,5.035,5.035,0,0,1,2.031,3.47.228.228,0,0,0,.051.111.248.248,0,0,0,.1.051H96.5c-.02,0,0-.025,0-.116a6.435,6.435,0,0,0-.831-2.781,7.294,7.294,0,0,0-2.284-2.467,8.388,8.388,0,0,0-3.652-1.368l-.653-.091V61.207a.328.328,0,0,0-.051-.213l-1.292.015a1.474,1.474,0,0,0-.355.056.746.746,0,0,0-.015.142v3.556l-.679.071A6.989,6.989,0,0,0,81.956,67.1a6.588,6.588,0,0,0-1.783,4.726,7.228,7.228,0,0,0,.74,3.485,6.233,6.233,0,0,0,2.234,2.279,20.069,20.069,0,0,0,4.29,1.879,46.517,46.517,0,0,1,4.483,1.722A6.915,6.915,0,0,1,94.4,83a4.357,4.357,0,0,1,.912,2.811,4.961,4.961,0,0,1-1.8,4.042,7.887,7.887,0,0,1-5.08,1.423,7.5,7.5,0,0,1-4.883-1.444,5.794,5.794,0,0,1-2.117-3.419c-.086-.258-.157-.258-.2-.258H79.49c.01.015,0,.03,0,.071a6.7,6.7,0,0,0,.927,3.135,7.14,7.14,0,0,0,2.522,2.482,9.541,9.541,0,0,0,4.042,1.246l.684.066v3.606a.46.46,0,0,0,.03.2ZM87.31,61.091Z" transform="translate(-77.97 -59.48)" fill="#414141"/>
      </g>
    </g>
    <rect id="Rectangle_2137" data-name="Rectangle 2137" width="100" height="100" transform="translate(0 0)" fill="none"/>
    <g id="Group_7387" data-name="Group 7387" transform="translate(16.492 17.735)">
      <path id="Path_3379" data-name="Path 3379" d="M66.417,39.572A26.845,26.845,0,1,1,39.572,66.417,26.878,26.878,0,0,1,66.417,39.572m0-5.572A32.417,32.417,0,1,0,98.833,66.417,32.414,32.414,0,0,0,66.417,34Z" transform="translate(-34 -34)" fill="#414141"/>
    </g>
  </g>
</svg>
