<svg id="CRM-IconSet-09" xmlns="http://www.w3.org/2000/svg" width="100" height="100" viewBox="0 0 100 100">
  <g id="Group_7379" data-name="Group 7379" transform="translate(15.872 13.991)">
    <path id="Path_3368" data-name="Path 3368" d="M98.358,46.547l-30.284-15.5a2.574,2.574,0,0,0-2.488-.015L35.334,46.552A2.563,2.563,0,0,0,34,48.8V82.714a2.562,2.562,0,0,0,1.308,2.237l30.268,17.027a2.57,2.57,0,0,0,2.514,0L98.358,84.951a2.573,2.573,0,0,0,1.308-2.237V48.778A2.554,2.554,0,0,0,98.358,46.547ZM66.525,60.711l-7.49-3.745L81.2,45.254l7.275,3.725ZM66.818,37.9l7.131,3.648L51.7,53.3l-7.552-3.776ZM40.669,55.242,63.5,66.657v26.5L40.669,80.319Zm29.5,37.917V66.329L93,54.124v26.19Z" transform="translate(-34 -30.72)" fill="#414141"/>
  </g>
  <rect id="Rectangle_2131" data-name="Rectangle 2131" width="100" height="100" fill="none"/>
</svg>
