<svg xmlns="http://www.w3.org/2000/svg" width="96.001" height="75" viewBox="0 0 96.001 75">
  <g id="Group_11978" data-name="Group 11978" transform="translate(3546.001 -8168)">
    <path id="Intersection_7" data-name="Intersection 7" d="M1504,97.788c0-.216,0-.437,0-.653a97.6,97.6,0,0,1,34.149-74.346H1590a10,10,0,0,1,10,9.866V87.789a10,10,0,0,1-10,10Z" transform="translate(-5050 8145.212)" fill="#fffbf4"/>
    <path id="Intersection_8" data-name="Intersection 8" d="M1527,75c0-.165,0-.334,0-.5,0-38.516,28.834-70.205,65.816-74.1A10,10,0,0,1,1600,10V65a10,10,0,0,1-10,10Z" transform="translate(-5050 8168)" fill="#fff6e9"/>
  </g>
</svg>
