<svg xmlns="http://www.w3.org/2000/svg" width="16.098" height="17.017" viewBox="0 0 16.098 17.017">
  <path id="Path_3405" data-name="Path 3405" d="M2671.376,1143.008a8.306,8.306,0,0,0-13.341-4.277l.064-1.38a.89.89,0,0,0-.847-.929h0a.889.889,0,0,0-.929.847l-.179,3.86a.889.889,0,0,0,.847.929l3.86.179a.889.889,0,0,0,.082-1.776l-2.07-.1a6.46,6.46,0,0,1,2.812-1.556,6.532,6.532,0,1,1-4.407,8.727.89.89,0,0,0-1.052-.533h0a.89.89,0,0,0-.6,1.194,8.31,8.31,0,0,0,15.758-5.188Z" transform="translate(-2655.553 -1136.421)" fill="#414141"/>
</svg>
