<svg xmlns="http://www.w3.org/2000/svg" width="78" height="78" viewBox="0 0 78 78">
  <g id="Group_11736" data-name="Group 11736" transform="translate(-0.155 -0.176)">
    <rect id="Rectangle_2210" data-name="Rectangle 2210" width="78" height="78" transform="translate(0.155 0.176)" fill="none"/>
    <g id="Group_11750" data-name="Group 11750" transform="translate(14.337 14.338)">
      <path id="Path_3410" data-name="Path 3410" d="M59,39.114A20.719,20.719,0,1,1,38.281,59.834,20.743,20.743,0,0,1,59,39.114m0-4.781a25.5,25.5,0,1,0,25.5,25.5A25.5,25.5,0,0,0,59,34.333Z" transform="translate(-33.5 -34.333)" fill="#414141"/>
      <g id="Group_7632" data-name="Group 7632" transform="translate(10.958 22.911)">
        <path id="Path_3411" data-name="Path 3411" d="M87.5,97.013H63.59a2.59,2.59,0,0,1,0-5.18H87.5a2.59,2.59,0,0,1,0,5.18Z" transform="translate(-61 -91.833)" fill="#414141"/>
      </g>
    </g>
  </g>
</svg>
