<svg xmlns="http://www.w3.org/2000/svg" width="24" height="24" viewBox="0 0 24 24">
  <g id="Group_6828" data-name="Group 6828" transform="translate(-352 -210)">
    <rect id="Rectangle_1216" data-name="Rectangle 1216" width="24" height="24" transform="translate(352 210)" fill="#fff" opacity="0"/>
    <g id="Group_6823" data-name="Group 6823" transform="translate(263.976 25.82)">
      <path id="Path_3169" data-name="Path 3169" d="M109.824,301.373h-2.5a.281.281,0,0,0-.255.192l-2.3,8.038a.281.281,0,0,1-.255.192H95.478a.28.28,0,0,1-.254-.193l-2.259-8.037a.28.28,0,0,0-.254-.193H90.224a.2.2,0,0,0-.2.2v1.2a.2.2,0,0,0,.2.2H91.5a.28.28,0,0,1,.254.193l2.259,8.037a.28.28,0,0,0,.254.193h11.451a.282.282,0,0,0,.255-.192l2.3-8.038a.282.282,0,0,1,.255-.192h1.3a.2.2,0,0,0,.2-.2v-1.2A.2.2,0,0,0,109.824,301.373Z" transform="translate(0 -107.802)" fill="#000000" stroke="#000000" stroke-width="1"/>
      <path id="Path_3170" data-name="Path 3170" d="M249.9,193.416c.166-.045.316-.092.453-.141l.467,1.742c.057.213.186.226.286.03l2.018-3.927a.446.446,0,0,0-.156-.569l-3.684-2.317c-.186-.117-.292-.039-.235.173l.395,1.473a3.76,3.76,0,0,0-.443.178c-5.665,2.673-3.945,8.462-3.945,8.462S246.887,194.222,249.9,193.416Z" transform="translate(-147.41 0)" fill="#000000"/>
    </g>
  </g>
</svg>
