<svg xmlns="http://www.w3.org/2000/svg" width="25.793" height="25.864" viewBox="0 0 25.793 25.864">
  <g id="Group_11777" data-name="Group 11777" transform="translate(-1532.775 -704.137)">
    <g id="Group_11590" data-name="Group 11590" transform="translate(1532.775 704.137)">
      <path id="Path_7832" data-name="Path 7832" d="M24.819,25.864H2.974A1.982,1.982,0,0,1,1,23.885V1.979A1.982,1.982,0,0,1,2.974,0H24.819a1.982,1.982,0,0,1,1.974,1.979V23.885a1.982,1.982,0,0,1-1.974,1.979" transform="translate(-1)" fill="#ffa92b"/>
    </g>
    <g id="Group_11592" data-name="Group 11592" transform="translate(1533 704)">
      <path id="Path_7833" data-name="Path 7833" d="M46.239,35.548l3.395,5.026v8.3H36.211V35.548H46.239m.542-1.715H35.19a.691.691,0,0,0-.69.692V49.9a.691.691,0,0,0,.69.692H50.654a.691.691,0,0,0,.69-.692V40.261a.693.693,0,0,0-.119-.388l-3.874-5.736a.69.69,0,0,0-.571-.3" transform="translate(-30.313 -29.233)" fill="#fff"/>
      <path id="Path_7834" data-name="Path 7834" d="M88.185,98.68a1.842,1.842,0,1,1-1.842-1.847,1.845,1.845,0,0,1,1.842,1.847" transform="translate(-73.734 -83.92)" fill="#fff"/>
      <path id="Path_7835" data-name="Path 7835" d="M63.277,58.472h-5.79a.988.988,0,0,1-.987-.99v-.66a.988.988,0,0,1,.987-.99h5.79a.988.988,0,0,1,.987.99v.66a.988.988,0,0,1-.987.99" transform="translate(-49.418 -48.33)" fill="#fff"/>
    </g>
  </g>
</svg>
