<svg xmlns="http://www.w3.org/2000/svg" width="49" height="48" viewBox="0 0 49 48">
  <g id="CRM-IconSet-28" transform="translate(-0.434 -0.408)">
    <g id="Group_7406" data-name="Group 7406" transform="translate(9.011 9.359)">
      <path id="Path_3406" data-name="Path 3406" d="M66.037,63.648l-8.7-8.7c-.017-.017-.035-.027-.052-.042a12.28,12.28,0,1,0-1.712,1.715c.015.017.025.035.042.052l8.7,8.7a1.219,1.219,0,1,0,1.722-1.725Zm-18.25-6.684a9.839,9.839,0,1,1,9.839-9.839A9.851,9.851,0,0,1,47.787,56.964Z" transform="translate(-35.261 -34.601)" fill="#2933bc"/>
      <path id="Path_3407" data-name="Path 3407" d="M64.416,65.214a1.456,1.456,0,0,1-1.036-.429l-8.6-8.6a12.543,12.543,0,1,1,2.07-2.072l8.6,8.6a1.466,1.466,0,0,1-1.034,2.5Zm-9.585-9.7.158.173a.269.269,0,0,1,.032.042l8.707,8.707A.973.973,0,1,0,65.1,63.062l-8.707-8.7-.042-.032-.175-.158.15-.183a12.091,12.091,0,1,0-1.683,1.678Zm-7.8.935A10.086,10.086,0,1,1,57.112,46.364,10.1,10.1,0,0,1,47.026,56.45Zm0-19.679a9.593,9.593,0,1,0,9.593,9.593A9.6,9.6,0,0,0,47.026,36.771Z" transform="translate(-34.5 -33.84)" fill="#2933c5"/>
    </g>
    <rect id="Rectangle_2150" data-name="Rectangle 2150" width="49" height="48" transform="translate(0.434 0.408)" fill="none"/>
  </g>
</svg>
