<?xml version="1.0" encoding="utf-8"?>
<!-- Generator: Adobe Illustrator 24.3.0, SVG Export Plug-In . SVG Version: 6.00 Build 0)  -->
<svg version="1.1" id="Icon_Set" xmlns="http://www.w3.org/2000/svg" xmlns:xlink="http://www.w3.org/1999/xlink" x="0px" y="0px"
	 viewBox="0 0 197 197" style="enable-background:new 0 0 197 197;" xml:space="preserve">
<style type="text/css">
	.st0{fill:#2933C5;}
	.st1{fill:none;}
	.st2{fill:#2933C5;stroke:#2933C5;stroke-width:0.25;stroke-miterlimit:10;}
	.st3{fill:#2933BC;}
	.st4{fill:#1CB69A;}
	.st5{fill:#FFFFFF;}
	.st6{fill:#F64066;}
</style>
<rect class="st1" width="197" height="197"/>
<g>
	<path class="st3" d="M109.06,70.57c-23.29-1.15-43.16,16.86-44.31,40.15c-1.15,23.28,16.86,43.16,40.15,44.31
		c23.28,1.15,43.16-16.86,44.31-40.15S132.35,71.72,109.06,70.57z"/>
	<path class="st3" d="M139.01,157.73c-10.08,7.19-22.37,10.81-34.74,10.2c-30.4-1.5-53.91-27.45-52.42-57.84
		c1.5-30.4,27.45-53.91,57.85-52.42c30.4,1.5,53.91,27.45,52.42,57.84c-0.61,12.35-5.41,24.22-13.54,33.54l32.62,36c0,0,0,0,0,0
		V12.45c0-6.46-5.24-11.7-11.7-11.7H27.84c-6.46,0-11.7,5.24-11.7,11.7v172.6c0,6.46,5.24,11.7,11.7,11.7h141.65
		c1.47,0,2.87-0.28,4.17-0.78L139.01,157.73z"/>
</g>
</svg>
