<?xml version="1.0" encoding="utf-8"?>
<!-- Generator: Adobe Illustrator 24.3.0, SVG Export Plug-In . SVG Version: 6.00 Build 0)  -->
<svg version="1.1" id="Icon_Set" xmlns="http://www.w3.org/2000/svg" xmlns:xlink="http://www.w3.org/1999/xlink" x="0px" y="0px"
	 viewBox="0 0 196 196" style="enable-background:new 0 0 196 196;" xml:space="preserve">
<style type="text/css">
	.st0{fill:#2933C5;}
	.st1{fill:none;}
	.st2{fill:#2933C5;stroke:#2933C5;stroke-width:0.25;stroke-miterlimit:10;}
	.st3{fill:#2933BC;}
	.st4{fill:#1CB69A;}
	.st5{fill:#FFFFFF;}
	.st6{fill:#F64066;}
</style>
<g>
	<g>
		<path class="st3" d="M159.24,151.57l-35.28-35.28c-0.07-0.07-0.14-0.11-0.21-0.17c7.04-8.59,11.28-19.56,11.28-31.51
			c0-27.44-22.32-49.76-49.76-49.76c-27.44,0-49.76,22.32-49.76,49.76s22.32,49.76,49.76,49.76c11.96,0,22.95-4.24,31.54-11.3
			c0.06,0.07,0.1,0.14,0.17,0.21l35.28,35.28c1.93,1.93,5.06,1.93,6.99,0C161.17,156.62,161.17,153.5,159.24,151.57z M85.27,124.48
			c-21.99,0-39.88-17.89-39.88-39.88s17.89-39.88,39.88-39.88s39.88,17.89,39.88,39.88S107.26,124.48,85.27,124.48z"/>
		<path class="st0" d="M155.75,161c-1.59,0-3.08-0.62-4.2-1.74l-34.84-34.84c-8.93,7.06-20.06,10.94-31.45,10.94
			c-27.99,0-50.76-22.77-50.76-50.76s22.77-50.76,50.76-50.76c27.99,0,50.76,22.77,50.76,50.76c0,11.37-3.87,22.49-10.92,31.42
			l34.84,34.84c1.12,1.12,1.74,2.61,1.74,4.2c0,1.59-0.62,3.08-1.74,4.2S157.34,161,155.75,161z M116.9,121.69l0.64,0.7
			c0.05,0.05,0.09,0.11,0.13,0.17l35.29,35.29c0.74,0.74,1.73,1.15,2.79,1.15c1.05,0,2.04-0.41,2.79-1.15
			c1.54-1.54,1.54-4.04,0-5.57l-35.29-35.28c-0.07-0.05-0.12-0.09-0.17-0.13l-0.71-0.64l0.61-0.74
			c7.13-8.69,11.05-19.66,11.05-30.88c0-26.89-21.88-48.76-48.76-48.76S36.5,57.71,36.5,84.6s21.88,48.76,48.76,48.76
			c11.24,0,22.21-3.93,30.9-11.07L116.9,121.69z M85.27,125.48c-22.54,0-40.88-18.34-40.88-40.88s18.34-40.88,40.88-40.88
			c22.54,0,40.88,18.34,40.88,40.88S107.81,125.48,85.27,125.48z M85.27,45.72c-21.44,0-38.88,17.44-38.88,38.88
			s17.44,38.88,38.88,38.88c21.44,0,38.88-17.44,38.88-38.88S106.71,45.72,85.27,45.72z"/>
	</g>
	<rect class="st1" width="196" height="196"/>
</g>
</svg>
