<svg xmlns="http://www.w3.org/2000/svg" width="102" height="102" viewBox="0 0 102 102">
  <g id="Group_11954" data-name="Group 11954" transform="translate(-8652 -8791)">
    <path id="Path_7925" data-name="Path 7925" d="M44.759,12a31.69,31.69,0,0,0-7.194.849,2.374,2.374,0,0,0-1.82,2.054l-.5,4.59a4.742,4.742,0,0,1-6.626,3.824h0L24.4,21.461a2.374,2.374,0,0,0-2.688.55A31.577,31.577,0,0,0,14.487,34.46a2.372,2.372,0,0,0,.868,2.6L19.1,39.8a4.745,4.745,0,0,1,0,7.655l-3.74,2.74a2.373,2.373,0,0,0-.868,2.6,31.573,31.573,0,0,0,7.222,12.452A2.373,2.373,0,0,0,24.4,65.8l4.216-1.857a4.747,4.747,0,0,1,6.629,3.827l.5,4.59a2.373,2.373,0,0,0,1.817,2.051,30.851,30.851,0,0,0,14.391,0,2.374,2.374,0,0,0,1.82-2.054l.5-4.59A4.745,4.745,0,0,1,60.9,63.941l4.22,1.857a2.373,2.373,0,0,0,2.688-.547A31.591,31.591,0,0,0,75.031,52.8a2.373,2.373,0,0,0-.868-2.6l-3.74-2.74a4.745,4.745,0,0,1,0-7.655l3.74-2.74a2.373,2.373,0,0,0,.868-2.6,31.59,31.59,0,0,0-7.222-12.452,2.373,2.373,0,0,0-2.688-.547L60.9,23.321a4.745,4.745,0,0,1-6.626-3.827l-.5-4.59a2.373,2.373,0,0,0-1.817-2.051A31.607,31.607,0,0,0,44.759,12Zm0,4.745a25.831,25.831,0,0,1,4.5.538l.3,2.727a9.493,9.493,0,0,0,13.255,7.655l2.508-1.1a26.666,26.666,0,0,1,4.516,7.788L67.614,35.98a9.489,9.489,0,0,0,0,15.3l2.224,1.631A26.666,26.666,0,0,1,65.322,60.7l-2.508-1.1a9.493,9.493,0,0,0-13.255,7.655l-.3,2.727a25.9,25.9,0,0,1-4.5.538,25.832,25.832,0,0,1-4.5-.538l-.3-2.727A9.492,9.492,0,0,0,26.7,59.6L24.2,60.7a26.648,26.648,0,0,1-4.516-7.788L21.9,51.283a9.492,9.492,0,0,0,0-15.306l-2.224-1.631A26.652,26.652,0,0,1,24.2,26.558l2.505,1.1A9.489,9.489,0,0,0,39.959,20.01l.3-2.727A25.894,25.894,0,0,1,44.759,16.745Zm0,14.234A12.652,12.652,0,1,0,57.411,43.631,12.688,12.688,0,0,0,44.759,30.979Zm0,4.745a7.908,7.908,0,1,1-7.908,7.908A7.872,7.872,0,0,1,44.759,35.723Z" transform="translate(8657.968 8799.353)" fill="#414141" stroke="#3f3f3f" stroke-width="0.25"/>
    <rect id="Rectangle_2419" data-name="Rectangle 2419" width="102" height="102" transform="translate(8652 8791)" fill="none"/>
  </g>
</svg>
