<svg xmlns="http://www.w3.org/2000/svg" width="21.858" height="16.591" viewBox="0 0 21.858 16.591">
  <g id="Group_11942" data-name="Group 11942" transform="translate(0.334 0)">
    <g id="Group_11966" data-name="Group 11966" transform="translate(0 0)">
      <g id="Path_7924" data-name="Path 7924" transform="translate(-0.334)" fill="none">
        <path d="M4.822,0H17.036a4.579,4.579,0,0,1,4.822,4.291V12.3a4.579,4.579,0,0,1-4.822,4.291H0V4.291A4.579,4.579,0,0,1,4.822,0Z" stroke="none"/>
        <path d="M 4.821626663208008 1.999996185302734 C 3.265777587890625 1.999996185302734 1.999996185302734 3.027636528015137 1.999996185302734 4.290786743164062 L 1.999996185302734 14.59105682373047 L 17.03640747070312 14.59105682373047 C 18.59225654602051 14.59105682373047 19.8580379486084 13.56341648101807 19.8580379486084 12.30026626586914 L 19.8580379486084 4.290786743164062 C 19.8580379486084 3.027636528015137 18.59225654602051 1.999996185302734 17.03640747070312 1.999996185302734 L 4.821626663208008 1.999996185302734 M 4.821626663208008 -3.814697265625e-06 L 17.03640747070312 -3.814697265625e-06 C 19.69931793212891 -3.814697265625e-06 21.8580379486084 1.921056747436523 21.8580379486084 4.290786743164062 L 21.8580379486084 12.30026626586914 C 21.8580379486084 14.66999626159668 19.69931793212891 16.59105682373047 17.03640747070312 16.59105682373047 L -3.814697265625e-06 16.59105682373047 L -3.814697265625e-06 4.290786743164062 C -3.814697265625e-06 1.921056747436523 2.158716201782227 -3.814697265625e-06 4.821626663208008 -3.814697265625e-06 Z" stroke="none" fill="#fff"/>
      </g>
      <g id="Group_11941" data-name="Group 11941" transform="translate(4.042 6.667)">
        <circle id="Ellipse_428" data-name="Ellipse 428" cx="1.5" cy="1.5" r="1.5" transform="translate(0.623 0.333)" fill="#fff"/>
        <circle id="Ellipse_429" data-name="Ellipse 429" cx="1.5" cy="1.5" r="1.5" transform="translate(5.623 0.333)" fill="#fff"/>
        <circle id="Ellipse_430" data-name="Ellipse 430" cx="1.5" cy="1.5" r="1.5" transform="translate(10.623 0.333)" fill="#fff"/>
      </g>
    </g>
  </g>
</svg>
