<svg xmlns="http://www.w3.org/2000/svg" width="24" height="24" viewBox="0 0 24 24">
  <g id="Group_6826" data-name="Group 6826" transform="translate(-391 -257)">
    <rect id="Rectangle_1218" data-name="Rectangle 1218" width="24" height="24" transform="translate(391 257)" fill="#fff" opacity="0"/>
    <g id="Group_6825" data-name="Group 6825" transform="translate(180.5 183.75)">
      <circle id="Ellipse_121" data-name="Ellipse 121" cx="0.455" cy="0.455" r="0.455" transform="translate(225.455 80.433)" fill="#000000" stroke="#000000" stroke-width="0.5"/>
      <path id="Path_3191" data-name="Path 3191" d="M269.955,102.886a.454.454,0,0,0,.455-.455V99.7a.455.455,0,1,0-.909,0v2.727A.454.454,0,0,0,269.955,102.886Z" transform="translate(-44.045 -17)" fill="#000000" stroke="#000000" stroke-width="0.5"/>
      <path id="Path_3192" data-name="Path 3192" d="M230.955,90.159h3.182a.455.455,0,1,0,0-.909h-3.182a.455.455,0,0,0,0,.909Z" transform="translate(-13.909 -9.273)" fill="#000000" stroke="#000000" stroke-width="0.5"/>
      <path id="Path_3193" data-name="Path 3193" d="M230.955,98.159h3.182a.455.455,0,1,0,0-.909h-3.182a.455.455,0,0,0,0,.909Z" transform="translate(-13.909 -15.455)" fill="#000000" stroke="#000000" stroke-width="0.5"/>
      <path id="Path_3194" data-name="Path 3194" d="M230.955,106.159h3.182a.455.455,0,1,0,0-.909h-3.182a.455.455,0,1,0,0,.909Z" transform="translate(-13.909 -21.636)" fill="#000000" stroke="#000000" stroke-width="0.5"/>
      <path id="Path_3195" data-name="Path 3195" d="M230.955,114.159h3.182a.455.455,0,1,0,0-.909h-3.182a.455.455,0,1,0,0,.909Z" transform="translate(-13.909 -27.818)" fill="#000000" stroke="#000000" stroke-width="0.5"/>
      <path id="Path_3196" data-name="Path 3196" d="M232.045,79.068h-1.364V77.7a.454.454,0,0,0-.455-.455h-5.909a2.264,2.264,0,0,0-1.818.923,2.264,2.264,0,0,0-1.818-.923h-5.909a.454.454,0,0,0-.455.455v1.364h-1.364a.454.454,0,0,0-.455.455V90.432a.454.454,0,0,0,.455.455H217.5c2.48,0,3.28.737,4.636,2.545a.454.454,0,0,0,.727,0c1.409-1.878,2.184-2.545,3.727-2.545h5.455a.454.454,0,0,0,.455-.455V79.523A.454.454,0,0,0,232.045,79.068Zm-7.727-.909h5.455v10h-5a2.6,2.6,0,0,0-1.818.845V79.523A1.365,1.365,0,0,1,224.318,78.159Zm-9.091,0h5.455a1.365,1.365,0,0,1,1.364,1.364v9.51a2.665,2.665,0,0,0-1.818-.873h-5Zm16.364,11.818h-5c-1.917,0-2.936.947-4.092,2.433a5.426,5.426,0,0,0-5-2.433h-4.091v-10h.909v8.636a.454.454,0,0,0,.455.455h5.455c.7,0,1.487.808,1.866,1.567a.454.454,0,0,0,.407.251.467.467,0,0,0,.1-.012.45.45,0,0,0,.3-.247l0,.007c.379-.758,1.068-1.567,1.866-1.567h5.455a.454.454,0,0,0,.455-.455V79.977h.909Z" fill="#000000" stroke="#000000" stroke-width="0.5"/>
    </g>
  </g>
</svg>
