<svg xmlns="http://www.w3.org/2000/svg" width="81" height="80" viewBox="0 0 81 80">
  <g id="Group_11939" data-name="Group 11939" transform="translate(0.399 -0.472)">
    <path id="Path_7127" data-name="Path 7127" d="M-301.867,197.148h-6.952v-5.926a3.575,3.575,0,0,0-3.571-3.571h-2.727a14.268,14.268,0,0,0-10.627-11.735v-3.493h3.065a1.8,1.8,0,0,0,1.794-1.794V168.3a1.8,1.8,0,0,0-1.794-1.794h-7.216a1.8,1.8,0,0,0-1.794,1.794v7.418a14.261,14.261,0,0,0-11.584,11.937h-2.681a3.575,3.575,0,0,0-3.571,3.571v5.926h-6.97a4.138,4.138,0,0,0-4.133,4.133v27.075h62.912V201.3A4.156,4.156,0,0,0-301.867,197.148Zm-27.328-17.519a10.109,10.109,0,0,1,9.878,8.022h-19.755A10.108,10.108,0,0,1-329.195,179.629Zm-20.33,44.588h-6.964l-.006-22.93h6.97Zm16.848,0V208.786h6.964v15.431Zm19.719,0h-8.616v-15.89a3.684,3.684,0,0,0-3.68-3.68h-7.883a3.684,3.684,0,0,0-3.68,3.68v15.89h-8.57V191.79h32.428v32.427Zm11.1,0h-6.964V201.29l6.964.01Z" transform="translate(370.497 -156.458)" fill="#414141"/>
    <rect id="Rectangle_2270" data-name="Rectangle 2270" width="81" height="80" transform="translate(-0.399 0.472)" fill="none"/>
  </g>
</svg>
