<?xml version="1.0" encoding="utf-8"?>
<!-- Generator: Adobe Illustrator 24.3.0, SVG Export Plug-In . SVG Version: 6.00 Build 0)  -->
<svg version="1.1" id="Icon_Set" xmlns="http://www.w3.org/2000/svg" xmlns:xlink="http://www.w3.org/1999/xlink" x="0px" y="0px"
	 viewBox="0 0 196 196" style="enable-background:new 0 0 196 196;" xml:space="preserve">
<style type="text/css">
	.st0{fill:#2933C5;}
	.st1{fill:none;}
	.st2{fill:#2933C5;stroke:#2933C5;stroke-width:0.25;stroke-miterlimit:10;}
	.st3{fill:#2933BC;}
	.st4{fill:#1CB69A;}
	.st5{fill:#FFFFFF;}
	.st6{fill:#F64066;}
</style>
<g>
	<path class="st0" d="M174,77.8c0.02-0.5-0.12-0.99-0.39-1.42l-14.8-38.08c-0.49-0.8-1.39-1.29-2.36-1.29H39.55
		c-0.97,0-1.86,0.49-2.36,1.29l-14.8,38.09c-0.26,0.43-0.41,0.92-0.39,1.42c0.33,7.36,5.43,13.64,12.26,16.62V152c0,3.86,3.14,7,7,7
		H155c3.86,0,7-3.14,7-7V94.66C168.84,91.79,173.69,85.36,174,77.8z M45.9,49h104.19l11.64,29.94c-0.94,3.06-4.09,5.34-7.72,5.34
		c-2.9,0-5.58-1.44-7-3.75c-2.48-4.03-6.78-6.44-11.5-6.44c-4.73,0-9.03,2.41-11.5,6.44c-1.42,2.31-4.1,3.75-7,3.75
		c-2.93,0-5.63-1.46-7.04-3.81c-2.4-4.01-6.79-6.49-11.47-6.49c-4.67,0-9.06,2.49-11.46,6.49c-1.41,2.35-4.11,3.81-7.04,3.81
		s-5.63-1.46-7.04-3.81c-2.4-4.01-6.79-6.49-11.47-6.49c-4.67,0-9.06,2.49-11.46,6.49c-1.41,2.35-4.11,3.81-7.04,3.81
		c-3.88,0-7.58-2.44-8.68-5.45L45.9,49z M46.26,147V96.01c6.02-0.95,11.13-4.48,14.06-9.38c0.26-0.44,0.72-0.66,1.17-0.66
		s0.91,0.22,1.17,0.66c3.45,5.76,9.92,9.64,17.33,9.64s13.88-3.88,17.33-9.64c0.26-0.44,0.72-0.66,1.17-0.66s0.91,0.22,1.17,0.66
		c3.45,5.76,9.92,9.64,17.33,9.64c7.34,0,13.75-3.8,17.23-9.47c0.29-0.48,0.78-0.72,1.28-0.72c0.49,0,0.98,0.24,1.28,0.72
		c2.83,4.61,7.59,7.98,13.22,9.08V147H46.26z"/>
	<rect class="st1" width="196" height="196"/>
</g>
</svg>
