<svg xmlns="http://www.w3.org/2000/svg" width="50.546" height="64.081" viewBox="0 0 50.546 64.081">
  <g id="Group_5042" data-name="Group 5042" transform="translate(193.793 808.481) rotate(-111)">
    <path id="Path_2777" data-name="Path 2777" d="M827.632,142.946l-6.5-4.78a2.205,2.205,0,0,0-3.083.471l-4.78,6.5a2.205,2.205,0,1,0,3.554,2.612l1.607-2.186a15.926,15.926,0,0,1-3.115,8.659,15.555,15.555,0,0,1-6.345,5.041,15.745,15.745,0,0,1-17.832-3.6,2.121,2.121,0,0,0-3.667,1.273,2.152,2.152,0,0,0,.584,1.651,20.1,20.1,0,0,0,14.526,6.255h0a20.236,20.236,0,0,0,5.229-.69A20.093,20.093,0,0,0,822.7,144.8l2.318,1.7a2.206,2.206,0,0,0,3.083-.471h0A2.205,2.205,0,0,0,827.632,142.946Z" transform="translate(-17.328 -23.006)" fill="#2933c5" stroke="#2933c5" stroke-width="0.5"/>
    <path id="Path_2778" data-name="Path 2778" d="M800.472,107.2a20.255,20.255,0,0,0-20.184-6.326,20.1,20.1,0,0,0-15.108,19.546l-2.423-1.7a2.238,2.238,0,1,0-2.576,3.662l6.764,4.758a2.239,2.239,0,0,0,3.119-.543l4.758-6.764a2.239,2.239,0,0,0-.543-3.119h0a2.238,2.238,0,0,0-3.119.543l-1.717,2.441a15.853,15.853,0,0,1,11.9-14.7,15.965,15.965,0,0,1,15.917,4.99,2.12,2.12,0,0,0,3.723-1.1A2.16,2.16,0,0,0,800.472,107.2Z" transform="translate(0 0)" fill="#2933c5" stroke="#2933c5" stroke-width="0.5"/>
  </g>
</svg>
