<svg xmlns="http://www.w3.org/2000/svg" width="48" height="48" viewBox="0 0 48 48">
  <g id="Line" transform="translate(-0.289 -0.408)">
    <rect id="Rectangle_2025" data-name="Rectangle 2025" width="48" height="48" transform="translate(0.289 0.408)" fill="none"/>
    <g id="Group_5451" data-name="Group 5451" transform="translate(8.711 8.795)">
      <g id="Group_5449" data-name="Group 5449" transform="translate(0 19.24)">
        <path id="Path_3341" data-name="Path 3341" d="M64.621,114.59h0a1.391,1.391,0,0,0-1.386,1.386l-.044,7.338H37.762l.044-7.338a1.377,1.377,0,0,0-1.369-1.386,1.391,1.391,0,0,0-1.386,1.386L35,124.707a1.362,1.362,0,0,0,1.369,1.369H64.552a1.377,1.377,0,0,0,1.386-1.369l.051-8.731A1.377,1.377,0,0,0,64.621,114.59Z" transform="translate(-34.878 -114.47)" fill="#fff"/>
        <path id="Path_3342" data-name="Path 3342" d="M64.184,125.827H35.991a1.492,1.492,0,0,1-1.057-.437,1.462,1.462,0,0,1-.434-1.054l.051-8.731A1.518,1.518,0,0,1,35,114.542a1.477,1.477,0,0,1,1.054-.442h.01a1.5,1.5,0,0,1,1.491,1.508l-.041,7.215H62.7l.041-7.218a1.518,1.518,0,0,1,.444-1.064,1.477,1.477,0,0,1,1.054-.442h.01a1.5,1.5,0,0,1,1.489,1.506l-.051,8.731a1.5,1.5,0,0,1-1.5,1.491Zm-.01-.244h.007a1.254,1.254,0,0,0,1.257-1.247l.051-8.731a1.254,1.254,0,0,0-1.247-1.264h-.007a1.239,1.239,0,0,0-.881.368,1.272,1.272,0,0,0-.373.893l-.044,7.46H37.262l.044-7.457a1.254,1.254,0,0,0-1.247-1.262h-.007a1.239,1.239,0,0,0-.881.368,1.272,1.272,0,0,0-.373.893l-.051,8.731a1.224,1.224,0,0,0,.361.881,1.256,1.256,0,0,0,.886.366Z" transform="translate(-34.5 -114.1)" fill="#fff"/>
      </g>
      <g id="Group_5450" data-name="Group 5450" transform="translate(5.649)">
        <path id="Path_3343" data-name="Path 3343" d="M60.488,46.517l6.159-6.088-.1,16.793a1.377,1.377,0,0,0,2.755.017l.1-16.783L75.476,46.6a1.376,1.376,0,0,0,1.947.012h0a1.376,1.376,0,0,0,.012-1.947l-8.418-8.519a1.376,1.376,0,0,0-1.947-.012l-8.519,8.418a1.378,1.378,0,1,0,1.937,1.959Z" transform="translate(-58.021 -35.621)" fill="#fff"/>
        <path id="Path_3344" data-name="Path 3344" d="M67.554,58.358h-.01a1.5,1.5,0,0,1-1.488-1.506l.1-16.5L60.2,46.233a1.494,1.494,0,0,1-1.054.432h-.01A1.5,1.5,0,0,1,58.093,44.1l8.519-8.418a1.494,1.494,0,0,1,1.054-.432h.01a1.485,1.485,0,0,1,1.057.447l8.418,8.519a1.5,1.5,0,0,1-.015,2.118,1.439,1.439,0,0,1-1.061.432,1.493,1.493,0,0,1-1.057-.444l-5.869-5.939-.1,16.488A1.5,1.5,0,0,1,67.554,58.358ZM66.4,39.764l-.1,17.088a1.254,1.254,0,0,0,1.247,1.264h.007a1.257,1.257,0,0,0,1.254-1.247l.1-17.076,6.283,6.359a1.247,1.247,0,0,0,.886.373h.007a1.253,1.253,0,0,0,.891-2.135l-8.418-8.519a1.247,1.247,0,0,0-.886-.373h-.007a1.253,1.253,0,0,0-.881.361l-8.519,8.418a1.254,1.254,0,0,0,1.764,1.784Z" transform="translate(-57.649 -35.25)" fill="#fff"/>
      </g>
    </g>
  </g>
</svg>
