<?xml version="1.0" encoding="utf-8"?>
<!-- Generator: Adobe Illustrator 24.3.0, SVG Export Plug-In . SVG Version: 6.00 Build 0)  -->
<svg version="1.1" id="Icon_Set" xmlns="http://www.w3.org/2000/svg" xmlns:xlink="http://www.w3.org/1999/xlink" x="0px" y="0px"
	 viewBox="0 0 196 196" style="enable-background:new 0 0 196 196;" xml:space="preserve">
<style type="text/css">
	.st0{fill:#2933C5;}
	.st1{fill:none;}
	.st2{fill:#2933C5;stroke:#2933C5;stroke-width:0.25;stroke-miterlimit:10;}
	.st3{fill:#2933BC;}
	.st4{fill:#1CB69A;}
	.st5{fill:#FFFFFF;}
	.st6{fill:#F64066;}
</style>
<g>
	<path class="st4" d="M181,196H15c-8.25,0-15-6.75-15-15V15C0,6.75,6.75,0,15,0h166c8.25,0,15,6.75,15,15v166
		C196,189.25,189.25,196,181,196z"/>
	<g>
		<path class="st5" d="M89.93,144.63c-3.13,0-6.13-1.33-8.19-3.65l-35.42-36.92c-2.49-2.59-2.4-6.7,0.19-9.19
			c2.59-2.49,6.71-2.4,9.19,0.19l33.97,35.41l51.49-74.66c2.04-2.95,6.09-3.7,9.04-1.66c2.96,2.04,3.7,6.09,1.66,9.04l-52.8,76.57
			c-1.84,2.81-4.96,4.62-8.37,4.85C90.43,144.62,90.18,144.63,89.93,144.63z"/>
	</g>
	<rect class="st1" width="196" height="196"/>
</g>
</svg>
