<svg xmlns="http://www.w3.org/2000/svg" width="78" height="78" viewBox="0 0 78 78">
  <g id="Group_11553" data-name="Group 11553" transform="translate(-0.097 -0.291)">
    <circle id="Ellipse_244" data-name="Ellipse 244" cx="39" cy="39" r="39" transform="translate(0.097 0.292)" fill="#1cb69a"/>
    <g id="Group_4268" data-name="Group 4268" transform="translate(18.006 22.747)">
      <path id="Path_2683" data-name="Path 2683" d="M1466.263,1412.611l-10.658-13.434a2.915,2.915,0,0,1,.472-4.094h0a2.914,2.914,0,0,1,4.095.471l8.375,10.555,20.846-26.272a2.914,2.914,0,0,1,4.094-.471h0a2.916,2.916,0,0,1,.472,4.1l-23.128,29.15A2.916,2.916,0,0,1,1466.263,1412.611Z" transform="translate(-1454.974 -1378.734)" fill="#fff"/>
    </g>
  </g>
</svg>
