<svg xmlns="http://www.w3.org/2000/svg" width="78" height="78" viewBox="0 0 78 78">
  <g id="Group_11554" data-name="Group 11554" transform="translate(-0.155 -0.293)">
    <g id="Group_7635" data-name="Group 7635" transform="translate(0 -0.001)">
      <circle id="Ellipse_244" data-name="Ellipse 244" cx="39" cy="39" r="39" transform="translate(0.155 0.293)" fill="#f64066"/>
    </g>
    <path id="Path_3408" data-name="Path 3408" d="M1394.057,1378.549h0a3.217,3.217,0,0,0-4.548,0l-13.272,13.273-13.273-13.273a3.217,3.217,0,0,0-4.548,0h0a3.213,3.213,0,0,0,0,4.546l13.272,13.274-13.272,13.272a3.216,3.216,0,0,0,0,4.548h0a3.216,3.216,0,0,0,4.548,0l13.273-13.272,13.272,13.272a3.216,3.216,0,0,0,4.548,0h0a3.216,3.216,0,0,0,0-4.548l-13.273-13.272,13.273-13.274A3.214,3.214,0,0,0,1394.057,1378.549Z" transform="translate(-1336.233 -1356.366)" fill="#fff"/>
  </g>
</svg>
