<svg xmlns="http://www.w3.org/2000/svg" width="37" height="37" viewBox="0 0 37 37">
  <g id="Group_11567" data-name="Group 11567" transform="translate(-1310 -351)">
    <g id="Rectangle_2295" data-name="Rectangle 2295" transform="translate(1310 351)" fill="#2933c5" stroke="#2933c5" stroke-width="1">
      <rect width="37" height="37" rx="18.5" stroke="none"/>
      <rect x="0.5" y="0.5" width="36" height="36" rx="18" fill="none"/>
    </g>
    <g id="Group_11144" data-name="Group 11144" transform="translate(1317.01 359.64)">
      <path id="Path_2683" data-name="Path 2683" d="M1461.137,1397.229l-5.819-7.334a1.592,1.592,0,0,1,.258-2.236h0a1.591,1.591,0,0,1,2.236.257l4.572,5.763,11.38-14.344a1.592,1.592,0,0,1,2.236-.257h0a1.591,1.591,0,0,1,.258,2.236l-12.627,15.915A1.592,1.592,0,0,1,1461.137,1397.229Z" transform="translate(-1454.974 -1378.734)" fill="#fff"/>
    </g>
  </g>
</svg>
