<svg xmlns="http://www.w3.org/2000/svg" width="20" height="19" viewBox="0 0 20 19">
  <g id="Line" transform="translate(0.329 -0.437)">
    <rect id="Rectangle_2025" data-name="Rectangle 2025" width="20" height="19" transform="translate(-0.329 0.437)" fill="none"/>
    <g id="Group_5451" data-name="Group 5451" transform="translate(1.671 1.437)">
      <g id="Group_5449" data-name="Group 5449" transform="translate(0 9.968)">
        <path id="Path_3341" data-name="Path 3341" d="M50.346,114.59h0a.721.721,0,0,0-.718.718l-.023,3.8H36.431l.023-3.8a.713.713,0,0,0-.709-.718.721.721,0,0,0-.718.718L35,119.831a.706.706,0,0,0,.709.709h14.6a.713.713,0,0,0,.718-.709l.027-4.523A.713.713,0,0,0,50.346,114.59Z" transform="translate(-34.937 -114.528)" fill="#ffa92b"/>
        <path id="Path_3342" data-name="Path 3342" d="M49.879,120.176H35.272a.773.773,0,0,1-.547-.226.757.757,0,0,1-.225-.546l.027-4.523a.787.787,0,0,1,.23-.551.765.765,0,0,1,.546-.229h.005a.778.778,0,0,1,.772.781l-.021,3.738H49.108l.021-3.739a.787.787,0,0,1,.23-.551.765.765,0,0,1,.546-.229h.005a.775.775,0,0,1,.771.78l-.027,4.523a.777.777,0,0,1-.776.772Zm-.005-.126h0a.65.65,0,0,0,.651-.646l.027-4.523a.65.65,0,0,0-.646-.655h0a.642.642,0,0,0-.456.191.659.659,0,0,0-.193.463l-.023,3.865h-13.3l.023-3.863a.65.65,0,0,0-.646-.654h0a.642.642,0,0,0-.456.191.659.659,0,0,0-.193.463l-.027,4.523a.634.634,0,0,0,.187.456.651.651,0,0,0,.459.19Z" transform="translate(-34.5 -114.1)" fill="#ffa92b"/>
      </g>
      <g id="Group_5450" data-name="Group 5450" transform="translate(13.327 11.972) rotate(180)">
        <path id="Path_3343" data-name="Path 3343" d="M59.357,41.324l3.191-3.154-.052,8.7a.714.714,0,0,0,1.427.009l.051-8.7,3.148,3.186a.713.713,0,0,0,1.009.006h0a.713.713,0,0,0,.006-1.009l-4.361-4.413a.713.713,0,0,0-1.009-.006l-4.413,4.361a.714.714,0,1,0,1,1.015Z" transform="translate(-58.079 -35.679)" fill="#ffa92b"/>
        <path id="Path_3344" data-name="Path 3344" d="M62.78,47.222h-.005a.775.775,0,0,1-.771-.78l.051-8.548L58.971,40.94a.774.774,0,0,1-.546.224H58.42a.776.776,0,0,1-.541-1.329l4.413-4.361a.774.774,0,0,1,.546-.224h.005a.769.769,0,0,1,.547.231l4.361,4.413a.775.775,0,0,1-.008,1.1.746.746,0,0,1-.55.224.773.773,0,0,1-.547-.23l-3.04-3.077-.051,8.542A.777.777,0,0,1,62.78,47.222Zm-.6-9.633-.052,8.853a.65.65,0,0,0,.646.655h0a.651.651,0,0,0,.65-.646l.052-8.847L66.737,40.9a.646.646,0,0,0,.459.193h0a.649.649,0,0,0,.461-1.106L63.3,35.572a.646.646,0,0,0-.459-.193h0a.649.649,0,0,0-.456.187l-4.413,4.361a.65.65,0,0,0,.914.924Z" transform="translate(-57.649 -35.25)" fill="#ffa92b"/>
      </g>
    </g>
  </g>
</svg>
