<?xml version="1.0" encoding="utf-8"?>
<!-- Generator: Adobe Illustrator 24.3.0, SVG Export Plug-In . SVG Version: 6.00 Build 0)  -->
<svg version="1.1" id="Icon_Set" xmlns="http://www.w3.org/2000/svg" xmlns:xlink="http://www.w3.org/1999/xlink" x="0px" y="0px"
	 viewBox="0 0 196 196" style="enable-background:new 0 0 196 196;" xml:space="preserve">
<style type="text/css">
	.st0{fill:#2933C5;}
	.st1{fill:none;}
	.st2{fill:#2933C5;stroke:#2933C5;stroke-width:0.25;stroke-miterlimit:10;}
	.st3{fill:#2933BC;}
	.st4{fill:#1CB69A;}
	.st5{fill:#FFFFFF;}
	.st6{fill:#F64066;}
</style>
<g>
	<g>
		<path class="st0" d="M146.19,63.45h-17.61V51.82c0-5.55-4.71-10.07-10.5-10.07h-40.5c-5.79,0-10.5,4.52-10.5,10.07v11.63H49.48
			c-2.9,0-5.25,2.35-5.25,5.25s2.35,5.25,5.25,5.25h5.63c0,0.07-0.02,0.14-0.02,0.22v64.68c0,9.05,7,16.41,15.61,16.41h54.27
			c8.61,0,15.61-7.36,15.61-16.41V74.16c0-0.07-0.02-0.14-0.02-0.22h5.63c2.9,0,5.25-2.35,5.25-5.25S149.09,63.45,146.19,63.45z
			 M77.58,52.25L77.58,52.25h40.5h0v11.2h-40.5V52.25z M130.08,74.16v64.68c0,3.26-2.29,5.91-5.11,5.91H70.7
			c-2.82,0-5.11-2.65-5.11-5.91V74.16c0-0.07-0.02-0.14-0.02-0.22h64.54C130.1,74.02,130.08,74.09,130.08,74.16z"/>
		<g>
			<path class="st0" d="M86.5,133.25c-2.9,0-5.25-2.35-5.25-5.25V89c0-2.9,2.35-5.25,5.25-5.25s5.25,2.35,5.25,5.25v39
				C91.75,130.9,89.4,133.25,86.5,133.25z"/>
		</g>
		<g>
			<path class="st0" d="M108.5,133.25c-2.9,0-5.25-2.35-5.25-5.25V89c0-2.9,2.35-5.25,5.25-5.25s5.25,2.35,5.25,5.25v39
				C113.75,130.9,111.4,133.25,108.5,133.25z"/>
		</g>
	</g>
	<rect class="st1" width="196" height="196"/>
</g>
</svg>
