<?xml version="1.0" encoding="utf-8"?>
<!-- Generator: Adobe Illustrator 24.3.0, SVG Export Plug-In . SVG Version: 6.00 Build 0)  -->
<svg version="1.1" id="Icon_Set" xmlns="http://www.w3.org/2000/svg" xmlns:xlink="http://www.w3.org/1999/xlink" x="0px" y="0px"
	 viewBox="0 0 196 197" style="enable-background:new 0 0 196 197;" xml:space="preserve">
<style type="text/css">
	.st0{fill:#2933C5;}
	.st1{fill:none;}
	.st2{fill:#2933C5;stroke:#2933C5;stroke-width:0.25;stroke-miterlimit:10;}
	.st3{fill:#2933BC;}
	.st4{fill:#1CB69A;}
	.st5{fill:#FFFFFF;}
	.st6{fill:#F64066;}
</style>
<g>
	<g>
		<path class="st0" d="M137.83,72.44h-21.02V50.51c0-2.43-1.98-4.41-4.41-4.41h-83c-2.43,0-4.41,1.98-4.41,4.41v83.13
			c0,2.43,1.98,4.41,4.41,4.41h3.04c0.86,9.62,8.96,17.2,18.8,17.2c9.41,0,17.23-6.92,18.65-15.93h34.76
			c1.42,9.01,9.24,15.93,18.65,15.93c9.84,0,17.95-7.57,18.8-17.2h22.8c2.79,0,5.06-2.27,5.06-5.06v-28.39
			C169.98,86.86,155.55,72.44,137.83,72.44z M29.19,133.64V50.51c0-0.12,0.1-0.21,0.21-0.21h83c0.12,0,0.21,0.1,0.21,0.21v21.93
			v48.37c-4.62,3.19-7.76,8.38-8.14,14.31H70.09c-0.64-9.83-8.84-17.64-18.84-17.64c-9.56,0-17.48,7.15-18.71,16.38h-3.13
			C29.29,133.85,29.19,133.76,29.19,133.64z M51.25,151.05c-8.1,0-14.69-6.59-14.69-14.69c0-8.1,6.59-14.69,14.69-14.69
			c8.1,0,14.69,6.59,14.69,14.69C65.94,144.46,59.35,151.05,51.25,151.05z M123.31,151.05c-8.1,0-14.69-6.59-14.69-14.69
			c0-8.1,6.59-14.69,14.69-14.69c8.1,0,14.69,6.59,14.69,14.69C138,144.46,131.41,151.05,123.31,151.05z M165.78,132.98
			c0,0.48-0.39,0.87-0.87,0.87h-22.9c-1.23-9.23-9.15-16.38-18.71-16.38c-2.28,0-4.47,0.41-6.5,1.15v-42h21.02
			c15.42,0,27.96,12.54,27.96,27.96V132.98z"/>
		<path class="st0" d="M123.31,158.74c-9.88,0-18.62-6.67-21.43-15.93h-29.2c-2.81,9.26-11.55,15.93-21.43,15.93
			c-10.39,0-19.39-7.33-21.77-17.2h-0.08c-4.36,0-7.91-3.55-7.91-7.91V50.51c0-4.36,3.55-7.91,7.91-7.91h83
			c4.36,0,7.91,3.55,7.91,7.91v18.43h17.52c19.66,0,35.65,15.99,35.65,35.65v28.39c0,4.72-3.84,8.56-8.56,8.56h-19.84
			C142.7,151.41,133.7,158.74,123.31,158.74z M123.31,125.17c-6.17,0-11.19,5.02-11.19,11.19c0,6.17,5.02,11.19,11.19,11.19
			c6.17,0,11.19-5.02,11.19-11.19C134.5,130.19,129.48,125.17,123.31,125.17z M51.25,125.17c-6.17,0-11.19,5.02-11.19,11.19
			c0,6.17,5.02,11.19,11.19,11.19s11.19-5.02,11.19-11.19C62.44,130.19,57.42,125.17,51.25,125.17z M73.12,131.62h28.31
			c1.06-4.92,3.74-9.33,7.68-12.55V53.8H32.69v70.08c4.06-6,10.93-9.9,18.56-9.9C61.89,113.97,70.93,121.5,73.12,131.62z
			 M144.87,130.35h17.42v-25.76c0-13.49-10.97-24.46-24.46-24.46h-17.52v34.04c0.99-0.13,1.99-0.2,3-0.2
			C133.43,113.97,142.21,120.83,144.87,130.35z"/>
	</g>
	<rect class="st1" width="196" height="197"/>
</g>
</svg>
