<?xml version="1.0" encoding="utf-8"?>
<!-- Generator: Adobe Illustrator 24.3.0, SVG Export Plug-In . SVG Version: 6.00 Build 0)  -->
<svg version="1.1" id="Icon_Set" xmlns="http://www.w3.org/2000/svg" xmlns:xlink="http://www.w3.org/1999/xlink" x="0px" y="0px"
	 viewBox="0 0 196 196" style="enable-background:new 0 0 196 196;" xml:space="preserve">
<style type="text/css">
	.st0{fill:#2933C5;}
	.st1{fill:none;}
	.st2{fill:#2933C5;stroke:#2933C5;stroke-width:0.25;stroke-miterlimit:10;}
	.st3{fill:#2933BC;}
	.st4{fill:#1CB69A;}
	.st5{fill:#FFFFFF;}
	.st6{fill:#F64066;}
</style>
<g>
	<rect class="st1" width="196" height="196"/>
	<path class="st0" d="M151.27,68.88h-12.15C135.86,49.12,118.67,34,98,34S60.14,49.12,56.88,68.88H44.73c-2.76,0-5,2.43-5,5.43
		v82.13c0,3,2.24,5.43,5,5.43h106.54c2.76,0,5-2.43,5-5.43V74.31C156.27,71.31,154.03,68.88,151.27,68.88z M98,46
		c14.03,0,25.8,9.78,28.89,22.88H69.11C72.2,55.78,83.97,46,98,46z M144.27,148.84H51.73V81.92h92.54V148.84z"/>
	<circle class="st0" cx="98" cy="115.38" r="10"/>
</g>
</svg>
