<?xml version="1.0" encoding="utf-8"?>
<!-- Generator: Adobe Illustrator 24.3.0, SVG Export Plug-In . SVG Version: 6.00 Build 0)  -->
<svg version="1.1" id="Icon_Set" xmlns="http://www.w3.org/2000/svg" xmlns:xlink="http://www.w3.org/1999/xlink" x="0px" y="0px"
	 viewBox="0 0 196 196" style="enable-background:new 0 0 196 196;" xml:space="preserve">
<style type="text/css">
	.st0{fill:#2933C5;}
	.st1{fill:none;}
	.st2{fill:#2933C5;stroke:#2933C5;stroke-width:0.25;stroke-miterlimit:10;}
	.st3{fill:#2933BC;}
	.st4{fill:#1CB69A;}
	.st5{fill:#FFFFFF;}
	.st6{fill:#F64066;}
</style>
<g>
	<rect class="st1" width="196" height="196"/>
	<g>
		<g>
			<path class="st0" d="M156.39,114.59L156.39,114.59c-3.12-0.02-5.66,2.56-5.68,5.68l-0.18,30.07H46.32l0.18-30.07
				c0.02-3.12-2.49-5.66-5.61-5.68c-3.12-0.02-5.66,2.56-5.68,5.68L35,156.05c-0.02,3.12,2.49,5.59,5.61,5.61h115.5
				c3.12,0.02,5.66-2.49,5.68-5.61l0.21-35.78C162.02,117.15,159.51,114.61,156.39,114.59z"/>
			<path class="st0" d="M156.15,162.16c-0.01,0-0.02,0-0.04,0H40.61c-1.65-0.01-3.18-0.64-4.33-1.79c-1.16-1.15-1.79-2.69-1.78-4.32
				l0.21-35.78c0.01-1.64,0.66-3.19,1.82-4.36c1.16-1.17,2.7-1.81,4.32-1.81c0.01,0,0.02,0,0.04,0c3.39,0.02,6.13,2.79,6.11,6.18
				l-0.17,29.57h103.22l0.17-29.58c0.01-1.64,0.66-3.19,1.82-4.36c1.16-1.17,2.7-1.81,4.32-1.81c0.01,0,0.02,0,0.04,0
				c1.64,0.01,3.18,0.66,4.33,1.82s1.78,2.71,1.77,4.35l-0.21,35.78c-0.01,1.64-0.66,3.18-1.82,4.33
				C159.31,161.53,157.77,162.16,156.15,162.16z M156.11,161.16c0.01,0,0.02,0,0.03,0c1.37,0,2.65-0.53,3.62-1.48
				c0.98-0.97,1.52-2.25,1.53-3.63l0.21-35.78c0.01-1.37-0.52-2.67-1.48-3.65c-0.97-0.98-2.25-1.52-3.63-1.53l0,0
				c-0.01,0-0.02,0-0.03,0c-1.36,0-2.64,0.54-3.61,1.51c-0.98,0.98-1.52,2.29-1.53,3.66l-0.18,30.57H45.82L46,120.27
				c0.02-2.84-2.28-5.16-5.11-5.17c-0.01,0-0.02,0-0.03,0c-1.36,0-2.64,0.54-3.61,1.51c-0.98,0.98-1.52,2.29-1.53,3.66l-0.21,35.78
				c-0.01,1.37,0.52,2.65,1.48,3.61c0.96,0.96,2.25,1.49,3.63,1.5H156.11z"/>
		</g>
		<g>
			<path class="st0" d="M67.76,79.9L93,54.95l-0.41,68.82c-0.02,3.12,2.49,5.66,5.61,5.68c3.12,0.02,5.66-2.49,5.68-5.61l0.4-68.78
				l24.9,25.2c2.19,2.22,5.76,2.24,7.98,0.05l0,0c2.22-2.19,2.24-5.76,0.05-7.98l-34.5-34.91c-2.19-2.22-5.76-2.24-7.98-0.05
				l-34.91,34.5c-2.22,2.19-2.24,5.76-0.05,7.98C61.97,82.07,65.54,82.09,67.76,79.9z"/>
			<path class="st0" d="M98.24,129.95c-0.01,0-0.02,0-0.04,0c-1.64-0.01-3.18-0.66-4.33-1.82s-1.78-2.71-1.77-4.35l0.4-67.62
				l-24.39,24.1c-1.16,1.14-2.69,1.77-4.32,1.77c-0.01,0-0.02,0-0.04,0c-1.64-0.01-3.18-0.66-4.33-1.82
				c-2.38-2.41-2.36-6.31,0.05-8.69l34.91-34.5c1.16-1.14,2.69-1.77,4.32-1.77c0.01,0,0.02,0,0.04,0c1.64,0.01,3.18,0.66,4.33,1.83
				l34.5,34.91c1.15,1.17,1.78,2.71,1.77,4.35c-0.01,1.64-0.66,3.18-1.83,4.33s-2.68,1.82-4.35,1.77c-1.64-0.01-3.18-0.66-4.33-1.82
				l-24.05-24.34l-0.4,67.57C104.36,127.22,101.61,129.95,98.24,129.95z M93.51,53.75l-0.41,70.03c-0.01,1.37,0.52,2.67,1.48,3.65
				c0.97,0.98,2.25,1.52,3.63,1.53c0.01,0,0.02,0,0.03,0c2.82,0,5.12-2.29,5.14-5.11l0.41-69.98l25.75,26.06
				c0.97,0.98,2.25,1.52,3.63,1.53c0.01,0,0.02,0,0.03,0c1.36,0,2.64-0.53,3.61-1.48c2.02-1.99,2.04-5.26,0.04-7.27l-34.5-34.91
				c-0.97-0.98-2.25-1.52-3.63-1.53c-0.01,0-0.02,0-0.03,0c-1.36,0-2.64,0.53-3.61,1.48l-34.91,34.5c-2.02,1.99-2.04,5.26-0.04,7.27
				c1.99,2.02,5.26,2.04,7.27,0.04L93.51,53.75z"/>
		</g>
	</g>
</g>
</svg>
