<svg xmlns="http://www.w3.org/2000/svg" width="24" height="24" viewBox="0 0 24 24">
  <g id="Group_7577" data-name="Group 7577" transform="translate(-6203 -12716)">
    <g id="CRM-IconSet-20" transform="translate(6202.772 12715.919)">
      <rect id="Rectangle_2142" data-name="Rectangle 2142" width="24" height="24" transform="translate(0.228 0.081)" fill="none"/>
      <g id="Group_7391" data-name="Group 7391" transform="translate(4.402 4.941)">
        <g id="Group_7389" data-name="Group 7389" transform="translate(0 9.595)">
          <path id="Path_3386" data-name="Path 3386" d="M49.771,114.59h0a.694.694,0,0,0-.691.691l-.022,3.659H36.377l.022-3.659a.687.687,0,0,0-.683-.691.694.694,0,0,0-.691.691L35,119.635a.679.679,0,0,0,.683.683H49.737a.687.687,0,0,0,.691-.683l.026-4.354A.687.687,0,0,0,49.771,114.59Z" transform="translate(-34.939 -114.53)" fill="#fff"/>
          <path id="Path_3387" data-name="Path 3387" d="M49.3,119.948H35.243a.744.744,0,0,1-.527-.218.729.729,0,0,1-.217-.526l.026-4.354a.757.757,0,0,1,.221-.531.737.737,0,0,1,.526-.22h0a.748.748,0,0,1,.743.752L36,118.45H48.56l.021-3.6a.757.757,0,0,1,.221-.531.737.737,0,0,1,.526-.22h0a.746.746,0,0,1,.742.751L50.05,119.2a.748.748,0,0,1-.747.743Zm0-.122h0a.625.625,0,0,0,.627-.622l.026-4.354a.625.625,0,0,0-.622-.63h0a.618.618,0,0,0-.439.184.634.634,0,0,0-.186.445l-.022,3.72h-12.8l.022-3.719a.625.625,0,0,0-.622-.629h0a.618.618,0,0,0-.439.184.634.634,0,0,0-.186.445l-.026,4.354a.61.61,0,0,0,.18.439.626.626,0,0,0,.442.183Z" transform="translate(-34.5 -114.1)" fill="#fff"/>
        </g>
        <g id="Group_7390" data-name="Group 7390" transform="translate(2.817)">
          <path id="Path_3388" data-name="Path 3388" d="M59.312,41.114l3.071-3.036-.05,8.374a.687.687,0,0,0,1.374.009l.049-8.369,3.03,3.066a.686.686,0,0,0,.971.006h0a.686.686,0,0,0,.006-.971l-4.2-4.248a.686.686,0,0,0-.971-.006l-4.248,4.2a.687.687,0,1,0,.966.977Z" transform="translate(-58.081 -35.681)" fill="#fff"/>
          <path id="Path_3389" data-name="Path 3389" d="M62.588,46.773h0a.746.746,0,0,1-.742-.751l.049-8.228-2.968,2.933a.745.745,0,0,1-.526.215h0a.747.747,0,0,1-.521-1.279l4.248-4.2a.745.745,0,0,1,.526-.215h0a.74.74,0,0,1,.527.223l4.2,4.248a.746.746,0,0,1-.007,1.056.718.718,0,0,1-.529.215.744.744,0,0,1-.527-.221l-2.926-2.962-.049,8.222A.748.748,0,0,1,62.588,46.773ZM62.012,37.5l-.05,8.521a.625.625,0,0,0,.622.63h0a.627.627,0,0,0,.625-.622l.05-8.515L66.4,40.687a.622.622,0,0,0,.442.186h0a.625.625,0,0,0,.444-1.065l-4.2-4.248a.622.622,0,0,0-.442-.186h0a.625.625,0,0,0-.439.18l-4.248,4.2a.626.626,0,1,0,.88.889Z" transform="translate(-57.649 -35.25)" fill="#fff"/>
        </g>
      </g>
    </g>
  </g>
</svg>
