<?xml version="1.0" encoding="utf-8"?>
<!-- Generator: Adobe Illustrator 24.3.0, SVG Export Plug-In . SVG Version: 6.00 Build 0)  -->
<svg version="1.1" id="Icon_Set" xmlns="http://www.w3.org/2000/svg" xmlns:xlink="http://www.w3.org/1999/xlink" x="0px" y="0px"
	 viewBox="0 0 198 197" style="enable-background:new 0 0 198 197;" xml:space="preserve">
<style type="text/css">
	.st0{fill:#2933C5;}
	.st1{fill:none;}
	.st2{fill:#2933C5;stroke:#2933C5;stroke-width:0.25;stroke-miterlimit:10;}
	.st3{fill:#2933BC;}
	.st4{fill:#1CB69A;}
	.st5{fill:#FFFFFF;}
	.st6{fill:#F64066;}
</style>
<g>
	<g>
		<path class="st0" d="M134.4,158.87L134.4,158.87c-3.35,0-6.06-2.74-6.06-6.13v-10.97c0-12.67-8.52-22.98-18.98-22.98H54.96
			c-10.47,0-18.98,10.31-18.98,22.98v10.97c0,3.39-2.71,6.13-6.06,6.13h0c-3.35,0-6.06-2.74-6.06-6.13v-10.97
			c0-19.43,13.96-35.24,31.11-35.24h54.39c17.16,0,31.11,15.81,31.11,35.24v10.97C140.46,156.12,137.75,158.87,134.4,158.87z"/>
	</g>
	<path class="st0" d="M82.11,49.68c10.17,0,18.45,8.28,18.45,18.45s-8.28,18.45-18.45,18.45s-18.45-8.28-18.45-18.45
		S71.94,49.68,82.11,49.68 M82.11,38.87c-16.16,0-29.27,13.1-29.27,29.27c0,16.16,13.1,29.27,29.27,29.27s29.27-13.1,29.27-29.27
		C111.38,51.97,98.28,38.87,82.11,38.87L82.11,38.87z"/>
	<path class="st0" d="M169,88h-13V75c0-3.31-2.69-6-6-6s-6,2.69-6,6v13h-13c-3.31,0-6,2.69-6,6s2.69,6,6,6h13v13c0,3.31,2.69,6,6,6
		s6-2.69,6-6v-13h13c3.31,0,6-2.69,6-6S172.31,88,169,88z"/>
	<rect class="st1" width="198" height="197"/>
</g>
</svg>
