<svg id="Group_5049" data-name="Group 5049" xmlns="http://www.w3.org/2000/svg" width="26.831" height="27.611" viewBox="0 0 26.831 27.611">
  <g id="Group_5048" data-name="Group 5048" transform="translate(0 15.568)">
    <path id="Path_375" data-name="Path 375" d="M64.725,117.7h0a1.4,1.4,0,0,1-1.394-1.41v-2.524c0-2.915-1.96-5.288-4.367-5.288H46.446c-2.409,0-4.367,2.372-4.367,5.288v2.524a1.4,1.4,0,0,1-1.394,1.41h0a1.4,1.4,0,0,1-1.394-1.41v-2.524c0-4.471,3.212-8.109,7.158-8.109H58.963c3.948,0,7.158,3.638,7.158,8.109v2.524A1.4,1.4,0,0,1,64.725,117.7Z" transform="translate(-39.29 -105.66)" fill="#fff"/>
  </g>
  <path id="Path_376" data-name="Path 376" d="M75,40.49a4.245,4.245,0,1,1-4.245,4.245A4.251,4.251,0,0,1,75,40.49M75,38a6.735,6.735,0,1,0,6.735,6.735A6.735,6.735,0,0,0,75,38Z" transform="translate(-61.602 -38)" fill="#fff"/>
</svg>
