<?xml version="1.0" encoding="utf-8"?>
<!-- Generator: Adobe Illustrator 24.3.0, SVG Export Plug-In . SVG Version: 6.00 Build 0)  -->
<svg version="1.1" id="Icon_Set" xmlns="http://www.w3.org/2000/svg" xmlns:xlink="http://www.w3.org/1999/xlink" x="0px" y="0px"
	 viewBox="0 0 196 196" style="enable-background:new 0 0 196 196;" xml:space="preserve">
<style type="text/css">
	.st0{fill:#2933C5;}
	.st1{fill:none;}
	.st2{fill:#2933C5;stroke:#2933C5;stroke-width:0.25;stroke-miterlimit:10;}
	.st3{fill:#2933BC;}
	.st4{fill:#1CB69A;}
	.st5{fill:#FFFFFF;}
	.st6{fill:#F64066;}
</style>
<g>
	<g>
		<g>
			<path class="st0" d="M149.83,158L149.83,158c-3.35,0-6.06-2.74-6.06-6.13V140.9c0-12.67-8.52-22.98-18.98-22.98H70.39
				c-10.47,0-18.98,10.31-18.98,22.98v10.97c0,3.39-2.71,6.13-6.06,6.13h0c-3.35,0-6.06-2.74-6.06-6.13V140.9
				c0-19.43,13.96-35.24,31.11-35.24h54.39c17.16,0,31.11,15.81,31.11,35.24v10.97C155.89,155.26,153.18,158,149.83,158z"/>
		</g>
		<path class="st0" d="M97.54,48.82c10.17,0,18.45,8.28,18.45,18.45s-8.28,18.45-18.45,18.45s-18.45-8.28-18.45-18.45
			S87.37,48.82,97.54,48.82 M97.54,38c-16.16,0-29.27,13.1-29.27,29.27c0,16.16,13.1,29.27,29.27,29.27s29.27-13.1,29.27-29.27
			C126.81,51.1,113.71,38,97.54,38L97.54,38z"/>
	</g>
	<rect class="st1" width="196" height="196"/>
	<rect class="st1" width="196" height="196"/>
</g>
</svg>
