<svg xmlns="http://www.w3.org/2000/svg" width="20.92" height="14.735" viewBox="0 0 20.92 14.735">
  <g id="Group_5152" data-name="Group 5152" transform="translate(-34.445 -54.167)">
    <path id="Path_2878" data-name="Path 2878" d="M44.9,56.132c3.653,0,7.091,3.8,8.376,5.4-1.286,1.6-4.724,5.4-8.376,5.4s-7.091-3.8-8.376-5.4c1.286-1.6,4.724-5.4,8.376-5.4m0-1.965c-4.683,0-8.672,4.524-10.179,6.482a1.537,1.537,0,0,0,0,1.771c1.507,1.958,5.5,6.482,10.179,6.482s8.672-4.524,10.179-6.482a1.537,1.537,0,0,0,0-1.771c-1.507-1.958-5.5-6.482-10.179-6.482Z" transform="translate(0)" fill="#b4bfd9"/>
    <g id="Group_5151" data-name="Group 5151" transform="translate(40.648 57.414)">
      <path id="Path_2879" data-name="Path 2879" d="M76.59,82.514a4.257,4.257,0,1,1,4.257-4.257A4.261,4.261,0,0,1,76.59,82.514Zm0-6.549a2.292,2.292,0,1,0,2.292,2.292A2.295,2.295,0,0,0,76.59,75.965Z" transform="translate(-72.333 -74)" fill="#b4bfd9"/>
    </g>
  </g>
</svg>
