<svg xmlns="http://www.w3.org/2000/svg" width="62" height="94" viewBox="0 0 62 94"><defs><style>.a{fill:#fff;}.b{fill:#5a6793;}.c{fill:#2959c5;opacity:0.5;}.d{fill:#9093af;}</style></defs><g transform="translate(-1457.458 -464.959)"><g transform="translate(1457.238 465.407)"><rect class="a" width="62" height="94" transform="translate(0.22 -0.448)"/><g transform="translate(6.719 16.367)"><g transform="translate(0 0)"><path class="b" d="M833.019,581.812H804.966a1.585,1.585,0,1,0,0,3.171h28.053a1.585,1.585,0,1,0,0-3.171Z" transform="translate(-803.381 -525.213)"/><path class="b" d="M833.019,555.812H804.966a1.585,1.585,0,0,0,0,3.171h28.053a1.585,1.585,0,1,0,0-3.171Z" transform="translate(-803.381 -506.235)"/><path class="c" d="M805.377,504.907a1.869,1.869,0,0,0-2,1.691h0a1.868,1.868,0,0,0,2,1.691h.6a2.155,2.155,0,0,0,.483.06h21.256l-.11-.06h22.237a1.867,1.867,0,0,0,2-1.691h0a1.869,1.869,0,0,0-2-1.691Z" transform="translate(-803.381 -469.08)"/><path class="c" d="M851.884,530.249a1.869,1.869,0,0,0-2-1.691h-44.46a1.882,1.882,0,0,0-2.047,1.646,1.843,1.843,0,0,0,1.942,1.735h44.564A1.87,1.87,0,0,0,851.884,530.249Z" transform="translate(-803.381 -486.342)"/><path class="c" d="M848.384,375.786a2.1,2.1,0,0,0,1.671-.777,1.512,1.512,0,0,0,.517-1.117,1.764,1.764,0,0,0-1.878-1.629h0c-44.748.016-5.366.019-43.326.047a1.892,1.892,0,0,0-1.985,1.8,1.923,1.923,0,0,0,1.985,1.674Z" transform="translate(-803.381 -372.263)"/><path class="c" d="M849,402.768a2.223,2.223,0,0,0-.527-.07h-43a1.787,1.787,0,1,0,0,3.523h43.005a2.153,2.153,0,0,0,1.272-.413,1.613,1.613,0,0,0,.91-1.409A1.735,1.735,0,0,0,849,402.768Z" transform="translate(-803.381 -394.477)"/><path class="c" d="M848.384,436.656a2.1,2.1,0,0,0,1.671-.777,1.512,1.512,0,0,0,.517-1.117,1.765,1.765,0,0,0-1.878-1.629h0c-44.748.016-5.366.019-43.326.047a1.892,1.892,0,0,0-1.985,1.8,1.923,1.923,0,0,0,1.985,1.674Z" transform="translate(-803.381 -416.692)"/></g></g><path class="d" d="M8.041,0l8.041,8.041H0Z" transform="translate(54.114 18.77) rotate(-135)"/></g></g></svg>